<svg width="600" height="280" viewBox="0 0 600 280" fill="none" xmlns="http://www.w3.org/2000/svg">
<rect width="600" height="280" rx="16" fill="#F7FBF2"/>
<rect x="53" y="131.861" width="86" height="23.3776" rx="11.6888" fill="#D3E8D1"/>
<path d="M67.0568 148.537V139.81H68.1136V147.599H72.1705V148.537H67.0568ZM75.5966 148.69C75.1818 148.69 74.8054 148.612 74.4673 148.456C74.1293 148.297 73.8608 148.068 73.6619 147.77C73.4631 147.469 73.3636 147.105 73.3636 146.679C73.3636 146.304 73.4375 146 73.5852 145.767C73.733 145.531 73.9304 145.347 74.1776 145.213C74.4247 145.079 74.6974 144.98 74.9957 144.915C75.2969 144.847 75.5994 144.793 75.9034 144.753C76.3011 144.702 76.6236 144.663 76.8707 144.638C77.1207 144.609 77.3026 144.562 77.4162 144.497C77.5327 144.432 77.5909 144.318 77.5909 144.156V144.122C77.5909 143.702 77.4759 143.375 77.2457 143.142C77.0185 142.909 76.6733 142.793 76.2102 142.793C75.7301 142.793 75.3537 142.898 75.081 143.108C74.8082 143.318 74.6165 143.543 74.5057 143.781L73.5511 143.44C73.7216 143.043 73.9489 142.733 74.233 142.511C74.5199 142.287 74.8324 142.131 75.1705 142.043C75.5114 141.952 75.8466 141.906 76.1761 141.906C76.3864 141.906 76.6278 141.932 76.9006 141.983C77.1761 142.031 77.4418 142.132 77.6974 142.285C77.956 142.439 78.1705 142.67 78.3409 142.98C78.5114 143.29 78.5966 143.704 78.5966 144.224V148.537H77.5909V147.651H77.5398C77.4716 147.793 77.358 147.945 77.1989 148.106C77.0398 148.268 76.8281 148.406 76.5639 148.52C76.2997 148.633 75.9773 148.69 75.5966 148.69ZM75.75 147.787C76.1477 147.787 76.483 147.709 76.7557 147.553C77.0313 147.396 77.2386 147.195 77.3778 146.947C77.5199 146.7 77.5909 146.44 77.5909 146.168V145.247C77.5483 145.298 77.4545 145.345 77.3097 145.388C77.1676 145.428 77.0028 145.463 76.8153 145.494C76.6307 145.523 76.4503 145.548 76.2741 145.571C76.1009 145.591 75.9602 145.608 75.8523 145.622C75.5909 145.656 75.3466 145.712 75.1193 145.788C74.8949 145.862 74.7131 145.974 74.5739 146.125C74.4375 146.273 74.3693 146.474 74.3693 146.73C74.3693 147.079 74.4986 147.344 74.7571 147.523C75.0185 147.699 75.3494 147.787 75.75 147.787ZM81.9151 148.537L79.9208 141.991H80.9776L82.3924 147.003H82.4606L83.8583 141.991H84.9322L86.3129 146.986H86.381L87.7958 141.991H88.8526L86.8583 148.537H85.8697L84.4379 143.508H84.3356L82.9038 148.537H81.9151ZM91.1879 144.599V148.537H90.1822V141.991H91.1538V143.014H91.239C91.3924 142.682 91.6254 142.415 91.9379 142.213C92.2504 142.008 92.6538 141.906 93.1481 141.906C93.5913 141.906 93.979 141.997 94.3114 142.179C94.6438 142.358 94.9023 142.631 95.087 142.997C95.2717 143.361 95.364 143.821 95.364 144.378V148.537H94.3583V144.446C94.3583 143.932 94.2248 143.531 93.9577 143.244C93.6907 142.954 93.3242 142.81 92.8583 142.81C92.5373 142.81 92.2504 142.879 91.9975 143.018C91.7475 143.158 91.5501 143.361 91.4052 143.628C91.2603 143.895 91.1879 144.219 91.1879 144.599ZM99.8608 148.673C99.2472 148.673 98.7188 148.528 98.2756 148.239C97.8324 147.949 97.4915 147.55 97.2528 147.041C97.0142 146.533 96.8949 145.952 96.8949 145.298C96.8949 144.633 97.017 144.047 97.2614 143.538C97.5085 143.027 97.8523 142.628 98.2926 142.341C98.7358 142.051 99.2528 141.906 99.8438 141.906C100.304 141.906 100.719 141.991 101.088 142.162C101.457 142.332 101.76 142.571 101.996 142.878C102.232 143.185 102.378 143.543 102.435 143.952H101.429C101.352 143.653 101.182 143.389 100.918 143.159C100.656 142.926 100.304 142.81 99.8608 142.81C99.4688 142.81 99.125 142.912 98.8295 143.116C98.5369 143.318 98.3082 143.604 98.1435 143.973C97.9815 144.339 97.9006 144.77 97.9006 145.264C97.9006 145.77 97.9801 146.21 98.1392 146.585C98.3011 146.96 98.5284 147.251 98.821 147.459C99.1165 147.666 99.4631 147.77 99.8608 147.77C100.122 147.77 100.359 147.724 100.572 147.633C100.786 147.543 100.966 147.412 101.114 147.241C101.261 147.071 101.366 146.866 101.429 146.628H102.435C102.378 147.014 102.237 147.362 102.013 147.672C101.791 147.979 101.497 148.223 101.131 148.405C100.767 148.584 100.344 148.673 99.8608 148.673ZM104.911 144.599V148.537H103.905V139.81H104.911V143.014H104.996C105.149 142.676 105.379 142.408 105.686 142.209C105.996 142.007 106.408 141.906 106.922 141.906C107.368 141.906 107.759 141.996 108.094 142.175C108.429 142.351 108.689 142.622 108.874 142.989C109.061 143.352 109.155 143.815 109.155 144.378V148.537H108.149V144.446C108.149 143.926 108.014 143.524 107.744 143.24C107.477 142.953 107.107 142.81 106.632 142.81C106.303 142.81 106.007 142.879 105.746 143.018C105.487 143.158 105.283 143.361 105.132 143.628C104.984 143.895 104.911 144.219 104.911 144.599ZM112.921 148.69C112.506 148.69 112.13 148.612 111.792 148.456C111.453 148.297 111.185 148.068 110.986 147.77C110.787 147.469 110.688 147.105 110.688 146.679C110.688 146.304 110.762 146 110.909 145.767C111.057 145.531 111.255 145.347 111.502 145.213C111.749 145.079 112.022 144.98 112.32 144.915C112.621 144.847 112.924 144.793 113.228 144.753C113.625 144.702 113.948 144.663 114.195 144.638C114.445 144.609 114.627 144.562 114.74 144.497C114.857 144.432 114.915 144.318 114.915 144.156V144.122C114.915 143.702 114.8 143.375 114.57 143.142C114.343 142.909 113.998 142.793 113.534 142.793C113.054 142.793 112.678 142.898 112.405 143.108C112.132 143.318 111.941 143.543 111.83 143.781L110.875 143.44C111.046 143.043 111.273 142.733 111.557 142.511C111.844 142.287 112.157 142.131 112.495 142.043C112.836 141.952 113.171 141.906 113.5 141.906C113.711 141.906 113.952 141.932 114.225 141.983C114.5 142.031 114.766 142.132 115.022 142.285C115.28 142.439 115.495 142.67 115.665 142.98C115.836 143.29 115.921 143.704 115.921 144.224V148.537H114.915V147.651H114.864C114.796 147.793 114.682 147.945 114.523 148.106C114.364 148.268 114.152 148.406 113.888 148.52C113.624 148.633 113.301 148.69 112.921 148.69ZM113.074 147.787C113.472 147.787 113.807 147.709 114.08 147.553C114.355 147.396 114.563 147.195 114.702 146.947C114.844 146.7 114.915 146.44 114.915 146.168V145.247C114.873 145.298 114.779 145.345 114.634 145.388C114.492 145.428 114.327 145.463 114.14 145.494C113.955 145.523 113.775 145.548 113.598 145.571C113.425 145.591 113.284 145.608 113.176 145.622C112.915 145.656 112.671 145.712 112.444 145.788C112.219 145.862 112.037 145.974 111.898 146.125C111.762 146.273 111.694 146.474 111.694 146.73C111.694 147.079 111.823 147.344 112.081 147.523C112.343 147.699 112.674 147.787 113.074 147.787ZM117.756 148.537V141.991H118.762V148.537H117.756ZM118.268 140.901C118.072 140.901 117.903 140.834 117.761 140.7C117.621 140.567 117.552 140.406 117.552 140.219C117.552 140.031 117.621 139.871 117.761 139.737C117.903 139.604 118.072 139.537 118.268 139.537C118.464 139.537 118.631 139.604 118.771 139.737C118.913 139.871 118.984 140.031 118.984 140.219C118.984 140.406 118.913 140.567 118.771 140.7C118.631 140.834 118.464 140.901 118.268 140.901ZM120.604 148.537V141.991H121.576V142.98H121.644C121.763 142.656 121.979 142.393 122.292 142.192C122.604 141.99 122.956 141.889 123.348 141.889C123.422 141.889 123.515 141.891 123.625 141.893C123.736 141.896 123.82 141.901 123.877 141.906V142.929C123.843 142.92 123.765 142.908 123.642 142.891C123.523 142.871 123.397 142.861 123.263 142.861C122.945 142.861 122.661 142.928 122.411 143.061C122.164 143.192 121.968 143.374 121.823 143.606C121.681 143.837 121.61 144.099 121.61 144.395V148.537H120.604Z" fill="#0F1F11"/>
<rect x="134" y="131.861" width="86" height="23.3776" rx="11.6888" fill="#D3E8D1"/>
<path d="M151.057 148.537V139.81H152.114V147.599H156.17V148.537H151.057ZM159.597 148.69C159.182 148.69 158.805 148.612 158.467 148.456C158.129 148.297 157.861 148.068 157.662 147.77C157.463 147.469 157.364 147.105 157.364 146.679C157.364 146.304 157.438 146 157.585 145.767C157.733 145.531 157.93 145.347 158.178 145.213C158.425 145.079 158.697 144.98 158.996 144.915C159.297 144.847 159.599 144.793 159.903 144.753C160.301 144.702 160.624 144.663 160.871 144.638C161.121 144.609 161.303 144.562 161.416 144.497C161.533 144.432 161.591 144.318 161.591 144.156V144.122C161.591 143.702 161.476 143.375 161.246 143.142C161.018 142.909 160.673 142.793 160.21 142.793C159.73 142.793 159.354 142.898 159.081 143.108C158.808 143.318 158.616 143.543 158.506 143.781L157.551 143.44C157.722 143.043 157.949 142.733 158.233 142.511C158.52 142.287 158.832 142.131 159.17 142.043C159.511 141.952 159.847 141.906 160.176 141.906C160.386 141.906 160.628 141.932 160.901 141.983C161.176 142.031 161.442 142.132 161.697 142.285C161.956 142.439 162.17 142.67 162.341 142.98C162.511 143.29 162.597 143.704 162.597 144.224V148.537H161.591V147.651H161.54C161.472 147.793 161.358 147.945 161.199 148.106C161.04 148.268 160.828 148.406 160.564 148.52C160.3 148.633 159.977 148.69 159.597 148.69ZM159.75 147.787C160.148 147.787 160.483 147.709 160.756 147.553C161.031 147.396 161.239 147.195 161.378 146.947C161.52 146.7 161.591 146.44 161.591 146.168V145.247C161.548 145.298 161.455 145.345 161.31 145.388C161.168 145.428 161.003 145.463 160.815 145.494C160.631 145.523 160.45 145.548 160.274 145.571C160.101 145.591 159.96 145.608 159.852 145.622C159.591 145.656 159.347 145.712 159.119 145.788C158.895 145.862 158.713 145.974 158.574 146.125C158.438 146.273 158.369 146.474 158.369 146.73C158.369 147.079 158.499 147.344 158.757 147.523C159.018 147.699 159.349 147.787 159.75 147.787ZM168.557 145.861V141.991H169.563V148.537H168.557V147.429H168.489C168.336 147.761 168.097 148.044 167.773 148.277C167.449 148.507 167.04 148.622 166.546 148.622C166.137 148.622 165.773 148.533 165.455 148.354C165.137 148.172 164.887 147.899 164.705 147.535C164.523 147.169 164.432 146.707 164.432 146.151V141.991H165.438V146.082C165.438 146.56 165.571 146.94 165.838 147.224C166.108 147.508 166.452 147.651 166.87 147.651C167.12 147.651 167.374 147.587 167.632 147.459C167.894 147.331 168.113 147.135 168.289 146.871C168.468 146.606 168.557 146.27 168.557 145.861ZM172.411 144.599V148.537H171.405V141.991H172.376V143.014H172.462C172.615 142.682 172.848 142.415 173.161 142.213C173.473 142.008 173.876 141.906 174.371 141.906C174.814 141.906 175.202 141.997 175.534 142.179C175.866 142.358 176.125 142.631 176.31 142.997C176.494 143.361 176.587 143.821 176.587 144.378V148.537H175.581V144.446C175.581 143.932 175.447 143.531 175.18 143.244C174.913 142.954 174.547 142.81 174.081 142.81C173.76 142.81 173.473 142.879 173.22 143.018C172.97 143.158 172.773 143.361 172.628 143.628C172.483 143.895 172.411 144.219 172.411 144.599ZM181.083 148.673C180.47 148.673 179.941 148.528 179.498 148.239C179.055 147.949 178.714 147.55 178.475 147.041C178.237 146.533 178.118 145.952 178.118 145.298C178.118 144.633 178.24 144.047 178.484 143.538C178.731 143.027 179.075 142.628 179.515 142.341C179.958 142.051 180.475 141.906 181.066 141.906C181.527 141.906 181.941 141.991 182.311 142.162C182.68 142.332 182.983 142.571 183.218 142.878C183.454 143.185 183.6 143.543 183.657 143.952H182.652C182.575 143.653 182.404 143.389 182.14 143.159C181.879 142.926 181.527 142.81 181.083 142.81C180.691 142.81 180.348 142.912 180.052 143.116C179.76 143.318 179.531 143.604 179.366 143.973C179.204 144.339 179.123 144.77 179.123 145.264C179.123 145.77 179.203 146.21 179.362 146.585C179.524 146.96 179.751 147.251 180.044 147.459C180.339 147.666 180.686 147.77 181.083 147.77C181.345 147.77 181.582 147.724 181.795 147.633C182.008 147.543 182.189 147.412 182.336 147.241C182.484 147.071 182.589 146.866 182.652 146.628H183.657C183.6 147.014 183.46 147.362 183.235 147.672C183.014 147.979 182.72 148.223 182.353 148.405C181.99 148.584 181.566 148.673 181.083 148.673ZM186.133 144.599V148.537H185.127V139.81H186.133V143.014H186.218C186.372 142.676 186.602 142.408 186.909 142.209C187.218 142.007 187.63 141.906 188.145 141.906C188.591 141.906 188.981 141.996 189.316 142.175C189.652 142.351 189.912 142.622 190.096 142.989C190.284 143.352 190.377 143.815 190.377 144.378V148.537H189.372V144.446C189.372 143.926 189.237 143.524 188.967 143.24C188.7 142.953 188.329 142.81 187.855 142.81C187.525 142.81 187.23 142.879 186.968 143.018C186.71 143.158 186.505 143.361 186.355 143.628C186.207 143.895 186.133 144.219 186.133 144.599ZM194.962 148.673C194.331 148.673 193.787 148.534 193.33 148.256C192.875 147.974 192.524 147.582 192.277 147.079C192.033 146.574 191.911 145.986 191.911 145.315C191.911 144.645 192.033 144.054 192.277 143.543C192.524 143.028 192.868 142.628 193.308 142.341C193.751 142.051 194.268 141.906 194.859 141.906C195.2 141.906 195.537 141.963 195.869 142.077C196.202 142.19 196.504 142.375 196.777 142.631C197.05 142.883 197.267 143.219 197.429 143.636C197.591 144.054 197.672 144.568 197.672 145.179V145.605H192.626V144.736H196.649C196.649 144.366 196.575 144.037 196.428 143.747C196.283 143.457 196.075 143.229 195.805 143.061C195.538 142.893 195.223 142.81 194.859 142.81C194.459 142.81 194.112 142.909 193.82 143.108C193.53 143.304 193.307 143.56 193.151 143.875C192.994 144.19 192.916 144.528 192.916 144.889V145.469C192.916 145.963 193.001 146.382 193.172 146.726C193.345 147.067 193.585 147.327 193.892 147.506C194.199 147.682 194.555 147.77 194.962 147.77C195.226 147.77 195.464 147.733 195.678 147.659C195.893 147.582 196.08 147.469 196.236 147.318C196.392 147.165 196.513 146.974 196.598 146.747L197.57 147.02C197.467 147.349 197.295 147.639 197.054 147.889C196.813 148.136 196.514 148.329 196.159 148.469C195.804 148.605 195.405 148.673 194.962 148.673ZM199.202 148.537V141.991H200.173V142.98H200.241C200.361 142.656 200.577 142.393 200.889 142.192C201.202 141.99 201.554 141.889 201.946 141.889C202.02 141.889 202.112 141.891 202.223 141.893C202.334 141.896 202.418 141.901 202.474 141.906V142.929C202.44 142.92 202.362 142.908 202.24 142.891C202.121 142.871 201.994 142.861 201.861 142.861C201.543 142.861 201.259 142.928 201.009 143.061C200.761 143.192 200.565 143.374 200.42 143.606C200.278 143.837 200.207 144.099 200.207 144.395V148.537H199.202Z" fill="#0F1F11"/>
<rect x="231" y="131.861" width="25" height="23.3776" rx="11.6888" fill="#B6F1BB"/>
<path d="M240.972 139.81V148.537H239.915V140.918H239.864L237.733 142.332V141.258L239.915 139.81H240.972ZM243.482 148.537V147.77L246.362 144.616C246.7 144.247 246.979 143.926 247.197 143.653C247.416 143.378 247.578 143.119 247.683 142.878C247.791 142.633 247.845 142.378 247.845 142.111C247.845 141.804 247.771 141.538 247.624 141.314C247.479 141.089 247.28 140.916 247.027 140.794C246.774 140.672 246.49 140.611 246.175 140.611C245.839 140.611 245.547 140.68 245.297 140.82C245.05 140.956 244.858 141.148 244.722 141.395C244.588 141.642 244.521 141.932 244.521 142.264H243.516C243.516 141.753 243.634 141.304 243.869 140.918C244.105 140.531 244.426 140.23 244.832 140.014C245.241 139.798 245.7 139.69 246.209 139.69C246.72 139.69 247.173 139.798 247.568 140.014C247.963 140.23 248.273 140.521 248.497 140.888C248.722 141.254 248.834 141.662 248.834 142.111C248.834 142.432 248.776 142.746 248.659 143.053C248.545 143.356 248.347 143.696 248.062 144.071C247.781 144.443 247.391 144.898 246.891 145.435L244.93 147.531V147.599H248.987V148.537H243.482Z" fill="#002109"/>
<rect x="267" y="131.861" width="25" height="23.3776" rx="11.6888" fill="#B6F1BB"/>
<path d="M280.972 139.81V148.537H279.915V140.918H279.864L277.733 142.332V141.258L279.915 139.81H280.972Z" fill="#002109"/>
<rect x="303" y="131.861" width="49" height="23.3776" rx="11.6888" fill="#BDEAF4"/>
<path d="M316.057 148.537V139.81H319.108C319.716 139.81 320.217 139.915 320.612 140.125C321.007 140.332 321.301 140.612 321.494 140.964C321.688 141.314 321.784 141.702 321.784 142.128C321.784 142.503 321.717 142.812 321.584 143.057C321.453 143.301 321.28 143.494 321.064 143.636C320.851 143.778 320.619 143.883 320.369 143.952V144.037C320.636 144.054 320.905 144.148 321.175 144.318C321.445 144.489 321.67 144.733 321.852 145.051C322.034 145.369 322.125 145.758 322.125 146.219C322.125 146.656 322.026 147.05 321.827 147.399C321.628 147.749 321.314 148.026 320.885 148.23C320.456 148.435 319.898 148.537 319.21 148.537H316.057ZM317.114 147.599H319.21C319.901 147.599 320.391 147.466 320.68 147.199C320.973 146.929 321.119 146.602 321.119 146.219C321.119 145.923 321.044 145.651 320.893 145.401C320.743 145.148 320.528 144.946 320.25 144.795C319.972 144.642 319.642 144.565 319.261 144.565H317.114V147.599ZM317.114 143.645H319.074C319.392 143.645 319.679 143.582 319.935 143.457C320.193 143.332 320.398 143.156 320.548 142.929C320.702 142.702 320.778 142.435 320.778 142.128C320.778 141.744 320.645 141.419 320.378 141.152C320.111 140.882 319.688 140.747 319.108 140.747H317.114V143.645ZM326.469 148.673C325.839 148.673 325.295 148.534 324.837 148.256C324.383 147.974 324.032 147.582 323.785 147.079C323.54 146.574 323.418 145.986 323.418 145.315C323.418 144.645 323.54 144.054 323.785 143.543C324.032 143.028 324.376 142.628 324.816 142.341C325.259 142.051 325.776 141.906 326.367 141.906C326.708 141.906 327.045 141.963 327.377 142.077C327.71 142.19 328.012 142.375 328.285 142.631C328.558 142.883 328.775 143.219 328.937 143.636C329.099 144.054 329.18 144.568 329.18 145.179V145.605H324.134V144.736H328.157C328.157 144.366 328.083 144.037 327.935 143.747C327.79 143.457 327.583 143.229 327.313 143.061C327.046 142.893 326.731 142.81 326.367 142.81C325.967 142.81 325.62 142.909 325.327 143.108C325.038 143.304 324.815 143.56 324.658 143.875C324.502 144.19 324.424 144.528 324.424 144.889V145.469C324.424 145.963 324.509 146.382 324.68 146.726C324.853 147.067 325.093 147.327 325.4 147.506C325.707 147.682 326.063 147.77 326.469 147.77C326.734 147.77 326.972 147.733 327.185 147.659C327.401 147.582 327.587 147.469 327.744 147.318C327.9 147.165 328.021 146.974 328.106 146.747L329.077 147.02C328.975 147.349 328.803 147.639 328.562 147.889C328.32 148.136 328.022 148.329 327.667 148.469C327.312 148.605 326.913 148.673 326.469 148.673ZM333.556 141.991V142.844H330.164V141.991H333.556ZM331.153 140.423H332.158V146.662C332.158 146.946 332.2 147.159 332.282 147.301C332.367 147.44 332.475 147.534 332.606 147.582C332.739 147.628 332.88 147.651 333.028 147.651C333.138 147.651 333.229 147.645 333.3 147.633C333.371 147.619 333.428 147.608 333.471 147.599L333.675 148.503C333.607 148.528 333.512 148.554 333.39 148.579C333.268 148.608 333.113 148.622 332.925 148.622C332.641 148.622 332.363 148.561 332.09 148.439C331.82 148.317 331.596 148.131 331.417 147.881C331.241 147.631 331.153 147.315 331.153 146.935V140.423ZM336.995 148.69C336.58 148.69 336.204 148.612 335.866 148.456C335.528 148.297 335.259 148.068 335.06 147.77C334.862 147.469 334.762 147.105 334.762 146.679C334.762 146.304 334.836 146 334.984 145.767C335.131 145.531 335.329 145.347 335.576 145.213C335.823 145.079 336.096 144.98 336.394 144.915C336.695 144.847 336.998 144.793 337.302 144.753C337.7 144.702 338.022 144.663 338.269 144.638C338.519 144.609 338.701 144.562 338.815 144.497C338.931 144.432 338.989 144.318 338.989 144.156V144.122C338.989 143.702 338.874 143.375 338.644 143.142C338.417 142.909 338.072 142.793 337.609 142.793C337.129 142.793 336.752 142.898 336.479 143.108C336.207 143.318 336.015 143.543 335.904 143.781L334.95 143.44C335.12 143.043 335.347 142.733 335.631 142.511C335.918 142.287 336.231 142.131 336.569 142.043C336.91 141.952 337.245 141.906 337.575 141.906C337.785 141.906 338.026 141.932 338.299 141.983C338.575 142.031 338.84 142.132 339.096 142.285C339.354 142.439 339.569 142.67 339.739 142.98C339.91 143.29 339.995 143.704 339.995 144.224V148.537H338.989V147.651H338.938C338.87 147.793 338.756 147.945 338.597 148.106C338.438 148.268 338.227 148.406 337.962 148.52C337.698 148.633 337.376 148.69 336.995 148.69ZM337.148 147.787C337.546 147.787 337.881 147.709 338.154 147.553C338.43 147.396 338.637 147.195 338.776 146.947C338.918 146.7 338.989 146.44 338.989 146.168V145.247C338.947 145.298 338.853 145.345 338.708 145.388C338.566 145.428 338.401 145.463 338.214 145.494C338.029 145.523 337.849 145.548 337.673 145.571C337.499 145.591 337.359 145.608 337.251 145.622C336.989 145.656 336.745 145.712 336.518 145.788C336.293 145.862 336.112 145.974 335.972 146.125C335.836 146.273 335.768 146.474 335.768 146.73C335.768 147.079 335.897 147.344 336.156 147.523C336.417 147.699 336.748 147.787 337.148 147.787Z" fill="#001F24"/>
<rect x="360" y="131.861" width="25" height="23.3776" rx="11.6888" fill="#BDEAF4"/>
<path d="M369.699 146.747V145.878L373.534 139.81H374.165V141.156H373.739L370.841 145.741V145.81H376.006V146.747H369.699ZM373.807 148.537V146.483V146.078V139.81H374.812V148.537H373.807Z" fill="#001F24"/>
<path d="M243.646 190.191C243.842 190.387 244.158 190.387 244.354 190.191L247.536 187.009C247.731 186.814 247.731 186.497 247.536 186.302C247.34 186.107 247.024 186.107 246.828 186.302L244 189.131L241.172 186.302C240.976 186.107 240.66 186.107 240.464 186.302C240.269 186.497 240.269 186.814 240.464 187.009L243.646 190.191ZM243.5 164.59L243.5 189.838L244.5 189.838L244.5 164.59L243.5 164.59Z" fill="black"/>
<path d="M280.354 98.7792C280.158 98.5839 279.842 98.5839 279.646 98.7792L276.464 101.961C276.269 102.156 276.269 102.473 276.464 102.668C276.66 102.864 276.976 102.864 277.172 102.668L280 99.8399L282.828 102.668C283.024 102.864 283.34 102.864 283.536 102.668C283.731 102.473 283.731 102.156 283.536 101.961L280.354 98.7792ZM280.5 124.381L280.5 99.1328L279.5 99.1328L279.5 124.381L280.5 124.381Z" fill="black"/>
<path d="M205.415 209.319H204.307L207.511 200.591H208.602L211.807 209.319H210.699L208.091 201.972H208.023L205.415 209.319ZM205.824 205.909H210.29V206.847H205.824V205.909ZM214.036 205.381V209.319H213.03V202.773H214.001V203.796H214.087C214.24 203.463 214.473 203.196 214.786 202.995C215.098 202.79 215.501 202.688 215.996 202.688C216.439 202.688 216.827 202.779 217.159 202.961C217.491 203.14 217.75 203.412 217.935 203.779C218.119 204.142 218.212 204.603 218.212 205.159V209.319H217.206V205.228C217.206 204.713 217.072 204.313 216.805 204.026C216.538 203.736 216.172 203.591 215.706 203.591C215.385 203.591 215.098 203.661 214.845 203.8C214.595 203.939 214.398 204.142 214.253 204.409C214.108 204.677 214.036 205 214.036 205.381ZM222.521 209.455C221.975 209.455 221.494 209.317 221.076 209.042C220.659 208.763 220.332 208.371 220.096 207.865C219.86 207.357 219.743 206.756 219.743 206.063C219.743 205.375 219.86 204.779 220.096 204.273C220.332 203.767 220.66 203.377 221.081 203.101C221.501 202.826 221.987 202.688 222.538 202.688C222.964 202.688 223.301 202.759 223.548 202.901C223.798 203.04 223.988 203.199 224.119 203.378C224.252 203.554 224.356 203.699 224.43 203.813H224.515V200.591H225.521V209.319H224.549V208.313H224.43C224.356 208.432 224.251 208.583 224.115 208.765C223.978 208.944 223.784 209.104 223.531 209.246C223.278 209.385 222.941 209.455 222.521 209.455ZM222.657 208.552C223.061 208.552 223.402 208.446 223.68 208.236C223.958 208.023 224.17 207.729 224.315 207.354C224.46 206.976 224.532 206.54 224.532 206.046C224.532 205.557 224.461 205.13 224.319 204.763C224.177 204.394 223.967 204.107 223.689 203.902C223.41 203.695 223.066 203.591 222.657 203.591C222.231 203.591 221.876 203.701 221.592 203.919C221.311 204.135 221.099 204.429 220.957 204.802C220.818 205.171 220.748 205.586 220.748 206.046C220.748 206.512 220.819 206.935 220.961 207.316C221.106 207.694 221.319 207.995 221.6 208.219C221.885 208.441 222.237 208.552 222.657 208.552ZM227.502 209.319V202.773H228.474V203.762H228.542C228.662 203.438 228.877 203.175 229.19 202.973C229.502 202.772 229.855 202.671 230.247 202.671C230.321 202.671 230.413 202.672 230.524 202.675C230.635 202.678 230.718 202.682 230.775 202.688V203.711C230.741 203.702 230.663 203.689 230.541 203.672C230.422 203.652 230.295 203.642 230.162 203.642C229.843 203.642 229.559 203.709 229.309 203.843C229.062 203.973 228.866 204.155 228.721 204.388C228.579 204.618 228.508 204.881 228.508 205.177V209.319H227.502ZM234.427 209.455C233.836 209.455 233.318 209.314 232.872 209.033C232.429 208.752 232.082 208.358 231.832 207.853C231.585 207.347 231.461 206.756 231.461 206.08C231.461 205.398 231.585 204.803 231.832 204.294C232.082 203.786 232.429 203.391 232.872 203.11C233.318 202.829 233.836 202.688 234.427 202.688C235.018 202.688 235.535 202.829 235.978 203.11C236.424 203.391 236.771 203.786 237.018 204.294C237.268 204.803 237.393 205.398 237.393 206.08C237.393 206.756 237.268 207.347 237.018 207.853C236.771 208.358 236.424 208.752 235.978 209.033C235.535 209.314 235.018 209.455 234.427 209.455ZM234.427 208.552C234.876 208.552 235.245 208.436 235.535 208.206C235.825 207.976 236.039 207.674 236.179 207.299C236.318 206.924 236.387 206.517 236.387 206.08C236.387 205.642 236.318 205.235 236.179 204.857C236.039 204.479 235.825 204.174 235.535 203.941C235.245 203.708 234.876 203.591 234.427 203.591C233.978 203.591 233.609 203.708 233.319 203.941C233.029 204.174 232.815 204.479 232.676 204.857C232.537 205.235 232.467 205.642 232.467 206.08C232.467 206.517 232.537 206.924 232.676 207.299C232.815 207.674 233.029 207.976 233.319 208.206C233.609 208.436 233.978 208.552 234.427 208.552ZM238.928 209.319V202.773H239.934V209.319H238.928ZM239.44 201.682C239.244 201.682 239.075 201.615 238.933 201.482C238.793 201.348 238.724 201.188 238.724 201C238.724 200.813 238.793 200.652 238.933 200.519C239.075 200.385 239.244 200.319 239.44 200.319C239.636 200.319 239.803 200.385 239.942 200.519C240.085 200.652 240.156 200.813 240.156 201C240.156 201.188 240.085 201.348 239.942 201.482C239.803 201.615 239.636 201.682 239.44 201.682ZM244.248 209.455C243.702 209.455 243.221 209.317 242.803 209.042C242.385 208.763 242.059 208.371 241.823 207.865C241.587 207.357 241.469 206.756 241.469 206.063C241.469 205.375 241.587 204.779 241.823 204.273C242.059 203.767 242.387 203.377 242.807 203.101C243.228 202.826 243.713 202.688 244.265 202.688C244.691 202.688 245.027 202.759 245.275 202.901C245.525 203.04 245.715 203.199 245.846 203.378C245.979 203.554 246.083 203.699 246.157 203.813H246.242V200.591H247.248V209.319H246.276V208.313H246.157C246.083 208.432 245.978 208.583 245.841 208.765C245.705 208.944 245.51 209.104 245.257 209.246C245.005 209.385 244.668 209.455 244.248 209.455ZM244.384 208.552C244.787 208.552 245.128 208.446 245.407 208.236C245.685 208.023 245.897 207.729 246.042 207.354C246.186 206.976 246.259 206.54 246.259 206.046C246.259 205.557 246.188 205.13 246.046 204.763C245.904 204.394 245.694 204.107 245.415 203.902C245.137 203.695 244.793 203.591 244.384 203.591C243.958 203.591 243.603 203.701 243.319 203.919C243.037 204.135 242.826 204.429 242.684 204.802C242.544 205.171 242.475 205.586 242.475 206.046C242.475 206.512 242.546 206.935 242.688 207.316C242.833 207.694 243.046 207.995 243.327 208.219C243.611 208.441 243.963 208.552 244.384 208.552ZM252.74 200.591H254.002L256.968 207.836H257.07L260.036 200.591H261.297V209.319H260.309V202.688H260.223L257.496 209.319H256.542L253.814 202.688H253.729V209.319H252.74V200.591ZM265.206 209.472C264.791 209.472 264.415 209.394 264.077 209.238C263.739 209.079 263.47 208.85 263.271 208.552C263.072 208.25 262.973 207.887 262.973 207.461C262.973 207.086 263.047 206.782 263.195 206.549C263.342 206.313 263.54 206.128 263.787 205.995C264.034 205.861 264.307 205.762 264.605 205.696C264.906 205.628 265.209 205.574 265.513 205.534C265.911 205.483 266.233 205.445 266.48 205.419C266.73 205.391 266.912 205.344 267.026 205.279C267.142 205.213 267.2 205.1 267.2 204.938V204.904C267.2 204.483 267.085 204.157 266.855 203.924C266.628 203.691 266.283 203.574 265.82 203.574C265.339 203.574 264.963 203.679 264.69 203.89C264.418 204.1 264.226 204.324 264.115 204.563L263.161 204.222C263.331 203.824 263.558 203.515 263.842 203.293C264.129 203.069 264.442 202.912 264.78 202.824C265.121 202.733 265.456 202.688 265.786 202.688C265.996 202.688 266.237 202.713 266.51 202.765C266.786 202.813 267.051 202.914 267.307 203.067C267.565 203.221 267.78 203.452 267.95 203.762C268.121 204.071 268.206 204.486 268.206 205.006V209.319H267.2V208.432H267.149C267.081 208.574 266.967 208.726 266.808 208.888C266.649 209.05 266.438 209.188 266.173 209.302C265.909 209.415 265.587 209.472 265.206 209.472ZM265.359 208.569C265.757 208.569 266.092 208.49 266.365 208.334C266.641 208.178 266.848 207.976 266.987 207.729C267.129 207.482 267.2 207.222 267.2 206.949V206.029C267.158 206.08 267.064 206.127 266.919 206.169C266.777 206.209 266.612 206.245 266.425 206.276C266.24 206.304 266.06 206.33 265.884 206.353C265.71 206.373 265.57 206.39 265.462 206.404C265.2 206.438 264.956 206.493 264.729 206.57C264.504 206.644 264.322 206.756 264.183 206.907C264.047 207.054 263.979 207.256 263.979 207.512C263.979 207.861 264.108 208.125 264.366 208.304C264.628 208.481 264.959 208.569 265.359 208.569ZM270.042 202.773H271.047V209.796C271.047 210.199 270.978 210.549 270.838 210.844C270.702 211.14 270.495 211.368 270.216 211.53C269.941 211.692 269.593 211.773 269.172 211.773C269.138 211.773 269.104 211.773 269.07 211.773C269.036 211.773 269.002 211.773 268.968 211.773V210.836C269.002 210.836 269.033 210.836 269.061 210.836C269.09 210.836 269.121 210.836 269.155 210.836C269.462 210.836 269.686 210.745 269.828 210.563C269.971 210.384 270.042 210.128 270.042 209.796V202.773ZM270.536 201.682C270.34 201.682 270.171 201.615 270.029 201.482C269.89 201.348 269.82 201.188 269.82 201C269.82 200.813 269.89 200.652 270.029 200.519C270.171 200.385 270.34 200.319 270.536 200.319C270.732 200.319 270.9 200.385 271.039 200.519C271.181 200.652 271.252 200.813 271.252 201C271.252 201.188 271.181 201.348 271.039 201.482C270.9 201.615 270.732 201.682 270.536 201.682ZM275.548 209.455C274.957 209.455 274.439 209.314 273.993 209.033C273.55 208.752 273.203 208.358 272.953 207.853C272.706 207.347 272.582 206.756 272.582 206.08C272.582 205.398 272.706 204.803 272.953 204.294C273.203 203.786 273.55 203.391 273.993 203.11C274.439 202.829 274.957 202.688 275.548 202.688C276.139 202.688 276.656 202.829 277.099 203.11C277.545 203.391 277.892 203.786 278.139 204.294C278.389 204.803 278.514 205.398 278.514 206.08C278.514 206.756 278.389 207.347 278.139 207.853C277.892 208.358 277.545 208.752 277.099 209.033C276.656 209.314 276.139 209.455 275.548 209.455ZM275.548 208.552C275.997 208.552 276.366 208.436 276.656 208.206C276.946 207.976 277.161 207.674 277.3 207.299C277.439 206.924 277.509 206.517 277.509 206.08C277.509 205.642 277.439 205.235 277.3 204.857C277.161 204.479 276.946 204.174 276.656 203.941C276.366 203.708 275.997 203.591 275.548 203.591C275.099 203.591 274.73 203.708 274.44 203.941C274.151 204.174 273.936 204.479 273.797 204.857C273.658 205.235 273.588 205.642 273.588 206.08C273.588 206.517 273.658 206.924 273.797 207.299C273.936 207.674 274.151 207.976 274.44 208.206C274.73 208.436 275.099 208.552 275.548 208.552ZM280.049 209.319V202.773H281.021V203.762H281.089C281.208 203.438 281.424 203.175 281.737 202.973C282.049 202.772 282.402 202.671 282.794 202.671C282.868 202.671 282.96 202.672 283.071 202.675C283.181 202.678 283.265 202.682 283.322 202.688V203.711C283.288 203.702 283.21 203.689 283.088 203.672C282.968 203.652 282.842 203.642 282.708 203.642C282.39 203.642 282.106 203.709 281.856 203.843C281.609 203.973 281.413 204.155 281.268 204.388C281.126 204.618 281.055 204.881 281.055 205.177V209.319H280.049Z" fill="#002109"/>
<path d="M241.415 89.6254H240.307L243.511 80.8981H244.602L247.807 89.6254H246.699L244.091 82.2788H244.023L241.415 89.6254ZM241.824 86.2163H246.29V87.1538H241.824V86.2163ZM250.036 85.6879V89.6254H249.03V83.0799H250.001V84.1026H250.087C250.24 83.7703 250.473 83.5032 250.786 83.3015C251.098 83.097 251.501 82.9947 251.996 82.9947C252.439 82.9947 252.827 83.0856 253.159 83.2674C253.491 83.4464 253.75 83.7191 253.935 84.0856C254.119 84.4492 254.212 84.9095 254.212 85.4663V89.6254H253.206V85.5345C253.206 85.0203 253.072 84.6197 252.805 84.3328C252.538 84.043 252.172 83.8981 251.706 83.8981C251.385 83.8981 251.098 83.9677 250.845 84.1069C250.595 84.2461 250.398 84.4492 250.253 84.7163C250.108 84.9833 250.036 85.3072 250.036 85.6879ZM258.521 89.7617C257.975 89.7617 257.494 89.624 257.076 89.3484C256.659 89.07 256.332 88.6779 256.096 88.1722C255.86 87.6637 255.743 87.0629 255.743 86.3697C255.743 85.6822 255.86 85.0856 256.096 84.5799C256.332 84.0742 256.66 83.6836 257.081 83.408C257.501 83.1325 257.987 82.9947 258.538 82.9947C258.964 82.9947 259.301 83.0657 259.548 83.2078C259.798 83.347 259.988 83.5061 260.119 83.685C260.252 83.8612 260.356 84.0061 260.43 84.1197H260.515V80.8981H261.521V89.6254H260.549V88.6197H260.43C260.356 88.739 260.251 88.8896 260.115 89.0714C259.978 89.2504 259.784 89.4109 259.531 89.5529C259.278 89.6921 258.941 89.7617 258.521 89.7617ZM258.657 88.8583C259.061 88.8583 259.402 88.7532 259.68 88.543C259.958 88.3299 260.17 88.0359 260.315 87.6609C260.46 87.283 260.532 86.847 260.532 86.3526C260.532 85.864 260.461 85.4365 260.319 85.07C260.177 84.7007 259.967 84.4137 259.689 84.2092C259.41 84.0018 259.066 83.8981 258.657 83.8981C258.231 83.8981 257.876 84.0075 257.592 84.2262C257.311 84.4421 257.099 84.7362 256.957 85.1083C256.818 85.4776 256.748 85.8924 256.748 86.3526C256.748 86.8186 256.819 87.2419 256.961 87.6225C257.106 88.0004 257.319 88.3015 257.6 88.5259C257.885 88.7475 258.237 88.8583 258.657 88.8583ZM263.502 89.6254V83.0799H264.474V84.0686H264.542C264.662 83.7447 264.877 83.4819 265.19 83.2802C265.502 83.0785 265.855 82.9776 266.247 82.9776C266.321 82.9776 266.413 82.9791 266.524 82.9819C266.635 82.9847 266.718 82.989 266.775 82.9947V84.0174C266.741 84.0089 266.663 83.9961 266.541 83.9791C266.422 83.9592 266.295 83.9492 266.162 83.9492C265.843 83.9492 265.559 84.016 265.309 84.1495C265.062 84.2802 264.866 84.462 264.721 84.695C264.579 84.9251 264.508 85.1879 264.508 85.4833V89.6254H263.502ZM270.427 89.7617C269.836 89.7617 269.318 89.6211 268.872 89.3399C268.429 89.0586 268.082 88.6651 267.832 88.1595C267.585 87.6538 267.461 87.0629 267.461 86.3867C267.461 85.7049 267.585 85.1097 267.832 84.6012C268.082 84.0927 268.429 83.6978 268.872 83.4166C269.318 83.1353 269.836 82.9947 270.427 82.9947C271.018 82.9947 271.535 83.1353 271.978 83.4166C272.424 83.6978 272.771 84.0927 273.018 84.6012C273.268 85.1097 273.393 85.7049 273.393 86.3867C273.393 87.0629 273.268 87.6538 273.018 88.1595C272.771 88.6651 272.424 89.0586 271.978 89.3399C271.535 89.6211 271.018 89.7617 270.427 89.7617ZM270.427 88.8583C270.876 88.8583 271.245 88.7433 271.535 88.5132C271.825 88.283 272.039 87.9805 272.179 87.6055C272.318 87.2305 272.387 86.8242 272.387 86.3867C272.387 85.9492 272.318 85.5416 272.179 85.1637C272.039 84.7859 271.825 84.4805 271.535 84.2475C271.245 84.0146 270.876 83.8981 270.427 83.8981C269.978 83.8981 269.609 84.0146 269.319 84.2475C269.029 84.4805 268.815 84.7859 268.676 85.1637C268.537 85.5416 268.467 85.9492 268.467 86.3867C268.467 86.8242 268.537 87.2305 268.676 87.6055C268.815 87.9805 269.029 88.283 269.319 88.5132C269.609 88.7433 269.978 88.8583 270.427 88.8583ZM274.928 89.6254V83.0799H275.934V89.6254H274.928ZM275.44 81.989C275.244 81.989 275.075 81.9222 274.933 81.7887C274.793 81.6552 274.724 81.4947 274.724 81.3072C274.724 81.1197 274.793 80.9592 274.933 80.8257C275.075 80.6921 275.244 80.6254 275.44 80.6254C275.636 80.6254 275.803 80.6921 275.942 80.8257C276.085 80.9592 276.156 81.1197 276.156 81.3072C276.156 81.4947 276.085 81.6552 275.942 81.7887C275.803 81.9222 275.636 81.989 275.44 81.989ZM280.248 89.7617C279.702 89.7617 279.221 89.624 278.803 89.3484C278.385 89.07 278.059 88.6779 277.823 88.1722C277.587 87.6637 277.469 87.0629 277.469 86.3697C277.469 85.6822 277.587 85.0856 277.823 84.5799C278.059 84.0742 278.387 83.6836 278.807 83.408C279.228 83.1325 279.713 82.9947 280.265 82.9947C280.691 82.9947 281.027 83.0657 281.275 83.2078C281.525 83.347 281.715 83.5061 281.846 83.685C281.979 83.8612 282.083 84.0061 282.157 84.1197H282.242V80.8981H283.248V89.6254H282.276V88.6197H282.157C282.083 88.739 281.978 88.8896 281.841 89.0714C281.705 89.2504 281.51 89.4109 281.257 89.5529C281.005 89.6921 280.668 89.7617 280.248 89.7617ZM280.384 88.8583C280.787 88.8583 281.128 88.7532 281.407 88.543C281.685 88.3299 281.897 88.0359 282.042 87.6609C282.186 87.283 282.259 86.847 282.259 86.3526C282.259 85.864 282.188 85.4365 282.046 85.07C281.904 84.7007 281.694 84.4137 281.415 84.2092C281.137 84.0018 280.793 83.8981 280.384 83.8981C279.958 83.8981 279.603 84.0075 279.319 84.2262C279.037 84.4421 278.826 84.7362 278.684 85.1083C278.544 85.4776 278.475 85.8924 278.475 86.3526C278.475 86.8186 278.546 87.2419 278.688 87.6225C278.833 88.0004 279.046 88.3015 279.327 88.5259C279.611 88.7475 279.963 88.8583 280.384 88.8583ZM288.74 80.8981H290.002L292.968 88.1424H293.07L296.036 80.8981H297.297V89.6254H296.309V82.9947H296.223L293.496 89.6254H292.542L289.814 82.9947H289.729V89.6254H288.74V80.8981ZM299.28 89.6254V83.0799H300.286V89.6254H299.28ZM299.791 81.989C299.595 81.989 299.426 81.9222 299.284 81.7887C299.145 81.6552 299.075 81.4947 299.075 81.3072C299.075 81.1197 299.145 80.9592 299.284 80.8257C299.426 80.6921 299.595 80.6254 299.791 80.6254C299.987 80.6254 300.155 80.6921 300.294 80.8257C300.436 80.9592 300.507 81.1197 300.507 81.3072C300.507 81.4947 300.436 81.6552 300.294 81.7887C300.155 81.9222 299.987 81.989 299.791 81.989ZM303.133 85.6879V89.6254H302.127V83.0799H303.099V84.1026H303.184C303.338 83.7703 303.571 83.5032 303.883 83.3015C304.196 83.097 304.599 82.9947 305.093 82.9947C305.537 82.9947 305.924 83.0856 306.257 83.2674C306.589 83.4464 306.848 83.7191 307.032 84.0856C307.217 84.4492 307.309 84.9095 307.309 85.4663V89.6254H306.304V85.5345C306.304 85.0203 306.17 84.6197 305.903 84.3328C305.636 84.043 305.27 83.8981 304.804 83.8981C304.483 83.8981 304.196 83.9677 303.943 84.1069C303.693 84.2461 303.495 84.4492 303.35 84.7163C303.206 84.9833 303.133 85.3072 303.133 85.6879ZM311.806 89.7617C311.215 89.7617 310.697 89.6211 310.251 89.3399C309.808 89.0586 309.461 88.6651 309.211 88.1595C308.964 87.6538 308.84 87.0629 308.84 86.3867C308.84 85.7049 308.964 85.1097 309.211 84.6012C309.461 84.0927 309.808 83.6978 310.251 83.4166C310.697 83.1353 311.215 82.9947 311.806 82.9947C312.397 82.9947 312.914 83.1353 313.357 83.4166C313.803 83.6978 314.15 84.0927 314.397 84.6012C314.647 85.1097 314.772 85.7049 314.772 86.3867C314.772 87.0629 314.647 87.6538 314.397 88.1595C314.15 88.6651 313.803 89.0586 313.357 89.3399C312.914 89.6211 312.397 89.7617 311.806 89.7617ZM311.806 88.8583C312.255 88.8583 312.624 88.7433 312.914 88.5132C313.204 88.283 313.418 87.9805 313.558 87.6055C313.697 87.2305 313.766 86.8242 313.766 86.3867C313.766 85.9492 313.697 85.5416 313.558 85.1637C313.418 84.7859 313.204 84.4805 312.914 84.2475C312.624 84.0146 312.255 83.8981 311.806 83.8981C311.357 83.8981 310.988 84.0146 310.698 84.2475C310.408 84.4805 310.194 84.7859 310.055 85.1637C309.915 85.5416 309.846 85.9492 309.846 86.3867C309.846 86.8242 309.915 87.2305 310.055 87.6055C310.194 87.9805 310.408 88.283 310.698 88.5132C310.988 88.7433 311.357 88.8583 311.806 88.8583ZM316.307 89.6254V83.0799H317.279V84.0686H317.347C317.466 83.7447 317.682 83.4819 317.995 83.2802C318.307 83.0785 318.659 82.9776 319.051 82.9776C319.125 82.9776 319.218 82.9791 319.328 82.9819C319.439 82.9847 319.523 82.989 319.58 82.9947V84.0174C319.546 84.0089 319.468 83.9961 319.346 83.9791C319.226 83.9592 319.1 83.9492 318.966 83.9492C318.648 83.9492 318.364 84.016 318.114 84.1495C317.867 84.2802 317.671 84.462 317.526 84.695C317.384 84.9251 317.313 85.1879 317.313 85.4833V89.6254H316.307Z" fill="#002109"/>
<path d="M372.646 229.466C372.842 229.661 373.158 229.661 373.354 229.466L376.536 226.284C376.731 226.088 376.731 225.772 376.536 225.577C376.34 225.381 376.024 225.381 375.828 225.577L373 228.405L370.172 225.577C369.976 225.381 369.66 225.381 369.464 225.577C369.269 225.772 369.269 226.088 369.464 226.284L372.646 229.466ZM372.5 162.72V229.112H373.5V162.72H372.5Z" fill="black"/>
<path d="M315.75 248.593H313.057V239.866H315.869C316.716 239.866 317.44 240.04 318.043 240.39C318.645 240.736 319.107 241.235 319.428 241.886C319.749 242.533 319.909 243.309 319.909 244.212C319.909 245.121 319.747 245.904 319.423 246.56C319.099 247.214 318.628 247.717 318.009 248.069C317.389 248.418 316.636 248.593 315.75 248.593ZM314.114 247.655H315.682C316.403 247.655 317.001 247.516 317.476 247.238C317.95 246.959 318.304 246.563 318.537 246.049C318.77 245.535 318.886 244.922 318.886 244.212C318.886 243.508 318.771 242.901 318.541 242.393C318.311 241.881 317.967 241.489 317.51 241.217C317.053 240.941 316.483 240.803 315.801 240.803H314.114V247.655ZM324.29 248.729C323.659 248.729 323.115 248.59 322.658 248.312C322.203 248.03 321.852 247.638 321.605 247.136C321.361 246.63 321.239 246.042 321.239 245.371C321.239 244.701 321.361 244.11 321.605 243.599C321.852 243.084 322.196 242.684 322.636 242.397C323.08 242.107 323.597 241.962 324.188 241.962C324.528 241.962 324.865 242.019 325.197 242.133C325.53 242.246 325.832 242.431 326.105 242.687C326.378 242.94 326.595 243.275 326.757 243.692C326.919 244.11 327 244.624 327 245.235V245.661H321.955V244.792H325.977C325.977 244.422 325.903 244.093 325.756 243.803C325.611 243.513 325.403 243.285 325.134 243.117C324.866 242.949 324.551 242.866 324.188 242.866C323.787 242.866 323.44 242.965 323.148 243.164C322.858 243.36 322.635 243.616 322.479 243.931C322.322 244.246 322.244 244.584 322.244 244.945V245.525C322.244 246.019 322.33 246.438 322.5 246.782C322.673 247.123 322.913 247.383 323.22 247.562C323.527 247.738 323.884 247.826 324.29 247.826C324.554 247.826 324.793 247.789 325.006 247.715C325.222 247.638 325.408 247.525 325.564 247.374C325.72 247.221 325.841 247.03 325.926 246.803L326.898 247.076C326.795 247.405 326.624 247.695 326.382 247.945C326.141 248.192 325.842 248.386 325.487 248.525C325.132 248.661 324.733 248.729 324.29 248.729ZM333.683 242.047L331.262 248.593H330.24L327.819 242.047H328.91L330.717 247.263H330.785L332.592 242.047H333.683ZM337.52 248.729C336.89 248.729 336.346 248.59 335.888 248.312C335.434 248.03 335.083 247.638 334.836 247.136C334.591 246.63 334.469 246.042 334.469 245.371C334.469 244.701 334.591 244.11 334.836 243.599C335.083 243.084 335.426 242.684 335.867 242.397C336.31 242.107 336.827 241.962 337.418 241.962C337.759 241.962 338.096 242.019 338.428 242.133C338.76 242.246 339.063 242.431 339.336 242.687C339.608 242.94 339.826 243.275 339.988 243.692C340.15 244.11 340.23 244.624 340.23 245.235V245.661H335.185V244.792H339.208C339.208 244.422 339.134 244.093 338.986 243.803C338.841 243.513 338.634 243.285 338.364 243.117C338.097 242.949 337.782 242.866 337.418 242.866C337.017 242.866 336.671 242.965 336.378 243.164C336.088 243.36 335.865 243.616 335.709 243.931C335.553 244.246 335.475 244.584 335.475 244.945V245.525C335.475 246.019 335.56 246.438 335.73 246.782C335.904 247.123 336.144 247.383 336.451 247.562C336.757 247.738 337.114 247.826 337.52 247.826C337.784 247.826 338.023 247.789 338.236 247.715C338.452 247.638 338.638 247.525 338.794 247.374C338.951 247.221 339.071 247.03 339.157 246.803L340.128 247.076C340.026 247.405 339.854 247.695 339.613 247.945C339.371 248.192 339.073 248.386 338.718 248.525C338.363 248.661 337.963 248.729 337.52 248.729ZM342.766 239.866V248.593H341.76V239.866H342.766ZM347.267 248.729C346.676 248.729 346.158 248.589 345.712 248.307C345.268 248.026 344.922 247.633 344.672 247.127C344.425 246.621 344.301 246.03 344.301 245.354C344.301 244.672 344.425 244.077 344.672 243.569C344.922 243.06 345.268 242.665 345.712 242.384C346.158 242.103 346.676 241.962 347.267 241.962C347.858 241.962 348.375 242.103 348.818 242.384C349.264 242.665 349.611 243.06 349.858 243.569C350.108 244.077 350.233 244.672 350.233 245.354C350.233 246.03 350.108 246.621 349.858 247.127C349.611 247.633 349.264 248.026 348.818 248.307C348.375 248.589 347.858 248.729 347.267 248.729ZM347.267 247.826C347.716 247.826 348.085 247.711 348.375 247.481C348.665 247.251 348.879 246.948 349.018 246.573C349.158 246.198 349.227 245.792 349.227 245.354C349.227 244.917 349.158 244.509 349.018 244.131C348.879 243.753 348.665 243.448 348.375 243.215C348.085 242.982 347.716 242.866 347.267 242.866C346.818 242.866 346.449 242.982 346.159 243.215C345.869 243.448 345.655 243.753 345.516 244.131C345.376 244.509 345.307 244.917 345.307 245.354C345.307 245.792 345.376 246.198 345.516 246.573C345.655 246.948 345.869 247.251 346.159 247.481C346.449 247.711 346.818 247.826 347.267 247.826ZM351.768 251.047V242.047H352.74V243.087H352.859C352.933 242.974 353.035 242.829 353.166 242.653C353.299 242.474 353.49 242.315 353.737 242.175C353.987 242.033 354.325 241.962 354.751 241.962C355.302 241.962 355.788 242.1 356.208 242.376C356.629 242.651 356.957 243.042 357.193 243.547C357.429 244.053 357.547 244.65 357.547 245.337C357.547 246.03 357.429 246.631 357.193 247.14C356.957 247.645 356.63 248.038 356.213 248.316C355.795 248.592 355.314 248.729 354.768 248.729C354.348 248.729 354.011 248.66 353.758 248.52C353.505 248.378 353.311 248.218 353.174 248.039C353.038 247.857 352.933 247.707 352.859 247.587H352.774V251.047H351.768ZM352.757 245.32C352.757 245.815 352.829 246.251 352.974 246.628C353.119 247.003 353.331 247.297 353.609 247.511C353.887 247.721 354.228 247.826 354.632 247.826C355.052 247.826 355.403 247.715 355.684 247.493C355.968 247.269 356.181 246.968 356.324 246.59C356.468 246.209 356.541 245.786 356.541 245.32C356.541 244.86 356.47 244.445 356.328 244.076C356.189 243.704 355.977 243.41 355.693 243.194C355.412 242.975 355.058 242.866 354.632 242.866C354.223 242.866 353.879 242.969 353.6 243.177C353.322 243.381 353.112 243.668 352.97 244.038C352.828 244.404 352.757 244.832 352.757 245.32ZM359.081 248.593V242.047H360.052V243.07H360.137C360.274 242.721 360.494 242.449 360.798 242.256C361.102 242.06 361.467 241.962 361.893 241.962C362.325 241.962 362.684 242.06 362.971 242.256C363.261 242.449 363.487 242.721 363.649 243.07H363.717C363.885 242.732 364.136 242.464 364.471 242.265C364.806 242.063 365.208 241.962 365.677 241.962C366.262 241.962 366.741 242.145 367.113 242.512C367.485 242.876 367.672 243.442 367.672 244.212V248.593H366.666V244.212C366.666 243.729 366.534 243.384 366.27 243.177C366.005 242.969 365.694 242.866 365.336 242.866C364.876 242.866 364.52 243.005 364.267 243.283C364.014 243.559 363.887 243.908 363.887 244.332V248.593H362.865V244.11C362.865 243.738 362.744 243.438 362.502 243.211C362.261 242.981 361.95 242.866 361.569 242.866C361.308 242.866 361.064 242.935 360.836 243.074C360.612 243.214 360.43 243.407 360.291 243.654C360.154 243.898 360.086 244.181 360.086 244.502V248.593H359.081ZM372.255 248.729C371.624 248.729 371.08 248.59 370.623 248.312C370.168 248.03 369.817 247.638 369.57 247.136C369.326 246.63 369.203 246.042 369.203 245.371C369.203 244.701 369.326 244.11 369.57 243.599C369.817 243.084 370.161 242.684 370.601 242.397C371.044 242.107 371.561 241.962 372.152 241.962C372.493 241.962 372.83 242.019 373.162 242.133C373.495 242.246 373.797 242.431 374.07 242.687C374.343 242.94 374.56 243.275 374.722 243.692C374.884 244.11 374.965 244.624 374.965 245.235V245.661H369.919V244.792H373.942C373.942 244.422 373.868 244.093 373.721 243.803C373.576 243.513 373.368 243.285 373.098 243.117C372.831 242.949 372.516 242.866 372.152 242.866C371.752 242.866 371.405 242.965 371.113 243.164C370.823 243.36 370.6 243.616 370.444 243.931C370.287 244.246 370.209 244.584 370.209 244.945V245.525C370.209 246.019 370.294 246.438 370.465 246.782C370.638 247.123 370.878 247.383 371.185 247.562C371.492 247.738 371.848 247.826 372.255 247.826C372.519 247.826 372.757 247.789 372.971 247.715C373.186 247.638 373.373 247.525 373.529 247.374C373.685 247.221 373.806 247.03 373.891 246.803L374.863 247.076C374.76 247.405 374.588 247.695 374.347 247.945C374.105 248.192 373.807 248.386 373.452 248.525C373.097 248.661 372.698 248.729 372.255 248.729ZM377.5 244.655V248.593H376.495V242.047H377.466V243.07H377.551C377.705 242.738 377.938 242.471 378.25 242.269C378.563 242.065 378.966 241.962 379.461 241.962C379.904 241.962 380.292 242.053 380.624 242.235C380.956 242.414 381.215 242.687 381.4 243.053C381.584 243.417 381.676 243.877 381.676 244.434V248.593H380.671V244.502C380.671 243.988 380.537 243.587 380.27 243.3C380.003 243.011 379.637 242.866 379.171 242.866C378.85 242.866 378.563 242.935 378.31 243.074C378.06 243.214 377.863 243.417 377.718 243.684C377.573 243.951 377.5 244.275 377.5 244.655ZM386.361 242.047V242.9H382.969V242.047H386.361ZM383.957 240.479H384.963V246.718C384.963 247.002 385.004 247.215 385.087 247.357C385.172 247.496 385.28 247.59 385.411 247.638C385.544 247.684 385.685 247.707 385.832 247.707C385.943 247.707 386.034 247.701 386.105 247.69C386.176 247.675 386.233 247.664 386.276 247.655L386.48 248.559C386.412 248.584 386.317 248.61 386.195 248.636C386.072 248.664 385.918 248.678 385.73 248.678C385.446 248.678 385.168 248.617 384.895 248.495C384.625 248.373 384.401 248.187 384.222 247.937C384.045 247.687 383.957 247.371 383.957 246.991V240.479ZM391.743 239.866L394.334 247.212H394.436L397.027 239.866H398.135L394.93 248.593H393.839L390.635 239.866H391.743ZM401.493 248.729C400.862 248.729 400.318 248.59 399.861 248.312C399.406 248.03 399.055 247.638 398.808 247.136C398.564 246.63 398.442 246.042 398.442 245.371C398.442 244.701 398.564 244.11 398.808 243.599C399.055 243.084 399.399 242.684 399.839 242.397C400.283 242.107 400.8 241.962 401.391 241.962C401.732 241.962 402.068 242.019 402.401 242.133C402.733 242.246 403.036 242.431 403.308 242.687C403.581 242.94 403.798 243.275 403.96 243.692C404.122 244.11 404.203 244.624 404.203 245.235V245.661H399.158V244.792H403.18C403.18 244.422 403.107 244.093 402.959 243.803C402.814 243.513 402.607 243.285 402.337 243.117C402.07 242.949 401.754 242.866 401.391 242.866C400.99 242.866 400.643 242.965 400.351 243.164C400.061 243.36 399.838 243.616 399.682 243.931C399.526 244.246 399.447 244.584 399.447 244.945V245.525C399.447 246.019 399.533 246.438 399.703 246.782C399.876 247.123 400.116 247.383 400.423 247.562C400.73 247.738 401.087 247.826 401.493 247.826C401.757 247.826 401.996 247.789 402.209 247.715C402.425 247.638 402.611 247.525 402.767 247.374C402.923 247.221 403.044 247.03 403.129 246.803L404.101 247.076C403.999 247.405 403.827 247.695 403.585 247.945C403.344 248.192 403.045 248.386 402.69 248.525C402.335 248.661 401.936 248.729 401.493 248.729ZM405.733 248.593V242.047H406.705V243.036H406.773C406.892 242.712 407.108 242.449 407.42 242.248C407.733 242.046 408.085 241.945 408.477 241.945C408.551 241.945 408.643 241.947 408.754 241.949C408.865 241.952 408.949 241.957 409.006 241.962V242.985C408.972 242.976 408.893 242.964 408.771 242.947C408.652 242.927 408.526 242.917 408.392 242.917C408.074 242.917 407.79 242.984 407.54 243.117C407.293 243.248 407.097 243.43 406.952 243.663C406.81 243.893 406.739 244.155 406.739 244.451V248.593H405.733ZM414.834 243.513L413.931 243.769C413.874 243.618 413.79 243.472 413.679 243.33C413.571 243.185 413.424 243.066 413.236 242.972C413.049 242.878 412.809 242.832 412.516 242.832C412.115 242.832 411.782 242.924 411.515 243.109C411.25 243.29 411.118 243.522 411.118 243.803C411.118 244.053 411.209 244.251 411.391 244.395C411.573 244.54 411.857 244.661 412.243 244.758L413.215 244.996C413.8 245.138 414.236 245.356 414.523 245.648C414.81 245.938 414.953 246.312 414.953 246.769C414.953 247.144 414.846 247.479 414.63 247.775C414.417 248.07 414.118 248.303 413.735 248.474C413.351 248.644 412.905 248.729 412.397 248.729C411.729 248.729 411.176 248.584 410.739 248.295C410.301 248.005 410.025 247.582 409.908 247.025L410.863 246.786C410.953 247.138 411.125 247.403 411.378 247.579C411.634 247.755 411.968 247.843 412.38 247.843C412.848 247.843 413.221 247.743 413.496 247.545C413.775 247.343 413.914 247.101 413.914 246.82C413.914 246.593 413.834 246.403 413.675 246.249C413.516 246.093 413.272 245.976 412.942 245.9L411.851 245.644C411.252 245.502 410.811 245.282 410.53 244.984C410.252 244.682 410.113 244.306 410.113 243.854C410.113 243.485 410.216 243.158 410.424 242.874C410.634 242.59 410.919 242.367 411.28 242.205C411.644 242.043 412.056 241.962 412.516 241.962C413.164 241.962 413.672 242.104 414.042 242.388C414.414 242.672 414.678 243.047 414.834 243.513ZM416.467 248.593V242.047H417.473V248.593H416.467ZM416.979 240.957C416.783 240.957 416.614 240.89 416.472 240.756C416.332 240.623 416.263 240.462 416.263 240.275C416.263 240.087 416.332 239.927 416.472 239.793C416.614 239.66 416.783 239.593 416.979 239.593C417.175 239.593 417.342 239.66 417.482 239.793C417.624 239.927 417.695 240.087 417.695 240.275C417.695 240.462 417.624 240.623 417.482 240.756C417.342 240.89 417.175 240.957 416.979 240.957ZM421.974 248.729C421.383 248.729 420.865 248.589 420.419 248.307C419.975 248.026 419.629 247.633 419.379 247.127C419.132 246.621 419.008 246.03 419.008 245.354C419.008 244.672 419.132 244.077 419.379 243.569C419.629 243.06 419.975 242.665 420.419 242.384C420.865 242.103 421.383 241.962 421.974 241.962C422.565 241.962 423.082 242.103 423.525 242.384C423.971 242.665 424.318 243.06 424.565 243.569C424.815 244.077 424.94 244.672 424.94 245.354C424.94 246.03 424.815 246.621 424.565 247.127C424.318 247.633 423.971 248.026 423.525 248.307C423.082 248.589 422.565 248.729 421.974 248.729ZM421.974 247.826C422.423 247.826 422.792 247.711 423.082 247.481C423.372 247.251 423.586 246.948 423.725 246.573C423.865 246.198 423.934 245.792 423.934 245.354C423.934 244.917 423.865 244.509 423.725 244.131C423.586 243.753 423.372 243.448 423.082 243.215C422.792 242.982 422.423 242.866 421.974 242.866C421.525 242.866 421.156 242.982 420.866 243.215C420.576 243.448 420.362 243.753 420.223 244.131C420.083 244.509 420.014 244.917 420.014 245.354C420.014 245.792 420.083 246.198 420.223 246.573C420.362 246.948 420.576 247.251 420.866 247.481C421.156 247.711 421.525 247.826 421.974 247.826ZM427.481 244.655V248.593H426.475V242.047H427.447V243.07H427.532C427.685 242.738 427.918 242.471 428.231 242.269C428.543 242.065 428.947 241.962 429.441 241.962C429.884 241.962 430.272 242.053 430.604 242.235C430.937 242.414 431.195 242.687 431.38 243.053C431.565 243.417 431.657 243.877 431.657 244.434V248.593H430.651V244.502C430.651 243.988 430.518 243.587 430.251 243.3C429.984 243.011 429.617 242.866 429.151 242.866C428.83 242.866 428.543 242.935 428.29 243.074C428.04 243.214 427.843 243.417 427.698 243.684C427.553 243.951 427.481 244.275 427.481 244.655Z" fill="#002109"/>
<path d="M328.354 50.1538C328.158 49.9586 327.842 49.9586 327.646 50.1538L324.464 53.3358C324.269 53.5311 324.269 53.8477 324.464 54.0429C324.66 54.2382 324.976 54.2382 325.172 54.0429L328 51.2145L330.828 54.0429C331.024 54.2382 331.34 54.2382 331.536 54.0429C331.731 53.8477 331.731 53.5311 331.536 53.3358L328.354 50.1538ZM328.5 124.381L328.5 50.5074L327.5 50.5074L327.5 124.381L328.5 124.381Z" fill="black"/>
<path d="M273.75 41H271.057V32.2727H273.869C274.716 32.2727 275.44 32.4474 276.043 32.7969C276.645 33.1435 277.107 33.642 277.428 34.2926C277.749 34.9403 277.909 35.7159 277.909 36.6193C277.909 37.5284 277.747 38.3111 277.423 38.9673C277.099 39.6207 276.628 40.1236 276.009 40.4759C275.389 40.8253 274.636 41 273.75 41ZM272.114 40.0625H273.682C274.403 40.0625 275.001 39.9233 275.476 39.6449C275.95 39.3665 276.304 38.9702 276.537 38.456C276.77 37.9418 276.886 37.3295 276.886 36.6193C276.886 35.9148 276.771 35.3082 276.541 34.7997C276.311 34.2884 275.967 33.8963 275.51 33.6236C275.053 33.348 274.483 33.2102 273.801 33.2102H272.114V40.0625ZM282.29 41.1364C281.659 41.1364 281.115 40.9972 280.658 40.7188C280.203 40.4375 279.852 40.0455 279.605 39.5426C279.361 39.0369 279.239 38.4489 279.239 37.7784C279.239 37.108 279.361 36.517 279.605 36.0057C279.852 35.4915 280.196 35.0909 280.636 34.804C281.08 34.5142 281.597 34.3693 282.188 34.3693C282.528 34.3693 282.865 34.4261 283.197 34.5398C283.53 34.6534 283.832 34.8381 284.105 35.0938C284.378 35.3466 284.595 35.6818 284.757 36.0994C284.919 36.517 285 37.0312 285 37.642V38.0682H279.955V37.1989H283.977C283.977 36.8295 283.903 36.5 283.756 36.2102C283.611 35.9205 283.403 35.6918 283.134 35.5241C282.866 35.3565 282.551 35.2727 282.188 35.2727C281.787 35.2727 281.44 35.3722 281.148 35.571C280.858 35.767 280.635 36.0227 280.479 36.3381C280.322 36.6534 280.244 36.9915 280.244 37.3523V37.9318C280.244 38.4261 280.33 38.8452 280.5 39.1889C280.673 39.5298 280.913 39.7898 281.22 39.9688C281.527 40.1449 281.884 40.233 282.29 40.233C282.554 40.233 282.793 40.196 283.006 40.1222C283.222 40.0455 283.408 39.9318 283.564 39.7812C283.72 39.6278 283.841 39.4375 283.926 39.2102L284.898 39.483C284.795 39.8125 284.624 40.1023 284.382 40.3523C284.141 40.5994 283.842 40.7926 283.487 40.9318C283.132 41.0682 282.733 41.1364 282.29 41.1364ZM291.683 34.4545L289.262 41H288.24L285.819 34.4545H286.91L288.717 39.6705H288.785L290.592 34.4545H291.683ZM295.52 41.1364C294.89 41.1364 294.346 40.9972 293.888 40.7188C293.434 40.4375 293.083 40.0455 292.836 39.5426C292.591 39.0369 292.469 38.4489 292.469 37.7784C292.469 37.108 292.591 36.517 292.836 36.0057C293.083 35.4915 293.426 35.0909 293.867 34.804C294.31 34.5142 294.827 34.3693 295.418 34.3693C295.759 34.3693 296.096 34.4261 296.428 34.5398C296.76 34.6534 297.063 34.8381 297.336 35.0938C297.608 35.3466 297.826 35.6818 297.988 36.0994C298.15 36.517 298.23 37.0312 298.23 37.642V38.0682H293.185V37.1989H297.208C297.208 36.8295 297.134 36.5 296.986 36.2102C296.841 35.9205 296.634 35.6918 296.364 35.5241C296.097 35.3565 295.782 35.2727 295.418 35.2727C295.017 35.2727 294.671 35.3722 294.378 35.571C294.088 35.767 293.865 36.0227 293.709 36.3381C293.553 36.6534 293.475 36.9915 293.475 37.3523V37.9318C293.475 38.4261 293.56 38.8452 293.73 39.1889C293.904 39.5298 294.144 39.7898 294.451 39.9688C294.757 40.1449 295.114 40.233 295.52 40.233C295.784 40.233 296.023 40.196 296.236 40.1222C296.452 40.0455 296.638 39.9318 296.794 39.7812C296.951 39.6278 297.071 39.4375 297.157 39.2102L298.128 39.483C298.026 39.8125 297.854 40.1023 297.613 40.3523C297.371 40.5994 297.073 40.7926 296.718 40.9318C296.363 41.0682 295.963 41.1364 295.52 41.1364ZM300.766 32.2727V41H299.76V32.2727H300.766ZM305.267 41.1364C304.676 41.1364 304.158 40.9957 303.712 40.7145C303.268 40.4332 302.922 40.0398 302.672 39.5341C302.425 39.0284 302.301 38.4375 302.301 37.7614C302.301 37.0795 302.425 36.4844 302.672 35.9759C302.922 35.4673 303.268 35.0724 303.712 34.7912C304.158 34.5099 304.676 34.3693 305.267 34.3693C305.858 34.3693 306.375 34.5099 306.818 34.7912C307.264 35.0724 307.611 35.4673 307.858 35.9759C308.108 36.4844 308.233 37.0795 308.233 37.7614C308.233 38.4375 308.108 39.0284 307.858 39.5341C307.611 40.0398 307.264 40.4332 306.818 40.7145C306.375 40.9957 305.858 41.1364 305.267 41.1364ZM305.267 40.233C305.716 40.233 306.085 40.1179 306.375 39.8878C306.665 39.6577 306.879 39.3551 307.018 38.9801C307.158 38.6051 307.227 38.1989 307.227 37.7614C307.227 37.3239 307.158 36.9162 307.018 36.5384C306.879 36.1605 306.665 35.8551 306.375 35.6222C306.085 35.3892 305.716 35.2727 305.267 35.2727C304.818 35.2727 304.449 35.3892 304.159 35.6222C303.869 35.8551 303.655 36.1605 303.516 36.5384C303.376 36.9162 303.307 37.3239 303.307 37.7614C303.307 38.1989 303.376 38.6051 303.516 38.9801C303.655 39.3551 303.869 39.6577 304.159 39.8878C304.449 40.1179 304.818 40.233 305.267 40.233ZM309.768 43.4545V34.4545H310.74V35.4943H310.859C310.933 35.3807 311.035 35.2358 311.166 35.0597C311.299 34.8807 311.49 34.7216 311.737 34.5824C311.987 34.4403 312.325 34.3693 312.751 34.3693C313.302 34.3693 313.788 34.5071 314.208 34.7827C314.629 35.0582 314.957 35.4489 315.193 35.9545C315.429 36.4602 315.547 37.0568 315.547 37.7443C315.547 38.4375 315.429 39.0384 315.193 39.5469C314.957 40.0526 314.63 40.4446 314.213 40.723C313.795 40.9986 313.314 41.1364 312.768 41.1364C312.348 41.1364 312.011 41.0668 311.758 40.9276C311.505 40.7855 311.311 40.625 311.174 40.446C311.038 40.2642 310.933 40.1136 310.859 39.9943H310.774V43.4545H309.768ZM310.757 37.7273C310.757 38.2216 310.829 38.6577 310.974 39.0355C311.119 39.4105 311.331 39.7045 311.609 39.9176C311.887 40.1278 312.228 40.233 312.632 40.233C313.052 40.233 313.403 40.1222 313.684 39.9006C313.968 39.6761 314.181 39.375 314.324 38.9972C314.468 38.6165 314.541 38.1932 314.541 37.7273C314.541 37.267 314.47 36.8523 314.328 36.483C314.189 36.1108 313.977 35.8168 313.693 35.6009C313.412 35.3821 313.058 35.2727 312.632 35.2727C312.223 35.2727 311.879 35.3764 311.6 35.5838C311.322 35.7884 311.112 36.0753 310.97 36.4446C310.828 36.8111 310.757 37.2386 310.757 37.7273ZM317.081 41V34.4545H318.052V35.4773H318.137C318.274 35.1278 318.494 34.8565 318.798 34.6634C319.102 34.4673 319.467 34.3693 319.893 34.3693C320.325 34.3693 320.684 34.4673 320.971 34.6634C321.261 34.8565 321.487 35.1278 321.649 35.4773H321.717C321.885 35.1392 322.136 34.8707 322.471 34.6719C322.806 34.4702 323.208 34.3693 323.677 34.3693C324.262 34.3693 324.741 34.5526 325.113 34.919C325.485 35.2827 325.672 35.8494 325.672 36.6193V41H324.666V36.6193C324.666 36.1364 324.534 35.7912 324.27 35.5838C324.005 35.3764 323.694 35.2727 323.336 35.2727C322.876 35.2727 322.52 35.4119 322.267 35.6903C322.014 35.9659 321.887 36.3153 321.887 36.7386V41H320.865V36.517C320.865 36.1449 320.744 35.8452 320.502 35.6179C320.261 35.3878 319.95 35.2727 319.569 35.2727C319.308 35.2727 319.064 35.3423 318.836 35.4815C318.612 35.6207 318.43 35.8139 318.291 36.0611C318.154 36.3054 318.086 36.5881 318.086 36.9091V41H317.081ZM330.255 41.1364C329.624 41.1364 329.08 40.9972 328.623 40.7188C328.168 40.4375 327.817 40.0455 327.57 39.5426C327.326 39.0369 327.203 38.4489 327.203 37.7784C327.203 37.108 327.326 36.517 327.57 36.0057C327.817 35.4915 328.161 35.0909 328.601 34.804C329.044 34.5142 329.561 34.3693 330.152 34.3693C330.493 34.3693 330.83 34.4261 331.162 34.5398C331.495 34.6534 331.797 34.8381 332.07 35.0938C332.343 35.3466 332.56 35.6818 332.722 36.0994C332.884 36.517 332.965 37.0312 332.965 37.642V38.0682H327.919V37.1989H331.942C331.942 36.8295 331.868 36.5 331.721 36.2102C331.576 35.9205 331.368 35.6918 331.098 35.5241C330.831 35.3565 330.516 35.2727 330.152 35.2727C329.752 35.2727 329.405 35.3722 329.113 35.571C328.823 35.767 328.6 36.0227 328.444 36.3381C328.287 36.6534 328.209 36.9915 328.209 37.3523V37.9318C328.209 38.4261 328.294 38.8452 328.465 39.1889C328.638 39.5298 328.878 39.7898 329.185 39.9688C329.492 40.1449 329.848 40.233 330.255 40.233C330.519 40.233 330.757 40.196 330.971 40.1222C331.186 40.0455 331.373 39.9318 331.529 39.7812C331.685 39.6278 331.806 39.4375 331.891 39.2102L332.863 39.483C332.76 39.8125 332.588 40.1023 332.347 40.3523C332.105 40.5994 331.807 40.7926 331.452 40.9318C331.097 41.0682 330.698 41.1364 330.255 41.1364ZM335.5 37.0625V41H334.495V34.4545H335.466V35.4773H335.551C335.705 35.1449 335.938 34.8778 336.25 34.6761C336.563 34.4716 336.966 34.3693 337.461 34.3693C337.904 34.3693 338.292 34.4602 338.624 34.642C338.956 34.821 339.215 35.0938 339.4 35.4602C339.584 35.8239 339.676 36.2841 339.676 36.8409V41H338.671V36.9091C338.671 36.3949 338.537 35.9943 338.27 35.7074C338.003 35.4176 337.637 35.2727 337.171 35.2727C336.85 35.2727 336.563 35.3423 336.31 35.4815C336.06 35.6207 335.863 35.8239 335.718 36.0909C335.573 36.358 335.5 36.6818 335.5 37.0625ZM344.361 34.4545V35.3068H340.969V34.4545H344.361ZM341.957 32.8864H342.963V39.125C342.963 39.4091 343.004 39.6222 343.087 39.7642C343.172 39.9034 343.28 39.9972 343.411 40.0455C343.544 40.0909 343.685 40.1136 343.832 40.1136C343.943 40.1136 344.034 40.108 344.105 40.0966C344.176 40.0824 344.233 40.071 344.276 40.0625L344.48 40.9659C344.412 40.9915 344.317 41.017 344.195 41.0426C344.072 41.071 343.918 41.0852 343.73 41.0852C343.446 41.0852 343.168 41.0241 342.895 40.902C342.625 40.7798 342.401 40.5938 342.222 40.3438C342.045 40.0938 341.957 39.7784 341.957 39.3977V32.8864ZM354.158 34.4545C354.107 34.0227 353.899 33.6875 353.536 33.4489C353.172 33.2102 352.726 33.0909 352.197 33.0909C351.811 33.0909 351.473 33.1534 351.183 33.2784C350.896 33.4034 350.672 33.5753 350.51 33.794C350.351 34.0128 350.271 34.2614 350.271 34.5398C350.271 34.7727 350.327 34.973 350.438 35.1406C350.551 35.3054 350.696 35.4432 350.872 35.554C351.048 35.6619 351.233 35.7514 351.426 35.8224C351.619 35.8906 351.797 35.946 351.959 35.9886L352.845 36.2273C353.072 36.2869 353.325 36.3693 353.604 36.4744C353.885 36.5795 354.153 36.723 354.409 36.9048C354.668 37.0838 354.881 37.3139 355.048 37.5952C355.216 37.8764 355.3 38.2216 355.3 38.6307C355.3 39.1023 355.176 39.5284 354.929 39.9091C354.685 40.2898 354.327 40.5923 353.855 40.8168C353.386 41.0412 352.817 41.1534 352.146 41.1534C351.521 41.1534 350.98 41.0526 350.523 40.8509C350.068 40.6491 349.71 40.3679 349.449 40.0071C349.19 39.6463 349.044 39.2273 349.01 38.75H350.101C350.129 39.0795 350.24 39.3523 350.433 39.5682C350.629 39.7812 350.876 39.9403 351.175 40.0455C351.476 40.1477 351.8 40.1989 352.146 40.1989C352.55 40.1989 352.912 40.1335 353.233 40.0028C353.554 39.8693 353.808 39.6847 353.996 39.4489C354.183 39.2102 354.277 38.9318 354.277 38.6136C354.277 38.3239 354.196 38.0881 354.034 37.9062C353.872 37.7244 353.659 37.5767 353.395 37.4631C353.131 37.3494 352.845 37.25 352.538 37.1648L351.464 36.858C350.783 36.6619 350.243 36.3821 349.845 36.0185C349.447 35.6548 349.249 35.179 349.249 34.5909C349.249 34.1023 349.381 33.6761 349.645 33.3125C349.912 32.946 350.27 32.6619 350.719 32.4602C351.17 32.2557 351.675 32.1534 352.232 32.1534C352.794 32.1534 353.294 32.2543 353.732 32.456C354.169 32.6548 354.516 32.9276 354.771 33.2741C355.03 33.6207 355.166 34.0142 355.18 34.4545H354.158ZM359.748 34.4545V35.3068H356.355V34.4545H359.748ZM357.344 32.8864H358.35V39.125C358.35 39.4091 358.391 39.6222 358.473 39.7642C358.559 39.9034 358.667 39.9972 358.797 40.0455C358.931 40.0909 359.071 40.1136 359.219 40.1136C359.33 40.1136 359.421 40.108 359.492 40.0966C359.563 40.0824 359.62 40.071 359.662 40.0625L359.867 40.9659C359.799 40.9915 359.703 41.017 359.581 41.0426C359.459 41.071 359.304 41.0852 359.117 41.0852C358.833 41.0852 358.554 41.0241 358.282 40.902C358.012 40.7798 357.787 40.5938 357.608 40.3438C357.432 40.0938 357.344 39.7784 357.344 39.3977V32.8864ZM363.186 41.1534C362.772 41.1534 362.395 41.0753 362.057 40.919C361.719 40.7599 361.451 40.5312 361.252 40.233C361.053 39.9318 360.953 39.5682 360.953 39.142C360.953 38.767 361.027 38.4631 361.175 38.2301C361.323 37.9943 361.52 37.8097 361.767 37.6761C362.015 37.5426 362.287 37.4432 362.586 37.3778C362.887 37.3097 363.189 37.2557 363.493 37.2159C363.891 37.1648 364.213 37.1264 364.461 37.1009C364.711 37.0724 364.892 37.0256 365.006 36.9602C365.123 36.8949 365.181 36.7812 365.181 36.6193V36.5852C365.181 36.1648 365.066 35.8381 364.836 35.6051C364.608 35.3722 364.263 35.2557 363.8 35.2557C363.32 35.2557 362.944 35.3608 362.671 35.571C362.398 35.7812 362.206 36.0057 362.096 36.2443L361.141 35.9034C361.311 35.5057 361.539 35.196 361.823 34.9744C362.11 34.75 362.422 34.5937 362.76 34.5057C363.101 34.4148 363.436 34.3693 363.766 34.3693C363.976 34.3693 364.218 34.3949 364.49 34.446C364.766 34.4943 365.032 34.5952 365.287 34.7486C365.546 34.902 365.76 35.1335 365.931 35.4432C366.101 35.7528 366.186 36.1676 366.186 36.6875V41H365.181V40.1136H365.13C365.061 40.2557 364.948 40.4077 364.789 40.5696C364.63 40.7315 364.418 40.8693 364.154 40.983C363.89 41.0966 363.567 41.1534 363.186 41.1534ZM363.34 40.25C363.738 40.25 364.073 40.1719 364.346 40.0156C364.621 39.8594 364.828 39.6577 364.968 39.4105C365.11 39.1634 365.181 38.9034 365.181 38.6307V37.7102C365.138 37.7614 365.044 37.8082 364.9 37.8509C364.757 37.8906 364.593 37.9261 364.405 37.9574C364.221 37.9858 364.04 38.0114 363.864 38.0341C363.691 38.054 363.55 38.071 363.442 38.0852C363.181 38.1193 362.936 38.1747 362.709 38.2514C362.485 38.3253 362.303 38.4375 362.164 38.5881C362.027 38.7358 361.959 38.9375 361.959 39.1932C361.959 39.5426 362.088 39.8068 362.347 39.9858C362.608 40.1619 362.939 40.25 363.34 40.25ZM370.869 34.4545V35.3068H367.477V34.4545H370.869ZM368.465 32.8864H369.471V39.125C369.471 39.4091 369.512 39.6222 369.594 39.7642C369.68 39.9034 369.788 39.9972 369.918 40.0455C370.052 40.0909 370.192 40.1136 370.34 40.1136C370.451 40.1136 370.542 40.108 370.613 40.0966C370.684 40.0824 370.741 40.071 370.783 40.0625L370.988 40.9659C370.92 40.9915 370.825 41.017 370.702 41.0426C370.58 41.071 370.425 41.0852 370.238 41.0852C369.954 41.0852 369.675 41.0241 369.403 40.902C369.133 40.7798 368.908 40.5938 368.729 40.3438C368.553 40.0938 368.465 39.7784 368.465 39.3977V32.8864ZM376.506 38.3239V34.4545H377.512V41H376.506V39.892H376.438C376.285 40.2244 376.046 40.5071 375.722 40.7401C375.398 40.9702 374.989 41.0852 374.495 41.0852C374.086 41.0852 373.722 40.9957 373.404 40.8168C373.086 40.6349 372.836 40.3622 372.654 39.9986C372.472 39.6321 372.381 39.1705 372.381 38.6136V34.4545H373.387V38.5455C373.387 39.0227 373.521 39.4034 373.788 39.6875C374.058 39.9716 374.401 40.1136 374.819 40.1136C375.069 40.1136 375.323 40.0497 375.582 39.9219C375.843 39.794 376.062 39.598 376.238 39.3338C376.417 39.0696 376.506 38.733 376.506 38.3239ZM383.99 35.9205L383.087 36.1761C383.03 36.0256 382.946 35.8793 382.836 35.7372C382.728 35.5923 382.58 35.473 382.392 35.3793C382.205 35.2855 381.965 35.2386 381.672 35.2386C381.272 35.2386 380.938 35.331 380.671 35.5156C380.407 35.6974 380.275 35.929 380.275 36.2102C380.275 36.4602 380.365 36.6577 380.547 36.8026C380.729 36.9474 381.013 37.0682 381.4 37.1648L382.371 37.4034C382.956 37.5455 383.392 37.7628 383.679 38.0554C383.966 38.3452 384.11 38.7187 384.11 39.1761C384.11 39.5511 384.002 39.8864 383.786 40.1818C383.573 40.4773 383.275 40.7102 382.891 40.8807C382.507 41.0511 382.061 41.1364 381.553 41.1364C380.885 41.1364 380.333 40.9915 379.895 40.7017C379.458 40.4119 379.181 39.9886 379.064 39.4318L380.019 39.1932C380.11 39.5455 380.282 39.8097 380.534 39.9858C380.79 40.1619 381.124 40.25 381.536 40.25C382.005 40.25 382.377 40.1506 382.652 39.9517C382.931 39.75 383.07 39.5085 383.07 39.2273C383.07 39 382.99 38.8097 382.831 38.6562C382.672 38.5 382.428 38.3835 382.098 38.3068L381.007 38.0511C380.408 37.9091 379.968 37.6889 379.686 37.3906C379.408 37.0895 379.269 36.7131 379.269 36.2614C379.269 35.892 379.373 35.5653 379.58 35.2812C379.79 34.9972 380.076 34.7741 380.436 34.6122C380.8 34.4503 381.212 34.3693 381.672 34.3693C382.32 34.3693 382.828 34.5114 383.198 34.7955C383.57 35.0795 383.834 35.4545 383.99 35.9205Z" fill="#002109"/>
<path d="M321.278 168.486C321.278 167.412 321.418 166.425 321.696 165.524C321.977 164.621 322.378 163.79 322.898 163.031H323.784C323.58 163.313 323.388 163.659 323.209 164.071C323.033 164.48 322.878 164.931 322.744 165.422C322.611 165.911 322.506 166.416 322.429 166.939C322.355 167.462 322.318 167.977 322.318 168.486C322.318 169.162 322.384 169.848 322.514 170.544C322.645 171.24 322.821 171.886 323.043 172.483C323.264 173.08 323.511 173.565 323.784 173.94H322.898C322.378 173.182 321.977 172.352 321.696 171.452C321.418 170.548 321.278 169.56 321.278 168.486ZM325.251 172.85V172.083L328.132 168.929C328.47 168.56 328.748 168.239 328.967 167.966C329.186 167.69 329.348 167.432 329.453 167.19C329.561 166.946 329.615 166.69 329.615 166.423C329.615 166.117 329.541 165.851 329.393 165.627C329.248 165.402 329.049 165.229 328.797 165.107C328.544 164.985 328.26 164.923 327.944 164.923C327.609 164.923 327.316 164.993 327.066 165.132C326.819 165.269 326.627 165.46 326.491 165.708C326.358 165.955 326.291 166.244 326.291 166.577H325.285C325.285 166.065 325.403 165.617 325.639 165.23C325.875 164.844 326.196 164.543 326.602 164.327C327.011 164.111 327.47 164.003 327.978 164.003C328.49 164.003 328.943 164.111 329.338 164.327C329.733 164.543 330.042 164.834 330.267 165.2C330.491 165.567 330.603 165.975 330.603 166.423C330.603 166.744 330.545 167.058 330.429 167.365C330.315 167.669 330.116 168.009 329.832 168.384C329.551 168.756 329.16 169.21 328.66 169.747L326.7 171.844V171.912H330.757V172.85H325.251ZM334.681 168.486C334.681 169.56 334.541 170.548 334.26 171.452C333.981 172.352 333.582 173.182 333.062 173.94H332.176C332.38 173.659 332.571 173.313 332.747 172.901C332.926 172.492 333.082 172.043 333.216 171.554C333.349 171.063 333.453 170.556 333.527 170.033C333.603 169.507 333.642 168.992 333.642 168.486C333.642 167.81 333.576 167.124 333.446 166.428C333.315 165.732 333.139 165.085 332.917 164.489C332.696 163.892 332.449 163.406 332.176 163.031H333.062C333.582 163.79 333.981 164.621 334.26 165.524C334.541 166.425 334.681 167.412 334.681 168.486Z" fill="#002109"/>
<path d="M479.972 137.004V145.732H478.915V138.112H478.864L476.733 139.527V138.453L478.915 137.004H479.972ZM482.482 145.732V144.965L485.362 141.811C485.7 141.442 485.979 141.121 486.197 140.848C486.416 140.572 486.578 140.314 486.683 140.072C486.791 139.828 486.845 139.572 486.845 139.305C486.845 138.999 486.771 138.733 486.624 138.509C486.479 138.284 486.28 138.111 486.027 137.989C485.774 137.867 485.49 137.805 485.175 137.805C484.839 137.805 484.547 137.875 484.297 138.014C484.05 138.151 483.858 138.342 483.722 138.59C483.588 138.837 483.521 139.126 483.521 139.459H482.516C482.516 138.947 482.634 138.499 482.869 138.112C483.105 137.726 483.426 137.425 483.832 137.209C484.241 136.993 484.7 136.885 485.209 136.885C485.72 136.885 486.173 136.993 486.568 137.209C486.963 137.425 487.273 137.716 487.497 138.082C487.722 138.449 487.834 138.857 487.834 139.305C487.834 139.626 487.776 139.94 487.659 140.247C487.545 140.551 487.347 140.891 487.062 141.266C486.781 141.638 486.391 142.092 485.891 142.629L483.93 144.726V144.794H487.987V145.732H482.482ZM494.281 145.732V146.669H488.827V145.732H494.281ZM497.469 145.851C496.827 145.851 496.28 145.676 495.828 145.327C495.376 144.974 495.031 144.465 494.793 143.797C494.554 143.126 494.435 142.317 494.435 141.368C494.435 140.425 494.554 139.619 494.793 138.952C495.034 138.281 495.381 137.77 495.832 137.418C496.287 137.063 496.832 136.885 497.469 136.885C498.105 136.885 498.649 137.063 499.101 137.418C499.555 137.77 499.902 138.281 500.141 138.952C500.382 139.619 500.503 140.425 500.503 141.368C500.503 142.317 500.384 143.126 500.145 143.797C499.906 144.465 499.561 144.974 499.109 145.327C498.658 145.676 498.111 145.851 497.469 145.851ZM497.469 144.913C498.105 144.913 498.599 144.607 498.952 143.993C499.304 143.379 499.48 142.504 499.48 141.368C499.48 140.612 499.399 139.969 499.237 139.438C499.078 138.906 498.848 138.501 498.547 138.223C498.249 137.945 497.889 137.805 497.469 137.805C496.838 137.805 496.345 138.117 495.99 138.739C495.635 139.358 495.457 140.234 495.457 141.368C495.457 142.124 495.537 142.766 495.696 143.294C495.855 143.822 496.084 144.224 496.382 144.5C496.683 144.776 497.045 144.913 497.469 144.913ZM505.19 137.004V145.732H504.134V138.112H504.082L501.952 139.527V138.453L504.134 137.004H505.19ZM512.234 145.732V146.669H506.78V145.732H512.234ZM515.422 145.851C514.78 145.851 514.233 145.676 513.781 145.327C513.33 144.974 512.984 144.465 512.746 143.797C512.507 143.126 512.388 142.317 512.388 141.368C512.388 140.425 512.507 139.619 512.746 138.952C512.987 138.281 513.334 137.77 513.786 137.418C514.24 137.063 514.786 136.885 515.422 136.885C516.058 136.885 516.602 137.063 517.054 137.418C517.509 137.77 517.855 138.281 518.094 138.952C518.335 139.619 518.456 140.425 518.456 141.368C518.456 142.317 518.337 143.126 518.098 143.797C517.859 144.465 517.514 144.974 517.062 145.327C516.611 145.676 516.064 145.851 515.422 145.851ZM515.422 144.913C516.058 144.913 516.553 144.607 516.905 143.993C517.257 143.379 517.433 142.504 517.433 141.368C517.433 140.612 517.352 139.969 517.19 139.438C517.031 138.906 516.801 138.501 516.5 138.223C516.202 137.945 515.842 137.805 515.422 137.805C514.791 137.805 514.298 138.117 513.943 138.739C513.588 139.358 513.411 140.234 513.411 141.368C513.411 142.124 513.49 142.766 513.649 143.294C513.808 143.822 514.037 144.224 514.335 144.5C514.636 144.776 514.999 144.913 515.422 144.913ZM520.075 145.732V144.965L522.956 141.811C523.294 141.442 523.572 141.121 523.791 140.848C524.01 140.572 524.172 140.314 524.277 140.072C524.385 139.828 524.439 139.572 524.439 139.305C524.439 138.999 524.365 138.733 524.217 138.509C524.072 138.284 523.874 138.111 523.621 137.989C523.368 137.867 523.084 137.805 522.768 137.805C522.433 137.805 522.141 137.875 521.891 138.014C521.643 138.151 521.452 138.342 521.315 138.59C521.182 138.837 521.115 139.126 521.115 139.459H520.109C520.109 138.947 520.227 138.499 520.463 138.112C520.699 137.726 521.02 137.425 521.426 137.209C521.835 136.993 522.294 136.885 522.803 136.885C523.314 136.885 523.767 136.993 524.162 137.209C524.557 137.425 524.866 137.716 525.091 138.082C525.315 138.449 525.428 138.857 525.428 139.305C525.428 139.626 525.369 139.94 525.253 140.247C525.139 140.551 524.94 140.891 524.656 141.266C524.375 141.638 523.984 142.092 523.484 142.629L521.524 144.726V144.794H525.581V145.732H520.075ZM531.875 145.732V146.669H526.42V145.732H531.875ZM535.062 145.851C534.42 145.851 533.874 145.676 533.422 145.327C532.97 144.974 532.625 144.465 532.386 143.797C532.148 143.126 532.028 142.317 532.028 141.368C532.028 140.425 532.148 139.619 532.386 138.952C532.628 138.281 532.974 137.77 533.426 137.418C533.881 137.063 534.426 136.885 535.062 136.885C535.699 136.885 536.243 137.063 536.695 137.418C537.149 137.77 537.496 138.281 537.734 138.952C537.976 139.619 538.097 140.425 538.097 141.368C538.097 142.317 537.977 143.126 537.739 143.797C537.5 144.465 537.155 144.974 536.703 145.327C536.251 145.676 535.705 145.851 535.062 145.851ZM535.062 144.913C535.699 144.913 536.193 144.607 536.545 143.993C536.898 143.379 537.074 142.504 537.074 141.368C537.074 140.612 536.993 139.969 536.831 139.438C536.672 138.906 536.442 138.501 536.141 138.223C535.842 137.945 535.483 137.805 535.062 137.805C534.432 137.805 533.939 138.117 533.584 138.739C533.229 139.358 533.051 140.234 533.051 141.368C533.051 142.124 533.131 142.766 533.29 143.294C533.449 143.822 533.678 144.224 533.976 144.5C534.277 144.776 534.639 144.913 535.062 144.913ZM539.511 143.942V143.072L543.347 137.004H543.977V138.351H543.551L540.653 142.936V143.004H545.818V143.942H539.511ZM543.619 145.732V143.678V143.273V137.004H544.625V145.732H543.619Z" fill="#002109"/>
<path d="M467.854 143.436C468.049 143.241 468.049 142.924 467.854 142.729L464.672 139.547C464.476 139.352 464.16 139.352 463.964 139.547C463.769 139.742 463.769 140.059 463.964 140.254L466.793 143.083L463.964 145.911C463.769 146.106 463.769 146.423 463.964 146.618C464.16 146.813 464.476 146.813 464.672 146.618L467.854 143.436ZM395 143.583H467.5V142.583H395V143.583Z" fill="black"/>
</svg>
