<svg width="600" height="240" viewBox="0 0 600 240" fill="none" xmlns="http://www.w3.org/2000/svg">
<rect width="600" height="240" rx="16" fill="#F7FBF2"/>
<rect x="41" y="112.861" width="86" height="23.3776" rx="11.6888" fill="#D3E8D1"/>
<path d="M55.0568 129.537V120.81H56.1136V128.599H60.1705V129.537H55.0568ZM63.5966 129.69C63.1818 129.69 62.8054 129.612 62.4673 129.456C62.1293 129.297 61.8608 129.068 61.6619 128.77C61.4631 128.469 61.3636 128.105 61.3636 127.679C61.3636 127.304 61.4375 127 61.5852 126.767C61.733 126.531 61.9304 126.347 62.1776 126.213C62.4247 126.079 62.6974 125.98 62.9957 125.915C63.2969 125.847 63.5994 125.793 63.9034 125.753C64.3011 125.702 64.6236 125.663 64.8707 125.638C65.1207 125.609 65.3026 125.562 65.4162 125.497C65.5327 125.432 65.5909 125.318 65.5909 125.156V125.122C65.5909 124.702 65.4759 124.375 65.2457 124.142C65.0185 123.909 64.6733 123.793 64.2102 123.793C63.7301 123.793 63.3537 123.898 63.081 124.108C62.8082 124.318 62.6165 124.543 62.5057 124.781L61.5511 124.44C61.7216 124.043 61.9489 123.733 62.233 123.511C62.5199 123.287 62.8324 123.131 63.1705 123.043C63.5114 122.952 63.8466 122.906 64.1761 122.906C64.3864 122.906 64.6278 122.932 64.9006 122.983C65.1761 123.031 65.4418 123.132 65.6974 123.285C65.956 123.439 66.1705 123.67 66.3409 123.98C66.5114 124.29 66.5966 124.704 66.5966 125.224V129.537H65.5909V128.651H65.5398C65.4716 128.793 65.358 128.945 65.1989 129.106C65.0398 129.268 64.8281 129.406 64.5639 129.52C64.2997 129.633 63.9773 129.69 63.5966 129.69ZM63.75 128.787C64.1477 128.787 64.483 128.709 64.7557 128.553C65.0313 128.396 65.2386 128.195 65.3778 127.947C65.5199 127.7 65.5909 127.44 65.5909 127.168V126.247C65.5483 126.298 65.4545 126.345 65.3097 126.388C65.1676 126.428 65.0028 126.463 64.8153 126.494C64.6307 126.523 64.4503 126.548 64.2741 126.571C64.1009 126.591 63.9602 126.608 63.8523 126.622C63.5909 126.656 63.3466 126.712 63.1193 126.788C62.8949 126.862 62.7131 126.974 62.5739 127.125C62.4375 127.273 62.3693 127.474 62.3693 127.73C62.3693 128.079 62.4986 128.344 62.7571 128.523C63.0185 128.699 63.3494 128.787 63.75 128.787ZM69.9151 129.537L67.9208 122.991H68.9776L70.3924 128.003H70.4606L71.8583 122.991H72.9322L74.3129 127.986H74.381L75.7958 122.991H76.8526L74.8583 129.537H73.8697L72.4379 124.508H72.3356L70.9038 129.537H69.9151ZM79.1879 125.599V129.537H78.1822V122.991H79.1538V124.014H79.239C79.3924 123.682 79.6254 123.415 79.9379 123.213C80.2504 123.008 80.6538 122.906 81.1481 122.906C81.5913 122.906 81.979 122.997 82.3114 123.179C82.6438 123.358 82.9023 123.631 83.087 123.997C83.2717 124.361 83.364 124.821 83.364 125.378V129.537H82.3583V125.446C82.3583 124.932 82.2248 124.531 81.9577 124.244C81.6907 123.954 81.3242 123.81 80.8583 123.81C80.5373 123.81 80.2504 123.879 79.9975 124.018C79.7475 124.158 79.5501 124.361 79.4052 124.628C79.2603 124.895 79.1879 125.219 79.1879 125.599ZM87.8608 129.673C87.2472 129.673 86.7188 129.528 86.2756 129.239C85.8324 128.949 85.4915 128.55 85.2528 128.041C85.0142 127.533 84.8949 126.952 84.8949 126.298C84.8949 125.633 85.017 125.047 85.2614 124.538C85.5085 124.027 85.8523 123.628 86.2926 123.341C86.7358 123.051 87.2528 122.906 87.8438 122.906C88.304 122.906 88.7188 122.991 89.0881 123.162C89.4574 123.332 89.7599 123.571 89.9957 123.878C90.2315 124.185 90.3778 124.543 90.4347 124.952H89.429C89.3523 124.653 89.1818 124.389 88.9176 124.159C88.6563 123.926 88.304 123.81 87.8608 123.81C87.4688 123.81 87.125 123.912 86.8295 124.116C86.5369 124.318 86.3082 124.604 86.1435 124.973C85.9815 125.339 85.9006 125.77 85.9006 126.264C85.9006 126.77 85.9801 127.21 86.1392 127.585C86.3011 127.96 86.5284 128.251 86.821 128.459C87.1165 128.666 87.4631 128.77 87.8608 128.77C88.1222 128.77 88.3594 128.724 88.5724 128.633C88.7855 128.543 88.9659 128.412 89.1136 128.241C89.2614 128.071 89.3665 127.866 89.429 127.628H90.4347C90.3778 128.014 90.2372 128.362 90.0128 128.672C89.7912 128.979 89.4972 129.223 89.1307 129.405C88.767 129.584 88.3438 129.673 87.8608 129.673ZM92.9105 125.599V129.537H91.9048V120.81H92.9105V124.014H92.9957C93.1491 123.676 93.3793 123.408 93.6861 123.209C93.9957 123.007 94.4077 122.906 94.9219 122.906C95.3679 122.906 95.7585 122.996 96.0938 123.175C96.429 123.351 96.6889 123.622 96.8736 123.989C97.0611 124.352 97.1548 124.815 97.1548 125.378V129.537H96.1491V125.446C96.1491 124.926 96.0142 124.524 95.7443 124.24C95.4773 123.953 95.1065 123.81 94.6321 123.81C94.3026 123.81 94.0071 123.879 93.7457 124.018C93.4872 124.158 93.2827 124.361 93.1321 124.628C92.9844 124.895 92.9105 125.219 92.9105 125.599ZM100.921 129.69C100.506 129.69 100.13 129.612 99.7915 129.456C99.4535 129.297 99.185 129.068 98.9862 128.77C98.7873 128.469 98.6879 128.105 98.6879 127.679C98.6879 127.304 98.7617 127 98.9094 126.767C99.0572 126.531 99.2546 126.347 99.5018 126.213C99.7489 126.079 100.022 125.98 100.32 125.915C100.621 125.847 100.924 125.793 101.228 125.753C101.625 125.702 101.948 125.663 102.195 125.638C102.445 125.609 102.627 125.562 102.74 125.497C102.857 125.432 102.915 125.318 102.915 125.156V125.122C102.915 124.702 102.8 124.375 102.57 124.142C102.343 123.909 101.998 123.793 101.534 123.793C101.054 123.793 100.678 123.898 100.405 124.108C100.132 124.318 99.9407 124.543 99.8299 124.781L98.8754 124.44C99.0458 124.043 99.2731 123.733 99.5572 123.511C99.8441 123.287 100.157 123.131 100.495 123.043C100.836 122.952 101.171 122.906 101.5 122.906C101.711 122.906 101.952 122.932 102.225 122.983C102.5 123.031 102.766 123.132 103.022 123.285C103.28 123.439 103.495 123.67 103.665 123.98C103.836 124.29 103.921 124.704 103.921 125.224V129.537H102.915V128.651H102.864C102.796 128.793 102.682 128.945 102.523 129.106C102.364 129.268 102.152 129.406 101.888 129.52C101.624 129.633 101.301 129.69 100.921 129.69ZM101.074 128.787C101.472 128.787 101.807 128.709 102.08 128.553C102.355 128.396 102.563 128.195 102.702 127.947C102.844 127.7 102.915 127.44 102.915 127.168V126.247C102.873 126.298 102.779 126.345 102.634 126.388C102.492 126.428 102.327 126.463 102.14 126.494C101.955 126.523 101.775 126.548 101.598 126.571C101.425 126.591 101.284 126.608 101.176 126.622C100.915 126.656 100.671 126.712 100.444 126.788C100.219 126.862 100.037 126.974 99.8981 127.125C99.7617 127.273 99.6935 127.474 99.6935 127.73C99.6935 128.079 99.8228 128.344 100.081 128.523C100.343 128.699 100.674 128.787 101.074 128.787ZM105.756 129.537V122.991H106.762V129.537H105.756ZM106.268 121.901C106.072 121.901 105.903 121.834 105.761 121.7C105.621 121.567 105.552 121.406 105.552 121.219C105.552 121.031 105.621 120.871 105.761 120.737C105.903 120.604 106.072 120.537 106.268 120.537C106.464 120.537 106.631 120.604 106.771 120.737C106.913 120.871 106.984 121.031 106.984 121.219C106.984 121.406 106.913 121.567 106.771 121.7C106.631 121.834 106.464 121.901 106.268 121.901ZM108.604 129.537V122.991H109.576V123.98H109.644C109.763 123.656 109.979 123.393 110.292 123.192C110.604 122.99 110.956 122.889 111.348 122.889C111.422 122.889 111.515 122.891 111.625 122.893C111.736 122.896 111.82 122.901 111.877 122.906V123.929C111.843 123.92 111.765 123.908 111.642 123.891C111.523 123.871 111.397 123.861 111.263 123.861C110.945 123.861 110.661 123.928 110.411 124.061C110.164 124.192 109.968 124.374 109.823 124.606C109.681 124.837 109.61 125.099 109.61 125.395V129.537H108.604Z" fill="#0F1F11"/>
<rect x="122" y="112.861" width="86" height="23.3776" rx="11.6888" fill="#D3E8D1"/>
<path d="M139.057 129.537V120.81H140.114V128.599H144.17V129.537H139.057ZM147.597 129.69C147.182 129.69 146.805 129.612 146.467 129.456C146.129 129.297 145.861 129.068 145.662 128.77C145.463 128.469 145.364 128.105 145.364 127.679C145.364 127.304 145.438 127 145.585 126.767C145.733 126.531 145.93 126.347 146.178 126.213C146.425 126.079 146.697 125.98 146.996 125.915C147.297 125.847 147.599 125.793 147.903 125.753C148.301 125.702 148.624 125.663 148.871 125.638C149.121 125.609 149.303 125.562 149.416 125.497C149.533 125.432 149.591 125.318 149.591 125.156V125.122C149.591 124.702 149.476 124.375 149.246 124.142C149.018 123.909 148.673 123.793 148.21 123.793C147.73 123.793 147.354 123.898 147.081 124.108C146.808 124.318 146.616 124.543 146.506 124.781L145.551 124.44C145.722 124.043 145.949 123.733 146.233 123.511C146.52 123.287 146.832 123.131 147.17 123.043C147.511 122.952 147.847 122.906 148.176 122.906C148.386 122.906 148.628 122.932 148.901 122.983C149.176 123.031 149.442 123.132 149.697 123.285C149.956 123.439 150.17 123.67 150.341 123.98C150.511 124.29 150.597 124.704 150.597 125.224V129.537H149.591V128.651H149.54C149.472 128.793 149.358 128.945 149.199 129.106C149.04 129.268 148.828 129.406 148.564 129.52C148.3 129.633 147.977 129.69 147.597 129.69ZM147.75 128.787C148.148 128.787 148.483 128.709 148.756 128.553C149.031 128.396 149.239 128.195 149.378 127.947C149.52 127.7 149.591 127.44 149.591 127.168V126.247C149.548 126.298 149.455 126.345 149.31 126.388C149.168 126.428 149.003 126.463 148.815 126.494C148.631 126.523 148.45 126.548 148.274 126.571C148.101 126.591 147.96 126.608 147.852 126.622C147.591 126.656 147.347 126.712 147.119 126.788C146.895 126.862 146.713 126.974 146.574 127.125C146.438 127.273 146.369 127.474 146.369 127.73C146.369 128.079 146.499 128.344 146.757 128.523C147.018 128.699 147.349 128.787 147.75 128.787ZM156.557 126.861V122.991H157.563V129.537H156.557V128.429H156.489C156.336 128.761 156.097 129.044 155.773 129.277C155.449 129.507 155.04 129.622 154.546 129.622C154.137 129.622 153.773 129.533 153.455 129.354C153.137 129.172 152.887 128.899 152.705 128.535C152.523 128.169 152.432 127.707 152.432 127.151V122.991H153.438V127.082C153.438 127.56 153.571 127.94 153.838 128.224C154.108 128.508 154.452 128.651 154.87 128.651C155.12 128.651 155.374 128.587 155.632 128.459C155.894 128.331 156.113 128.135 156.289 127.871C156.468 127.606 156.557 127.27 156.557 126.861ZM160.411 125.599V129.537H159.405V122.991H160.376V124.014H160.462C160.615 123.682 160.848 123.415 161.161 123.213C161.473 123.008 161.876 122.906 162.371 122.906C162.814 122.906 163.202 122.997 163.534 123.179C163.866 123.358 164.125 123.631 164.31 123.997C164.494 124.361 164.587 124.821 164.587 125.378V129.537H163.581V125.446C163.581 124.932 163.447 124.531 163.18 124.244C162.913 123.954 162.547 123.81 162.081 123.81C161.76 123.81 161.473 123.879 161.22 124.018C160.97 124.158 160.773 124.361 160.628 124.628C160.483 124.895 160.411 125.219 160.411 125.599ZM169.083 129.673C168.47 129.673 167.941 129.528 167.498 129.239C167.055 128.949 166.714 128.55 166.475 128.041C166.237 127.533 166.118 126.952 166.118 126.298C166.118 125.633 166.24 125.047 166.484 124.538C166.731 124.027 167.075 123.628 167.515 123.341C167.958 123.051 168.475 122.906 169.066 122.906C169.527 122.906 169.941 122.991 170.311 123.162C170.68 123.332 170.983 123.571 171.218 123.878C171.454 124.185 171.6 124.543 171.657 124.952H170.652C170.575 124.653 170.404 124.389 170.14 124.159C169.879 123.926 169.527 123.81 169.083 123.81C168.691 123.81 168.348 123.912 168.052 124.116C167.76 124.318 167.531 124.604 167.366 124.973C167.204 125.339 167.123 125.77 167.123 126.264C167.123 126.77 167.203 127.21 167.362 127.585C167.524 127.96 167.751 128.251 168.044 128.459C168.339 128.666 168.686 128.77 169.083 128.77C169.345 128.77 169.582 128.724 169.795 128.633C170.008 128.543 170.189 128.412 170.336 128.241C170.484 128.071 170.589 127.866 170.652 127.628H171.657C171.6 128.014 171.46 128.362 171.235 128.672C171.014 128.979 170.72 129.223 170.353 129.405C169.99 129.584 169.566 129.673 169.083 129.673ZM174.133 125.599V129.537H173.127V120.81H174.133V124.014H174.218C174.372 123.676 174.602 123.408 174.909 123.209C175.218 123.007 175.63 122.906 176.145 122.906C176.591 122.906 176.981 122.996 177.316 123.175C177.652 123.351 177.912 123.622 178.096 123.989C178.284 124.352 178.377 124.815 178.377 125.378V129.537H177.372V125.446C177.372 124.926 177.237 124.524 176.967 124.24C176.7 123.953 176.329 123.81 175.855 123.81C175.525 123.81 175.23 123.879 174.968 124.018C174.71 124.158 174.505 124.361 174.355 124.628C174.207 124.895 174.133 125.219 174.133 125.599ZM182.962 129.673C182.331 129.673 181.787 129.534 181.33 129.256C180.875 128.974 180.524 128.582 180.277 128.079C180.033 127.574 179.911 126.986 179.911 126.315C179.911 125.645 180.033 125.054 180.277 124.543C180.524 124.028 180.868 123.628 181.308 123.341C181.751 123.051 182.268 122.906 182.859 122.906C183.2 122.906 183.537 122.963 183.869 123.077C184.202 123.19 184.504 123.375 184.777 123.631C185.05 123.883 185.267 124.219 185.429 124.636C185.591 125.054 185.672 125.568 185.672 126.179V126.605H180.626V125.736H184.649C184.649 125.366 184.575 125.037 184.428 124.747C184.283 124.457 184.075 124.229 183.805 124.061C183.538 123.893 183.223 123.81 182.859 123.81C182.459 123.81 182.112 123.909 181.82 124.108C181.53 124.304 181.307 124.56 181.151 124.875C180.994 125.19 180.916 125.528 180.916 125.889V126.469C180.916 126.963 181.001 127.382 181.172 127.726C181.345 128.067 181.585 128.327 181.892 128.506C182.199 128.682 182.555 128.77 182.962 128.77C183.226 128.77 183.464 128.733 183.678 128.659C183.893 128.582 184.08 128.469 184.236 128.318C184.392 128.165 184.513 127.974 184.598 127.747L185.57 128.02C185.467 128.349 185.295 128.639 185.054 128.889C184.813 129.136 184.514 129.329 184.159 129.469C183.804 129.605 183.405 129.673 182.962 129.673ZM187.202 129.537V122.991H188.173V123.98H188.241C188.361 123.656 188.577 123.393 188.889 123.192C189.202 122.99 189.554 122.889 189.946 122.889C190.02 122.889 190.112 122.891 190.223 122.893C190.334 122.896 190.418 122.901 190.474 122.906V123.929C190.44 123.92 190.362 123.908 190.24 123.891C190.121 123.871 189.994 123.861 189.861 123.861C189.543 123.861 189.259 123.928 189.009 124.061C188.761 124.192 188.565 124.374 188.42 124.606C188.278 124.837 188.207 125.099 188.207 125.395V129.537H187.202Z" fill="#0F1F11"/>
<rect x="219" y="112.861" width="25" height="23.3776" rx="11.6888" fill="#B6F1BB"/>
<path d="M228.972 120.81V129.537H227.915V121.918H227.864L225.733 123.332V122.258L227.915 120.81H228.972ZM231.482 129.537V128.77L234.362 125.616C234.7 125.247 234.979 124.926 235.197 124.653C235.416 124.378 235.578 124.119 235.683 123.878C235.791 123.633 235.845 123.378 235.845 123.111C235.845 122.804 235.771 122.538 235.624 122.314C235.479 122.089 235.28 121.916 235.027 121.794C234.774 121.672 234.49 121.611 234.175 121.611C233.839 121.611 233.547 121.68 233.297 121.82C233.05 121.956 232.858 122.148 232.722 122.395C232.588 122.642 232.521 122.932 232.521 123.264H231.516C231.516 122.753 231.634 122.304 231.869 121.918C232.105 121.531 232.426 121.23 232.832 121.014C233.241 120.798 233.7 120.69 234.209 120.69C234.72 120.69 235.173 120.798 235.568 121.014C235.963 121.23 236.273 121.521 236.497 121.888C236.722 122.254 236.834 122.662 236.834 123.111C236.834 123.432 236.776 123.746 236.659 124.053C236.545 124.356 236.347 124.696 236.062 125.071C235.781 125.443 235.391 125.898 234.891 126.435L232.93 128.531V128.599H236.987V129.537H231.482Z" fill="#002109"/>
<rect x="255" y="112.861" width="25" height="23.3776" rx="11.6888" fill="#B6F1BB"/>
<path d="M268.972 120.81V129.537H267.915V121.918H267.864L265.733 123.332V122.258L267.915 120.81H268.972Z" fill="#002109"/>
<rect x="291" y="112.861" width="49" height="23.3776" rx="11.6888" fill="#BDEAF4"/>
<path d="M304.057 129.537V120.81H307.108C307.716 120.81 308.217 120.915 308.612 121.125C309.007 121.332 309.301 121.612 309.494 121.964C309.688 122.314 309.784 122.702 309.784 123.128C309.784 123.503 309.717 123.812 309.584 124.057C309.453 124.301 309.28 124.494 309.064 124.636C308.851 124.778 308.619 124.883 308.369 124.952V125.037C308.636 125.054 308.905 125.148 309.175 125.318C309.445 125.489 309.67 125.733 309.852 126.051C310.034 126.369 310.125 126.758 310.125 127.219C310.125 127.656 310.026 128.05 309.827 128.399C309.628 128.749 309.314 129.026 308.885 129.23C308.456 129.435 307.898 129.537 307.21 129.537H304.057ZM305.114 128.599H307.21C307.901 128.599 308.391 128.466 308.68 128.199C308.973 127.929 309.119 127.602 309.119 127.219C309.119 126.923 309.044 126.651 308.893 126.401C308.743 126.148 308.528 125.946 308.25 125.795C307.972 125.642 307.642 125.565 307.261 125.565H305.114V128.599ZM305.114 124.645H307.074C307.392 124.645 307.679 124.582 307.935 124.457C308.193 124.332 308.398 124.156 308.548 123.929C308.702 123.702 308.778 123.435 308.778 123.128C308.778 122.744 308.645 122.419 308.378 122.152C308.111 121.882 307.688 121.747 307.108 121.747H305.114V124.645ZM314.469 129.673C313.839 129.673 313.295 129.534 312.837 129.256C312.383 128.974 312.032 128.582 311.785 128.079C311.54 127.574 311.418 126.986 311.418 126.315C311.418 125.645 311.54 125.054 311.785 124.543C312.032 124.028 312.376 123.628 312.816 123.341C313.259 123.051 313.776 122.906 314.367 122.906C314.708 122.906 315.045 122.963 315.377 123.077C315.71 123.19 316.012 123.375 316.285 123.631C316.558 123.883 316.775 124.219 316.937 124.636C317.099 125.054 317.18 125.568 317.18 126.179V126.605H312.134V125.736H316.157C316.157 125.366 316.083 125.037 315.935 124.747C315.79 124.457 315.583 124.229 315.313 124.061C315.046 123.893 314.731 123.81 314.367 123.81C313.967 123.81 313.62 123.909 313.327 124.108C313.038 124.304 312.815 124.56 312.658 124.875C312.502 125.19 312.424 125.528 312.424 125.889V126.469C312.424 126.963 312.509 127.382 312.68 127.726C312.853 128.067 313.093 128.327 313.4 128.506C313.707 128.682 314.063 128.77 314.469 128.77C314.734 128.77 314.972 128.733 315.185 128.659C315.401 128.582 315.587 128.469 315.744 128.318C315.9 128.165 316.021 127.974 316.106 127.747L317.077 128.02C316.975 128.349 316.803 128.639 316.562 128.889C316.32 129.136 316.022 129.329 315.667 129.469C315.312 129.605 314.913 129.673 314.469 129.673ZM321.556 122.991V123.844H318.164V122.991H321.556ZM319.153 121.423H320.158V127.662C320.158 127.946 320.2 128.159 320.282 128.301C320.367 128.44 320.475 128.534 320.606 128.582C320.739 128.628 320.88 128.651 321.028 128.651C321.138 128.651 321.229 128.645 321.3 128.633C321.371 128.619 321.428 128.608 321.471 128.599L321.675 129.503C321.607 129.528 321.512 129.554 321.39 129.579C321.268 129.608 321.113 129.622 320.925 129.622C320.641 129.622 320.363 129.561 320.09 129.439C319.82 129.317 319.596 129.131 319.417 128.881C319.241 128.631 319.153 128.315 319.153 127.935V121.423ZM324.995 129.69C324.58 129.69 324.204 129.612 323.866 129.456C323.528 129.297 323.259 129.068 323.06 128.77C322.862 128.469 322.762 128.105 322.762 127.679C322.762 127.304 322.836 127 322.984 126.767C323.131 126.531 323.329 126.347 323.576 126.213C323.823 126.079 324.096 125.98 324.394 125.915C324.695 125.847 324.998 125.793 325.302 125.753C325.7 125.702 326.022 125.663 326.269 125.638C326.519 125.609 326.701 125.562 326.815 125.497C326.931 125.432 326.989 125.318 326.989 125.156V125.122C326.989 124.702 326.874 124.375 326.644 124.142C326.417 123.909 326.072 123.793 325.609 123.793C325.129 123.793 324.752 123.898 324.479 124.108C324.207 124.318 324.015 124.543 323.904 124.781L322.95 124.44C323.12 124.043 323.347 123.733 323.631 123.511C323.918 123.287 324.231 123.131 324.569 123.043C324.91 122.952 325.245 122.906 325.575 122.906C325.785 122.906 326.026 122.932 326.299 122.983C326.575 123.031 326.84 123.132 327.096 123.285C327.354 123.439 327.569 123.67 327.739 123.98C327.91 124.29 327.995 124.704 327.995 125.224V129.537H326.989V128.651H326.938C326.87 128.793 326.756 128.945 326.597 129.106C326.438 129.268 326.227 129.406 325.962 129.52C325.698 129.633 325.376 129.69 324.995 129.69ZM325.148 128.787C325.546 128.787 325.881 128.709 326.154 128.553C326.43 128.396 326.637 128.195 326.776 127.947C326.918 127.7 326.989 127.44 326.989 127.168V126.247C326.947 126.298 326.853 126.345 326.708 126.388C326.566 126.428 326.401 126.463 326.214 126.494C326.029 126.523 325.849 126.548 325.673 126.571C325.499 126.591 325.359 126.608 325.251 126.622C324.989 126.656 324.745 126.712 324.518 126.788C324.293 126.862 324.112 126.974 323.972 127.125C323.836 127.273 323.768 127.474 323.768 127.73C323.768 128.079 323.897 128.344 324.156 128.523C324.417 128.699 324.748 128.787 325.148 128.787Z" fill="#001F24"/>
<rect x="348" y="112.861" width="25" height="23.3776" rx="11.6888" fill="#BDEAF4"/>
<path d="M357.699 127.747V126.878L361.534 120.81H362.165V122.156H361.739L358.841 126.741V126.81H364.006V127.747H357.699ZM361.807 129.537V127.483V127.078V120.81H362.812V129.537H361.807Z" fill="#001F24"/>
<path d="M231.646 163.354C231.842 163.549 232.158 163.549 232.354 163.354L235.536 160.172C235.731 159.976 235.731 159.66 235.536 159.464C235.34 159.269 235.024 159.269 234.828 159.464L232 162.293L229.172 159.464C228.976 159.269 228.66 159.269 228.464 159.464C228.269 159.66 228.269 159.976 228.464 160.172L231.646 163.354ZM231.5 145L231.5 163L232.5 163L232.5 145L231.5 145Z" fill="black"/>
<path d="M268.354 88.6464C268.158 88.4512 267.842 88.4512 267.646 88.6464L264.464 91.8284C264.269 92.0237 264.269 92.3403 264.464 92.5355C264.66 92.7308 264.976 92.7308 265.172 92.5355L268 89.7071L270.828 92.5355C271.024 92.7308 271.34 92.7308 271.536 92.5355C271.731 92.3403 271.731 92.0237 271.536 91.8284L268.354 88.6464ZM268.5 105L268.5 89L267.5 89L267.5 105L268.5 105Z" fill="black"/>
<path d="M193.415 180H192.307L195.511 171.273H196.602L199.807 180H198.699L196.091 172.653H196.023L193.415 180ZM193.824 176.591H198.29V177.528H193.824V176.591ZM202.036 176.062V180H201.03V173.455H202.001V174.477H202.087C202.24 174.145 202.473 173.878 202.786 173.676C203.098 173.472 203.501 173.369 203.996 173.369C204.439 173.369 204.827 173.46 205.159 173.642C205.491 173.821 205.75 174.094 205.935 174.46C206.119 174.824 206.212 175.284 206.212 175.841V180H205.206V175.909C205.206 175.395 205.072 174.994 204.805 174.707C204.538 174.418 204.172 174.273 203.706 174.273C203.385 174.273 203.098 174.342 202.845 174.482C202.595 174.621 202.398 174.824 202.253 175.091C202.108 175.358 202.036 175.682 202.036 176.062ZM210.521 180.136C209.975 180.136 209.494 179.999 209.076 179.723C208.659 179.445 208.332 179.053 208.096 178.547C207.86 178.038 207.743 177.438 207.743 176.744C207.743 176.057 207.86 175.46 208.096 174.955C208.332 174.449 208.66 174.058 209.081 173.783C209.501 173.507 209.987 173.369 210.538 173.369C210.964 173.369 211.301 173.44 211.548 173.582C211.798 173.722 211.988 173.881 212.119 174.06C212.252 174.236 212.356 174.381 212.43 174.494H212.515V171.273H213.521V180H212.549V178.994H212.43C212.356 179.114 212.251 179.264 212.115 179.446C211.978 179.625 211.784 179.786 211.531 179.928C211.278 180.067 210.941 180.136 210.521 180.136ZM210.657 179.233C211.061 179.233 211.402 179.128 211.68 178.918C211.958 178.705 212.17 178.411 212.315 178.036C212.46 177.658 212.532 177.222 212.532 176.727C212.532 176.239 212.461 175.811 212.319 175.445C212.177 175.075 211.967 174.788 211.689 174.584C211.41 174.376 211.066 174.273 210.657 174.273C210.231 174.273 209.876 174.382 209.592 174.601C209.311 174.817 209.099 175.111 208.957 175.483C208.818 175.852 208.748 176.267 208.748 176.727C208.748 177.193 208.819 177.616 208.961 177.997C209.106 178.375 209.319 178.676 209.6 178.901C209.885 179.122 210.237 179.233 210.657 179.233ZM215.502 180V173.455H216.474V174.443H216.542C216.662 174.119 216.877 173.857 217.19 173.655C217.502 173.453 217.855 173.352 218.247 173.352C218.321 173.352 218.413 173.354 218.524 173.357C218.635 173.359 218.718 173.364 218.775 173.369V174.392C218.741 174.384 218.663 174.371 218.541 174.354C218.422 174.334 218.295 174.324 218.162 174.324C217.843 174.324 217.559 174.391 217.309 174.524C217.062 174.655 216.866 174.837 216.721 175.07C216.579 175.3 216.508 175.562 216.508 175.858V180H215.502ZM222.427 180.136C221.836 180.136 221.318 179.996 220.872 179.714C220.429 179.433 220.082 179.04 219.832 178.534C219.585 178.028 219.461 177.437 219.461 176.761C219.461 176.08 219.585 175.484 219.832 174.976C220.082 174.467 220.429 174.072 220.872 173.791C221.318 173.51 221.836 173.369 222.427 173.369C223.018 173.369 223.535 173.51 223.978 173.791C224.424 174.072 224.771 174.467 225.018 174.976C225.268 175.484 225.393 176.08 225.393 176.761C225.393 177.437 225.268 178.028 225.018 178.534C224.771 179.04 224.424 179.433 223.978 179.714C223.535 179.996 223.018 180.136 222.427 180.136ZM222.427 179.233C222.876 179.233 223.245 179.118 223.535 178.888C223.825 178.658 224.039 178.355 224.179 177.98C224.318 177.605 224.387 177.199 224.387 176.761C224.387 176.324 224.318 175.916 224.179 175.538C224.039 175.161 223.825 174.855 223.535 174.622C223.245 174.389 222.876 174.273 222.427 174.273C221.978 174.273 221.609 174.389 221.319 174.622C221.029 174.855 220.815 175.161 220.676 175.538C220.537 175.916 220.467 176.324 220.467 176.761C220.467 177.199 220.537 177.605 220.676 177.98C220.815 178.355 221.029 178.658 221.319 178.888C221.609 179.118 221.978 179.233 222.427 179.233ZM226.928 180V173.455H227.934V180H226.928ZM227.44 172.364C227.244 172.364 227.075 172.297 226.933 172.163C226.793 172.03 226.724 171.869 226.724 171.682C226.724 171.494 226.793 171.334 226.933 171.2C227.075 171.067 227.244 171 227.44 171C227.636 171 227.803 171.067 227.942 171.2C228.085 171.334 228.156 171.494 228.156 171.682C228.156 171.869 228.085 172.03 227.942 172.163C227.803 172.297 227.636 172.364 227.44 172.364ZM232.248 180.136C231.702 180.136 231.221 179.999 230.803 179.723C230.385 179.445 230.059 179.053 229.823 178.547C229.587 178.038 229.469 177.438 229.469 176.744C229.469 176.057 229.587 175.46 229.823 174.955C230.059 174.449 230.387 174.058 230.807 173.783C231.228 173.507 231.713 173.369 232.265 173.369C232.691 173.369 233.027 173.44 233.275 173.582C233.525 173.722 233.715 173.881 233.846 174.06C233.979 174.236 234.083 174.381 234.157 174.494H234.242V171.273H235.248V180H234.276V178.994H234.157C234.083 179.114 233.978 179.264 233.841 179.446C233.705 179.625 233.51 179.786 233.257 179.928C233.005 180.067 232.668 180.136 232.248 180.136ZM232.384 179.233C232.787 179.233 233.128 179.128 233.407 178.918C233.685 178.705 233.897 178.411 234.042 178.036C234.186 177.658 234.259 177.222 234.259 176.727C234.259 176.239 234.188 175.811 234.046 175.445C233.904 175.075 233.694 174.788 233.415 174.584C233.137 174.376 232.793 174.273 232.384 174.273C231.958 174.273 231.603 174.382 231.319 174.601C231.037 174.817 230.826 175.111 230.684 175.483C230.544 175.852 230.475 176.267 230.475 176.727C230.475 177.193 230.546 177.616 230.688 177.997C230.833 178.375 231.046 178.676 231.327 178.901C231.611 179.122 231.963 179.233 232.384 179.233ZM240.74 171.273H242.002L244.968 178.517H245.07L248.036 171.273H249.297V180H248.309V173.369H248.223L245.496 180H244.542L241.814 173.369H241.729V180H240.74V171.273ZM253.206 180.153C252.791 180.153 252.415 180.075 252.077 179.919C251.739 179.76 251.47 179.531 251.271 179.233C251.072 178.932 250.973 178.568 250.973 178.142C250.973 177.767 251.047 177.463 251.195 177.23C251.342 176.994 251.54 176.81 251.787 176.676C252.034 176.543 252.307 176.443 252.605 176.378C252.906 176.31 253.209 176.256 253.513 176.216C253.911 176.165 254.233 176.126 254.48 176.101C254.73 176.072 254.912 176.026 255.026 175.96C255.142 175.895 255.2 175.781 255.2 175.619V175.585C255.2 175.165 255.085 174.838 254.855 174.605C254.628 174.372 254.283 174.256 253.82 174.256C253.339 174.256 252.963 174.361 252.69 174.571C252.418 174.781 252.226 175.006 252.115 175.244L251.161 174.903C251.331 174.506 251.558 174.196 251.842 173.974C252.129 173.75 252.442 173.594 252.78 173.506C253.121 173.415 253.456 173.369 253.786 173.369C253.996 173.369 254.237 173.395 254.51 173.446C254.786 173.494 255.051 173.595 255.307 173.749C255.565 173.902 255.78 174.134 255.95 174.443C256.121 174.753 256.206 175.168 256.206 175.688V180H255.2V179.114H255.149C255.081 179.256 254.967 179.408 254.808 179.57C254.649 179.732 254.438 179.869 254.173 179.983C253.909 180.097 253.587 180.153 253.206 180.153ZM253.359 179.25C253.757 179.25 254.092 179.172 254.365 179.016C254.641 178.859 254.848 178.658 254.987 178.411C255.129 178.163 255.2 177.903 255.2 177.631V176.71C255.158 176.761 255.064 176.808 254.919 176.851C254.777 176.891 254.612 176.926 254.425 176.957C254.24 176.986 254.06 177.011 253.884 177.034C253.71 177.054 253.57 177.071 253.462 177.085C253.2 177.119 252.956 177.175 252.729 177.251C252.504 177.325 252.322 177.437 252.183 177.588C252.047 177.736 251.979 177.937 251.979 178.193C251.979 178.543 252.108 178.807 252.366 178.986C252.628 179.162 252.959 179.25 253.359 179.25ZM258.042 173.455H259.047V180.477C259.047 180.881 258.978 181.23 258.838 181.526C258.702 181.821 258.495 182.05 258.216 182.212C257.941 182.374 257.593 182.455 257.172 182.455C257.138 182.455 257.104 182.455 257.07 182.455C257.036 182.455 257.002 182.455 256.968 182.455V181.517C257.002 181.517 257.033 181.517 257.061 181.517C257.09 181.517 257.121 181.517 257.155 181.517C257.462 181.517 257.686 181.426 257.828 181.244C257.971 181.065 258.042 180.81 258.042 180.477V173.455ZM258.536 172.364C258.34 172.364 258.171 172.297 258.029 172.163C257.89 172.03 257.82 171.869 257.82 171.682C257.82 171.494 257.89 171.334 258.029 171.2C258.171 171.067 258.34 171 258.536 171C258.732 171 258.9 171.067 259.039 171.2C259.181 171.334 259.252 171.494 259.252 171.682C259.252 171.869 259.181 172.03 259.039 172.163C258.9 172.297 258.732 172.364 258.536 172.364ZM263.548 180.136C262.957 180.136 262.439 179.996 261.993 179.714C261.55 179.433 261.203 179.04 260.953 178.534C260.706 178.028 260.582 177.437 260.582 176.761C260.582 176.08 260.706 175.484 260.953 174.976C261.203 174.467 261.55 174.072 261.993 173.791C262.439 173.51 262.957 173.369 263.548 173.369C264.139 173.369 264.656 173.51 265.099 173.791C265.545 174.072 265.892 174.467 266.139 174.976C266.389 175.484 266.514 176.08 266.514 176.761C266.514 177.437 266.389 178.028 266.139 178.534C265.892 179.04 265.545 179.433 265.099 179.714C264.656 179.996 264.139 180.136 263.548 180.136ZM263.548 179.233C263.997 179.233 264.366 179.118 264.656 178.888C264.946 178.658 265.161 178.355 265.3 177.98C265.439 177.605 265.509 177.199 265.509 176.761C265.509 176.324 265.439 175.916 265.3 175.538C265.161 175.161 264.946 174.855 264.656 174.622C264.366 174.389 263.997 174.273 263.548 174.273C263.099 174.273 262.73 174.389 262.44 174.622C262.151 174.855 261.936 175.161 261.797 175.538C261.658 175.916 261.588 176.324 261.588 176.761C261.588 177.199 261.658 177.605 261.797 177.98C261.936 178.355 262.151 178.658 262.44 178.888C262.73 179.118 263.099 179.233 263.548 179.233ZM268.049 180V173.455H269.021V174.443H269.089C269.208 174.119 269.424 173.857 269.737 173.655C270.049 173.453 270.402 173.352 270.794 173.352C270.868 173.352 270.96 173.354 271.071 173.357C271.181 173.359 271.265 173.364 271.322 173.369V174.392C271.288 174.384 271.21 174.371 271.088 174.354C270.968 174.334 270.842 174.324 270.708 174.324C270.39 174.324 270.106 174.391 269.856 174.524C269.609 174.655 269.413 174.837 269.268 175.07C269.126 175.3 269.055 175.562 269.055 175.858V180H268.049Z" fill="#002109"/>
<path d="M229.415 82H228.307L231.511 73.2727H232.602L235.807 82H234.699L232.091 74.6534H232.023L229.415 82ZM229.824 78.5909H234.29V79.5284H229.824V78.5909ZM238.036 78.0625V82H237.03V75.4545H238.001V76.4773H238.087C238.24 76.1449 238.473 75.8778 238.786 75.6761C239.098 75.4716 239.501 75.3693 239.996 75.3693C240.439 75.3693 240.827 75.4602 241.159 75.642C241.491 75.821 241.75 76.0938 241.935 76.4602C242.119 76.8239 242.212 77.2841 242.212 77.8409V82H241.206V77.9091C241.206 77.3949 241.072 76.9943 240.805 76.7074C240.538 76.4176 240.172 76.2727 239.706 76.2727C239.385 76.2727 239.098 76.3423 238.845 76.4815C238.595 76.6207 238.398 76.8239 238.253 77.0909C238.108 77.358 238.036 77.6818 238.036 78.0625ZM246.521 82.1364C245.975 82.1364 245.494 81.9986 245.076 81.723C244.659 81.4446 244.332 81.0526 244.096 80.5469C243.86 80.0384 243.743 79.4375 243.743 78.7443C243.743 78.0568 243.86 77.4602 244.096 76.9545C244.332 76.4489 244.66 76.0582 245.081 75.7827C245.501 75.5071 245.987 75.3693 246.538 75.3693C246.964 75.3693 247.301 75.4403 247.548 75.5824C247.798 75.7216 247.988 75.8807 248.119 76.0597C248.252 76.2358 248.356 76.3807 248.43 76.4943H248.515V73.2727H249.521V82H248.549V80.9943H248.43C248.356 81.1136 248.251 81.2642 248.115 81.446C247.978 81.625 247.784 81.7855 247.531 81.9276C247.278 82.0668 246.941 82.1364 246.521 82.1364ZM246.657 81.233C247.061 81.233 247.402 81.1278 247.68 80.9176C247.958 80.7045 248.17 80.4105 248.315 80.0355C248.46 79.6577 248.532 79.2216 248.532 78.7273C248.532 78.2386 248.461 77.8111 248.319 77.4446C248.177 77.0753 247.967 76.7884 247.689 76.5838C247.41 76.3764 247.066 76.2727 246.657 76.2727C246.231 76.2727 245.876 76.3821 245.592 76.6009C245.311 76.8168 245.099 77.1108 244.957 77.483C244.818 77.8523 244.748 78.267 244.748 78.7273C244.748 79.1932 244.819 79.6165 244.961 79.9972C245.106 80.375 245.319 80.6761 245.6 80.9006C245.885 81.1222 246.237 81.233 246.657 81.233ZM251.502 82V75.4545H252.474V76.4432H252.542C252.662 76.1193 252.877 75.8565 253.19 75.6548C253.502 75.4531 253.855 75.3523 254.247 75.3523C254.321 75.3523 254.413 75.3537 254.524 75.3565C254.635 75.3594 254.718 75.3636 254.775 75.3693V76.392C254.741 76.3835 254.663 76.3707 254.541 76.3537C254.422 76.3338 254.295 76.3239 254.162 76.3239C253.843 76.3239 253.559 76.3906 253.309 76.5241C253.062 76.6548 252.866 76.8366 252.721 77.0696C252.579 77.2997 252.508 77.5625 252.508 77.858V82H251.502ZM258.427 82.1364C257.836 82.1364 257.318 81.9957 256.872 81.7145C256.429 81.4332 256.082 81.0398 255.832 80.5341C255.585 80.0284 255.461 79.4375 255.461 78.7614C255.461 78.0795 255.585 77.4844 255.832 76.9759C256.082 76.4673 256.429 76.0724 256.872 75.7912C257.318 75.5099 257.836 75.3693 258.427 75.3693C259.018 75.3693 259.535 75.5099 259.978 75.7912C260.424 76.0724 260.771 76.4673 261.018 76.9759C261.268 77.4844 261.393 78.0795 261.393 78.7614C261.393 79.4375 261.268 80.0284 261.018 80.5341C260.771 81.0398 260.424 81.4332 259.978 81.7145C259.535 81.9957 259.018 82.1364 258.427 82.1364ZM258.427 81.233C258.876 81.233 259.245 81.1179 259.535 80.8878C259.825 80.6577 260.039 80.3551 260.179 79.9801C260.318 79.6051 260.387 79.1989 260.387 78.7614C260.387 78.3239 260.318 77.9162 260.179 77.5384C260.039 77.1605 259.825 76.8551 259.535 76.6222C259.245 76.3892 258.876 76.2727 258.427 76.2727C257.978 76.2727 257.609 76.3892 257.319 76.6222C257.029 76.8551 256.815 77.1605 256.676 77.5384C256.537 77.9162 256.467 78.3239 256.467 78.7614C256.467 79.1989 256.537 79.6051 256.676 79.9801C256.815 80.3551 257.029 80.6577 257.319 80.8878C257.609 81.1179 257.978 81.233 258.427 81.233ZM262.928 82V75.4545H263.934V82H262.928ZM263.44 74.3636C263.244 74.3636 263.075 74.2969 262.933 74.1634C262.793 74.0298 262.724 73.8693 262.724 73.6818C262.724 73.4943 262.793 73.3338 262.933 73.2003C263.075 73.0668 263.244 73 263.44 73C263.636 73 263.803 73.0668 263.942 73.2003C264.085 73.3338 264.156 73.4943 264.156 73.6818C264.156 73.8693 264.085 74.0298 263.942 74.1634C263.803 74.2969 263.636 74.3636 263.44 74.3636ZM268.248 82.1364C267.702 82.1364 267.221 81.9986 266.803 81.723C266.385 81.4446 266.059 81.0526 265.823 80.5469C265.587 80.0384 265.469 79.4375 265.469 78.7443C265.469 78.0568 265.587 77.4602 265.823 76.9545C266.059 76.4489 266.387 76.0582 266.807 75.7827C267.228 75.5071 267.713 75.3693 268.265 75.3693C268.691 75.3693 269.027 75.4403 269.275 75.5824C269.525 75.7216 269.715 75.8807 269.846 76.0597C269.979 76.2358 270.083 76.3807 270.157 76.4943H270.242V73.2727H271.248V82H270.276V80.9943H270.157C270.083 81.1136 269.978 81.2642 269.841 81.446C269.705 81.625 269.51 81.7855 269.257 81.9276C269.005 82.0668 268.668 82.1364 268.248 82.1364ZM268.384 81.233C268.787 81.233 269.128 81.1278 269.407 80.9176C269.685 80.7045 269.897 80.4105 270.042 80.0355C270.186 79.6577 270.259 79.2216 270.259 78.7273C270.259 78.2386 270.188 77.8111 270.046 77.4446C269.904 77.0753 269.694 76.7884 269.415 76.5838C269.137 76.3764 268.793 76.2727 268.384 76.2727C267.958 76.2727 267.603 76.3821 267.319 76.6009C267.037 76.8168 266.826 77.1108 266.684 77.483C266.544 77.8523 266.475 78.267 266.475 78.7273C266.475 79.1932 266.546 79.6165 266.688 79.9972C266.833 80.375 267.046 80.6761 267.327 80.9006C267.611 81.1222 267.963 81.233 268.384 81.233ZM276.74 73.2727H278.002L280.968 80.517H281.07L284.036 73.2727H285.297V82H284.309V75.3693H284.223L281.496 82H280.542L277.814 75.3693H277.729V82H276.74V73.2727ZM287.28 82V75.4545H288.286V82H287.28ZM287.791 74.3636C287.595 74.3636 287.426 74.2969 287.284 74.1634C287.145 74.0298 287.075 73.8693 287.075 73.6818C287.075 73.4943 287.145 73.3338 287.284 73.2003C287.426 73.0668 287.595 73 287.791 73C287.987 73 288.155 73.0668 288.294 73.2003C288.436 73.3338 288.507 73.4943 288.507 73.6818C288.507 73.8693 288.436 74.0298 288.294 74.1634C288.155 74.2969 287.987 74.3636 287.791 74.3636ZM291.133 78.0625V82H290.127V75.4545H291.099V76.4773H291.184C291.338 76.1449 291.571 75.8778 291.883 75.6761C292.196 75.4716 292.599 75.3693 293.093 75.3693C293.537 75.3693 293.924 75.4602 294.257 75.642C294.589 75.821 294.848 76.0938 295.032 76.4602C295.217 76.8239 295.309 77.2841 295.309 77.8409V82H294.304V77.9091C294.304 77.3949 294.17 76.9943 293.903 76.7074C293.636 76.4176 293.27 76.2727 292.804 76.2727C292.483 76.2727 292.196 76.3423 291.943 76.4815C291.693 76.6207 291.495 76.8239 291.35 77.0909C291.206 77.358 291.133 77.6818 291.133 78.0625ZM299.806 82.1364C299.215 82.1364 298.697 81.9957 298.251 81.7145C297.808 81.4332 297.461 81.0398 297.211 80.5341C296.964 80.0284 296.84 79.4375 296.84 78.7614C296.84 78.0795 296.964 77.4844 297.211 76.9759C297.461 76.4673 297.808 76.0724 298.251 75.7912C298.697 75.5099 299.215 75.3693 299.806 75.3693C300.397 75.3693 300.914 75.5099 301.357 75.7912C301.803 76.0724 302.15 76.4673 302.397 76.9759C302.647 77.4844 302.772 78.0795 302.772 78.7614C302.772 79.4375 302.647 80.0284 302.397 80.5341C302.15 81.0398 301.803 81.4332 301.357 81.7145C300.914 81.9957 300.397 82.1364 299.806 82.1364ZM299.806 81.233C300.255 81.233 300.624 81.1179 300.914 80.8878C301.204 80.6577 301.418 80.3551 301.558 79.9801C301.697 79.6051 301.766 79.1989 301.766 78.7614C301.766 78.3239 301.697 77.9162 301.558 77.5384C301.418 77.1605 301.204 76.8551 300.914 76.6222C300.624 76.3892 300.255 76.2727 299.806 76.2727C299.357 76.2727 298.988 76.3892 298.698 76.6222C298.408 76.8551 298.194 77.1605 298.055 77.5384C297.915 77.9162 297.846 78.3239 297.846 78.7614C297.846 79.1989 297.915 79.6051 298.055 79.9801C298.194 80.3551 298.408 80.6577 298.698 80.8878C298.988 81.1179 299.357 81.233 299.806 81.233ZM304.307 82V75.4545H305.279V76.4432H305.347C305.466 76.1193 305.682 75.8565 305.995 75.6548C306.307 75.4531 306.659 75.3523 307.051 75.3523C307.125 75.3523 307.218 75.3537 307.328 75.3565C307.439 75.3594 307.523 75.3636 307.58 75.3693V76.392C307.546 76.3835 307.468 76.3707 307.346 76.3537C307.226 76.3338 307.1 76.3239 306.966 76.3239C306.648 76.3239 306.364 76.3906 306.114 76.5241C305.867 76.6548 305.671 76.8366 305.526 77.0696C305.384 77.2997 305.313 77.5625 305.313 77.858V82H304.307Z" fill="#002109"/>
<path d="M360.646 189.354C360.842 189.549 361.158 189.549 361.354 189.354L364.536 186.172C364.731 185.976 364.731 185.66 364.536 185.464C364.34 185.269 364.024 185.269 363.828 185.464L361 188.293L358.172 185.464C357.976 185.269 357.66 185.269 357.464 185.464C357.269 185.66 357.269 185.976 357.464 186.172L360.646 189.354ZM360.5 144L360.5 189L361.5 189L361.5 144L360.5 144Z" fill="black"/>
<path d="M303.75 209H301.057V200.273H303.869C304.716 200.273 305.44 200.447 306.043 200.797C306.645 201.143 307.107 201.642 307.428 202.293C307.749 202.94 307.909 203.716 307.909 204.619C307.909 205.528 307.747 206.311 307.423 206.967C307.099 207.621 306.628 208.124 306.009 208.476C305.389 208.825 304.636 209 303.75 209ZM302.114 208.062H303.682C304.403 208.062 305.001 207.923 305.476 207.645C305.95 207.366 306.304 206.97 306.537 206.456C306.77 205.942 306.886 205.33 306.886 204.619C306.886 203.915 306.771 203.308 306.541 202.8C306.311 202.288 305.967 201.896 305.51 201.624C305.053 201.348 304.483 201.21 303.801 201.21H302.114V208.062ZM312.29 209.136C311.659 209.136 311.115 208.997 310.658 208.719C310.203 208.438 309.852 208.045 309.605 207.543C309.361 207.037 309.239 206.449 309.239 205.778C309.239 205.108 309.361 204.517 309.605 204.006C309.852 203.491 310.196 203.091 310.636 202.804C311.08 202.514 311.597 202.369 312.188 202.369C312.528 202.369 312.865 202.426 313.197 202.54C313.53 202.653 313.832 202.838 314.105 203.094C314.378 203.347 314.595 203.682 314.757 204.099C314.919 204.517 315 205.031 315 205.642V206.068H309.955V205.199H313.977C313.977 204.83 313.903 204.5 313.756 204.21C313.611 203.92 313.403 203.692 313.134 203.524C312.866 203.357 312.551 203.273 312.188 203.273C311.787 203.273 311.44 203.372 311.148 203.571C310.858 203.767 310.635 204.023 310.479 204.338C310.322 204.653 310.244 204.991 310.244 205.352V205.932C310.244 206.426 310.33 206.845 310.5 207.189C310.673 207.53 310.913 207.79 311.22 207.969C311.527 208.145 311.884 208.233 312.29 208.233C312.554 208.233 312.793 208.196 313.006 208.122C313.222 208.045 313.408 207.932 313.564 207.781C313.72 207.628 313.841 207.437 313.926 207.21L314.898 207.483C314.795 207.812 314.624 208.102 314.382 208.352C314.141 208.599 313.842 208.793 313.487 208.932C313.132 209.068 312.733 209.136 312.29 209.136ZM321.683 202.455L319.262 209H318.24L315.819 202.455H316.91L318.717 207.67H318.785L320.592 202.455H321.683ZM325.52 209.136C324.89 209.136 324.346 208.997 323.888 208.719C323.434 208.438 323.083 208.045 322.836 207.543C322.591 207.037 322.469 206.449 322.469 205.778C322.469 205.108 322.591 204.517 322.836 204.006C323.083 203.491 323.426 203.091 323.867 202.804C324.31 202.514 324.827 202.369 325.418 202.369C325.759 202.369 326.096 202.426 326.428 202.54C326.76 202.653 327.063 202.838 327.336 203.094C327.608 203.347 327.826 203.682 327.988 204.099C328.15 204.517 328.23 205.031 328.23 205.642V206.068H323.185V205.199H327.208C327.208 204.83 327.134 204.5 326.986 204.21C326.841 203.92 326.634 203.692 326.364 203.524C326.097 203.357 325.782 203.273 325.418 203.273C325.017 203.273 324.671 203.372 324.378 203.571C324.088 203.767 323.865 204.023 323.709 204.338C323.553 204.653 323.475 204.991 323.475 205.352V205.932C323.475 206.426 323.56 206.845 323.73 207.189C323.904 207.53 324.144 207.79 324.451 207.969C324.757 208.145 325.114 208.233 325.52 208.233C325.784 208.233 326.023 208.196 326.236 208.122C326.452 208.045 326.638 207.932 326.794 207.781C326.951 207.628 327.071 207.437 327.157 207.21L328.128 207.483C328.026 207.812 327.854 208.102 327.613 208.352C327.371 208.599 327.073 208.793 326.718 208.932C326.363 209.068 325.963 209.136 325.52 209.136ZM330.766 200.273V209H329.76V200.273H330.766ZM335.267 209.136C334.676 209.136 334.158 208.996 333.712 208.714C333.268 208.433 332.922 208.04 332.672 207.534C332.425 207.028 332.301 206.437 332.301 205.761C332.301 205.08 332.425 204.484 332.672 203.976C332.922 203.467 333.268 203.072 333.712 202.791C334.158 202.51 334.676 202.369 335.267 202.369C335.858 202.369 336.375 202.51 336.818 202.791C337.264 203.072 337.611 203.467 337.858 203.976C338.108 204.484 338.233 205.08 338.233 205.761C338.233 206.437 338.108 207.028 337.858 207.534C337.611 208.04 337.264 208.433 336.818 208.714C336.375 208.996 335.858 209.136 335.267 209.136ZM335.267 208.233C335.716 208.233 336.085 208.118 336.375 207.888C336.665 207.658 336.879 207.355 337.018 206.98C337.158 206.605 337.227 206.199 337.227 205.761C337.227 205.324 337.158 204.916 337.018 204.538C336.879 204.161 336.665 203.855 336.375 203.622C336.085 203.389 335.716 203.273 335.267 203.273C334.818 203.273 334.449 203.389 334.159 203.622C333.869 203.855 333.655 204.161 333.516 204.538C333.376 204.916 333.307 205.324 333.307 205.761C333.307 206.199 333.376 206.605 333.516 206.98C333.655 207.355 333.869 207.658 334.159 207.888C334.449 208.118 334.818 208.233 335.267 208.233ZM339.768 211.455V202.455H340.74V203.494H340.859C340.933 203.381 341.035 203.236 341.166 203.06C341.299 202.881 341.49 202.722 341.737 202.582C341.987 202.44 342.325 202.369 342.751 202.369C343.302 202.369 343.788 202.507 344.208 202.783C344.629 203.058 344.957 203.449 345.193 203.955C345.429 204.46 345.547 205.057 345.547 205.744C345.547 206.438 345.429 207.038 345.193 207.547C344.957 208.053 344.63 208.445 344.213 208.723C343.795 208.999 343.314 209.136 342.768 209.136C342.348 209.136 342.011 209.067 341.758 208.928C341.505 208.786 341.311 208.625 341.174 208.446C341.038 208.264 340.933 208.114 340.859 207.994H340.774V211.455H339.768ZM340.757 205.727C340.757 206.222 340.829 206.658 340.974 207.036C341.119 207.411 341.331 207.705 341.609 207.918C341.887 208.128 342.228 208.233 342.632 208.233C343.052 208.233 343.403 208.122 343.684 207.901C343.968 207.676 344.181 207.375 344.324 206.997C344.468 206.616 344.541 206.193 344.541 205.727C344.541 205.267 344.47 204.852 344.328 204.483C344.189 204.111 343.977 203.817 343.693 203.601C343.412 203.382 343.058 203.273 342.632 203.273C342.223 203.273 341.879 203.376 341.6 203.584C341.322 203.788 341.112 204.075 340.97 204.445C340.828 204.811 340.757 205.239 340.757 205.727ZM347.081 209V202.455H348.052V203.477H348.137C348.274 203.128 348.494 202.857 348.798 202.663C349.102 202.467 349.467 202.369 349.893 202.369C350.325 202.369 350.684 202.467 350.971 202.663C351.261 202.857 351.487 203.128 351.649 203.477H351.717C351.885 203.139 352.136 202.871 352.471 202.672C352.806 202.47 353.208 202.369 353.677 202.369C354.262 202.369 354.741 202.553 355.113 202.919C355.485 203.283 355.672 203.849 355.672 204.619V209H354.666V204.619C354.666 204.136 354.534 203.791 354.27 203.584C354.005 203.376 353.694 203.273 353.336 203.273C352.876 203.273 352.52 203.412 352.267 203.69C352.014 203.966 351.887 204.315 351.887 204.739V209H350.865V204.517C350.865 204.145 350.744 203.845 350.502 203.618C350.261 203.388 349.95 203.273 349.569 203.273C349.308 203.273 349.064 203.342 348.836 203.482C348.612 203.621 348.43 203.814 348.291 204.061C348.154 204.305 348.086 204.588 348.086 204.909V209H347.081ZM360.255 209.136C359.624 209.136 359.08 208.997 358.623 208.719C358.168 208.438 357.817 208.045 357.57 207.543C357.326 207.037 357.203 206.449 357.203 205.778C357.203 205.108 357.326 204.517 357.57 204.006C357.817 203.491 358.161 203.091 358.601 202.804C359.044 202.514 359.561 202.369 360.152 202.369C360.493 202.369 360.83 202.426 361.162 202.54C361.495 202.653 361.797 202.838 362.07 203.094C362.343 203.347 362.56 203.682 362.722 204.099C362.884 204.517 362.965 205.031 362.965 205.642V206.068H357.919V205.199H361.942C361.942 204.83 361.868 204.5 361.721 204.21C361.576 203.92 361.368 203.692 361.098 203.524C360.831 203.357 360.516 203.273 360.152 203.273C359.752 203.273 359.405 203.372 359.113 203.571C358.823 203.767 358.6 204.023 358.444 204.338C358.287 204.653 358.209 204.991 358.209 205.352V205.932C358.209 206.426 358.294 206.845 358.465 207.189C358.638 207.53 358.878 207.79 359.185 207.969C359.492 208.145 359.848 208.233 360.255 208.233C360.519 208.233 360.757 208.196 360.971 208.122C361.186 208.045 361.373 207.932 361.529 207.781C361.685 207.628 361.806 207.437 361.891 207.21L362.863 207.483C362.76 207.812 362.588 208.102 362.347 208.352C362.105 208.599 361.807 208.793 361.452 208.932C361.097 209.068 360.698 209.136 360.255 209.136ZM365.5 205.062V209H364.495V202.455H365.466V203.477H365.551C365.705 203.145 365.938 202.878 366.25 202.676C366.563 202.472 366.966 202.369 367.461 202.369C367.904 202.369 368.292 202.46 368.624 202.642C368.956 202.821 369.215 203.094 369.4 203.46C369.584 203.824 369.676 204.284 369.676 204.841V209H368.671V204.909C368.671 204.395 368.537 203.994 368.27 203.707C368.003 203.418 367.637 203.273 367.171 203.273C366.85 203.273 366.563 203.342 366.31 203.482C366.06 203.621 365.863 203.824 365.718 204.091C365.573 204.358 365.5 204.682 365.5 205.062ZM374.361 202.455V203.307H370.969V202.455H374.361ZM371.957 200.886H372.963V207.125C372.963 207.409 373.004 207.622 373.087 207.764C373.172 207.903 373.28 207.997 373.411 208.045C373.544 208.091 373.685 208.114 373.832 208.114C373.943 208.114 374.034 208.108 374.105 208.097C374.176 208.082 374.233 208.071 374.276 208.062L374.48 208.966C374.412 208.991 374.317 209.017 374.195 209.043C374.072 209.071 373.918 209.085 373.73 209.085C373.446 209.085 373.168 209.024 372.895 208.902C372.625 208.78 372.401 208.594 372.222 208.344C372.045 208.094 371.957 207.778 371.957 207.398V200.886ZM379.743 200.273L382.334 207.619H382.436L385.027 200.273H386.135L382.93 209H381.839L378.635 200.273H379.743ZM389.493 209.136C388.862 209.136 388.318 208.997 387.861 208.719C387.406 208.438 387.055 208.045 386.808 207.543C386.564 207.037 386.442 206.449 386.442 205.778C386.442 205.108 386.564 204.517 386.808 204.006C387.055 203.491 387.399 203.091 387.839 202.804C388.283 202.514 388.8 202.369 389.391 202.369C389.732 202.369 390.068 202.426 390.401 202.54C390.733 202.653 391.036 202.838 391.308 203.094C391.581 203.347 391.798 203.682 391.96 204.099C392.122 204.517 392.203 205.031 392.203 205.642V206.068H387.158V205.199H391.18C391.18 204.83 391.107 204.5 390.959 204.21C390.814 203.92 390.607 203.692 390.337 203.524C390.07 203.357 389.754 203.273 389.391 203.273C388.99 203.273 388.643 203.372 388.351 203.571C388.061 203.767 387.838 204.023 387.682 204.338C387.526 204.653 387.447 204.991 387.447 205.352V205.932C387.447 206.426 387.533 206.845 387.703 207.189C387.876 207.53 388.116 207.79 388.423 207.969C388.73 208.145 389.087 208.233 389.493 208.233C389.757 208.233 389.996 208.196 390.209 208.122C390.425 208.045 390.611 207.932 390.767 207.781C390.923 207.628 391.044 207.437 391.129 207.21L392.101 207.483C391.999 207.812 391.827 208.102 391.585 208.352C391.344 208.599 391.045 208.793 390.69 208.932C390.335 209.068 389.936 209.136 389.493 209.136ZM393.733 209V202.455H394.705V203.443H394.773C394.892 203.119 395.108 202.857 395.42 202.655C395.733 202.453 396.085 202.352 396.477 202.352C396.551 202.352 396.643 202.354 396.754 202.357C396.865 202.359 396.949 202.364 397.006 202.369V203.392C396.972 203.384 396.893 203.371 396.771 203.354C396.652 203.334 396.526 203.324 396.392 203.324C396.074 203.324 395.79 203.391 395.54 203.524C395.293 203.655 395.097 203.837 394.952 204.07C394.81 204.3 394.739 204.562 394.739 204.858V209H393.733ZM402.834 203.92L401.931 204.176C401.874 204.026 401.79 203.879 401.679 203.737C401.571 203.592 401.424 203.473 401.236 203.379C401.049 203.286 400.809 203.239 400.516 203.239C400.115 203.239 399.782 203.331 399.515 203.516C399.25 203.697 399.118 203.929 399.118 204.21C399.118 204.46 399.209 204.658 399.391 204.803C399.573 204.947 399.857 205.068 400.243 205.165L401.215 205.403C401.8 205.545 402.236 205.763 402.523 206.055C402.81 206.345 402.953 206.719 402.953 207.176C402.953 207.551 402.846 207.886 402.63 208.182C402.417 208.477 402.118 208.71 401.735 208.881C401.351 209.051 400.905 209.136 400.397 209.136C399.729 209.136 399.176 208.991 398.739 208.702C398.301 208.412 398.025 207.989 397.908 207.432L398.863 207.193C398.953 207.545 399.125 207.81 399.378 207.986C399.634 208.162 399.968 208.25 400.38 208.25C400.848 208.25 401.221 208.151 401.496 207.952C401.775 207.75 401.914 207.509 401.914 207.227C401.914 207 401.834 206.81 401.675 206.656C401.516 206.5 401.272 206.384 400.942 206.307L399.851 206.051C399.252 205.909 398.811 205.689 398.53 205.391C398.252 205.089 398.113 204.713 398.113 204.261C398.113 203.892 398.216 203.565 398.424 203.281C398.634 202.997 398.919 202.774 399.28 202.612C399.644 202.45 400.056 202.369 400.516 202.369C401.164 202.369 401.672 202.511 402.042 202.795C402.414 203.08 402.678 203.455 402.834 203.92ZM404.467 209V202.455H405.473V209H404.467ZM404.979 201.364C404.783 201.364 404.614 201.297 404.472 201.163C404.332 201.03 404.263 200.869 404.263 200.682C404.263 200.494 404.332 200.334 404.472 200.2C404.614 200.067 404.783 200 404.979 200C405.175 200 405.342 200.067 405.482 200.2C405.624 200.334 405.695 200.494 405.695 200.682C405.695 200.869 405.624 201.03 405.482 201.163C405.342 201.297 405.175 201.364 404.979 201.364ZM409.974 209.136C409.383 209.136 408.865 208.996 408.419 208.714C407.975 208.433 407.629 208.04 407.379 207.534C407.132 207.028 407.008 206.437 407.008 205.761C407.008 205.08 407.132 204.484 407.379 203.976C407.629 203.467 407.975 203.072 408.419 202.791C408.865 202.51 409.383 202.369 409.974 202.369C410.565 202.369 411.082 202.51 411.525 202.791C411.971 203.072 412.318 203.467 412.565 203.976C412.815 204.484 412.94 205.08 412.94 205.761C412.94 206.437 412.815 207.028 412.565 207.534C412.318 208.04 411.971 208.433 411.525 208.714C411.082 208.996 410.565 209.136 409.974 209.136ZM409.974 208.233C410.423 208.233 410.792 208.118 411.082 207.888C411.372 207.658 411.586 207.355 411.725 206.98C411.865 206.605 411.934 206.199 411.934 205.761C411.934 205.324 411.865 204.916 411.725 204.538C411.586 204.161 411.372 203.855 411.082 203.622C410.792 203.389 410.423 203.273 409.974 203.273C409.525 203.273 409.156 203.389 408.866 203.622C408.576 203.855 408.362 204.161 408.223 204.538C408.083 204.916 408.014 205.324 408.014 205.761C408.014 206.199 408.083 206.605 408.223 206.98C408.362 207.355 408.576 207.658 408.866 207.888C409.156 208.118 409.525 208.233 409.974 208.233ZM415.481 205.062V209H414.475V202.455H415.447V203.477H415.532C415.685 203.145 415.918 202.878 416.231 202.676C416.543 202.472 416.947 202.369 417.441 202.369C417.884 202.369 418.272 202.46 418.604 202.642C418.937 202.821 419.195 203.094 419.38 203.46C419.565 203.824 419.657 204.284 419.657 204.841V209H418.651V204.909C418.651 204.395 418.518 203.994 418.251 203.707C417.984 203.418 417.617 203.273 417.151 203.273C416.83 203.273 416.543 203.342 416.29 203.482C416.04 203.621 415.843 203.824 415.698 204.091C415.553 204.358 415.481 204.682 415.481 205.062Z" fill="#002109"/>
<path d="M316.354 49.6464C316.158 49.4512 315.842 49.4512 315.646 49.6464L312.464 52.8284C312.269 53.0237 312.269 53.3403 312.464 53.5355C312.66 53.7308 312.976 53.7308 313.172 53.5355L316 50.7071L318.828 53.5355C319.024 53.7308 319.34 53.7308 319.536 53.5355C319.731 53.3403 319.731 53.0237 319.536 52.8284L316.354 49.6464ZM316.5 105L316.5 50L315.5 50L315.5 105L316.5 105Z" fill="black"/>
<path d="M261.75 40H259.057V31.2727H261.869C262.716 31.2727 263.44 31.4474 264.043 31.7969C264.645 32.1435 265.107 32.642 265.428 33.2926C265.749 33.9403 265.909 34.7159 265.909 35.6193C265.909 36.5284 265.747 37.3111 265.423 37.9673C265.099 38.6207 264.628 39.1236 264.009 39.4759C263.389 39.8253 262.636 40 261.75 40ZM260.114 39.0625H261.682C262.403 39.0625 263.001 38.9233 263.476 38.6449C263.95 38.3665 264.304 37.9702 264.537 37.456C264.77 36.9418 264.886 36.3295 264.886 35.6193C264.886 34.9148 264.771 34.3082 264.541 33.7997C264.311 33.2884 263.967 32.8963 263.51 32.6236C263.053 32.348 262.483 32.2102 261.801 32.2102H260.114V39.0625ZM270.29 40.1364C269.659 40.1364 269.115 39.9972 268.658 39.7188C268.203 39.4375 267.852 39.0455 267.605 38.5426C267.361 38.0369 267.239 37.4489 267.239 36.7784C267.239 36.108 267.361 35.517 267.605 35.0057C267.852 34.4915 268.196 34.0909 268.636 33.804C269.08 33.5142 269.597 33.3693 270.188 33.3693C270.528 33.3693 270.865 33.4261 271.197 33.5398C271.53 33.6534 271.832 33.8381 272.105 34.0938C272.378 34.3466 272.595 34.6818 272.757 35.0994C272.919 35.517 273 36.0312 273 36.642V37.0682H267.955V36.1989H271.977C271.977 35.8295 271.903 35.5 271.756 35.2102C271.611 34.9205 271.403 34.6918 271.134 34.5241C270.866 34.3565 270.551 34.2727 270.188 34.2727C269.787 34.2727 269.44 34.3722 269.148 34.571C268.858 34.767 268.635 35.0227 268.479 35.3381C268.322 35.6534 268.244 35.9915 268.244 36.3523V36.9318C268.244 37.4261 268.33 37.8452 268.5 38.1889C268.673 38.5298 268.913 38.7898 269.22 38.9688C269.527 39.1449 269.884 39.233 270.29 39.233C270.554 39.233 270.793 39.196 271.006 39.1222C271.222 39.0455 271.408 38.9318 271.564 38.7812C271.72 38.6278 271.841 38.4375 271.926 38.2102L272.898 38.483C272.795 38.8125 272.624 39.1023 272.382 39.3523C272.141 39.5994 271.842 39.7926 271.487 39.9318C271.132 40.0682 270.733 40.1364 270.29 40.1364ZM279.683 33.4545L277.262 40H276.24L273.819 33.4545H274.91L276.717 38.6705H276.785L278.592 33.4545H279.683ZM283.52 40.1364C282.89 40.1364 282.346 39.9972 281.888 39.7188C281.434 39.4375 281.083 39.0455 280.836 38.5426C280.591 38.0369 280.469 37.4489 280.469 36.7784C280.469 36.108 280.591 35.517 280.836 35.0057C281.083 34.4915 281.426 34.0909 281.867 33.804C282.31 33.5142 282.827 33.3693 283.418 33.3693C283.759 33.3693 284.096 33.4261 284.428 33.5398C284.76 33.6534 285.063 33.8381 285.336 34.0938C285.608 34.3466 285.826 34.6818 285.988 35.0994C286.15 35.517 286.23 36.0312 286.23 36.642V37.0682H281.185V36.1989H285.208C285.208 35.8295 285.134 35.5 284.986 35.2102C284.841 34.9205 284.634 34.6918 284.364 34.5241C284.097 34.3565 283.782 34.2727 283.418 34.2727C283.017 34.2727 282.671 34.3722 282.378 34.571C282.088 34.767 281.865 35.0227 281.709 35.3381C281.553 35.6534 281.475 35.9915 281.475 36.3523V36.9318C281.475 37.4261 281.56 37.8452 281.73 38.1889C281.904 38.5298 282.144 38.7898 282.451 38.9688C282.757 39.1449 283.114 39.233 283.52 39.233C283.784 39.233 284.023 39.196 284.236 39.1222C284.452 39.0455 284.638 38.9318 284.794 38.7812C284.951 38.6278 285.071 38.4375 285.157 38.2102L286.128 38.483C286.026 38.8125 285.854 39.1023 285.613 39.3523C285.371 39.5994 285.073 39.7926 284.718 39.9318C284.363 40.0682 283.963 40.1364 283.52 40.1364ZM288.766 31.2727V40H287.76V31.2727H288.766ZM293.267 40.1364C292.676 40.1364 292.158 39.9957 291.712 39.7145C291.268 39.4332 290.922 39.0398 290.672 38.5341C290.425 38.0284 290.301 37.4375 290.301 36.7614C290.301 36.0795 290.425 35.4844 290.672 34.9759C290.922 34.4673 291.268 34.0724 291.712 33.7912C292.158 33.5099 292.676 33.3693 293.267 33.3693C293.858 33.3693 294.375 33.5099 294.818 33.7912C295.264 34.0724 295.611 34.4673 295.858 34.9759C296.108 35.4844 296.233 36.0795 296.233 36.7614C296.233 37.4375 296.108 38.0284 295.858 38.5341C295.611 39.0398 295.264 39.4332 294.818 39.7145C294.375 39.9957 293.858 40.1364 293.267 40.1364ZM293.267 39.233C293.716 39.233 294.085 39.1179 294.375 38.8878C294.665 38.6577 294.879 38.3551 295.018 37.9801C295.158 37.6051 295.227 37.1989 295.227 36.7614C295.227 36.3239 295.158 35.9162 295.018 35.5384C294.879 35.1605 294.665 34.8551 294.375 34.6222C294.085 34.3892 293.716 34.2727 293.267 34.2727C292.818 34.2727 292.449 34.3892 292.159 34.6222C291.869 34.8551 291.655 35.1605 291.516 35.5384C291.376 35.9162 291.307 36.3239 291.307 36.7614C291.307 37.1989 291.376 37.6051 291.516 37.9801C291.655 38.3551 291.869 38.6577 292.159 38.8878C292.449 39.1179 292.818 39.233 293.267 39.233ZM297.768 42.4545V33.4545H298.74V34.4943H298.859C298.933 34.3807 299.035 34.2358 299.166 34.0597C299.299 33.8807 299.49 33.7216 299.737 33.5824C299.987 33.4403 300.325 33.3693 300.751 33.3693C301.302 33.3693 301.788 33.5071 302.208 33.7827C302.629 34.0582 302.957 34.4489 303.193 34.9545C303.429 35.4602 303.547 36.0568 303.547 36.7443C303.547 37.4375 303.429 38.0384 303.193 38.5469C302.957 39.0526 302.63 39.4446 302.213 39.723C301.795 39.9986 301.314 40.1364 300.768 40.1364C300.348 40.1364 300.011 40.0668 299.758 39.9276C299.505 39.7855 299.311 39.625 299.174 39.446C299.038 39.2642 298.933 39.1136 298.859 38.9943H298.774V42.4545H297.768ZM298.757 36.7273C298.757 37.2216 298.829 37.6577 298.974 38.0355C299.119 38.4105 299.331 38.7045 299.609 38.9176C299.887 39.1278 300.228 39.233 300.632 39.233C301.052 39.233 301.403 39.1222 301.684 38.9006C301.968 38.6761 302.181 38.375 302.324 37.9972C302.468 37.6165 302.541 37.1932 302.541 36.7273C302.541 36.267 302.47 35.8523 302.328 35.483C302.189 35.1108 301.977 34.8168 301.693 34.6009C301.412 34.3821 301.058 34.2727 300.632 34.2727C300.223 34.2727 299.879 34.3764 299.6 34.5838C299.322 34.7884 299.112 35.0753 298.97 35.4446C298.828 35.8111 298.757 36.2386 298.757 36.7273ZM305.081 40V33.4545H306.052V34.4773H306.137C306.274 34.1278 306.494 33.8565 306.798 33.6634C307.102 33.4673 307.467 33.3693 307.893 33.3693C308.325 33.3693 308.684 33.4673 308.971 33.6634C309.261 33.8565 309.487 34.1278 309.649 34.4773H309.717C309.885 34.1392 310.136 33.8707 310.471 33.6719C310.806 33.4702 311.208 33.3693 311.677 33.3693C312.262 33.3693 312.741 33.5526 313.113 33.919C313.485 34.2827 313.672 34.8494 313.672 35.6193V40H312.666V35.6193C312.666 35.1364 312.534 34.7912 312.27 34.5838C312.005 34.3764 311.694 34.2727 311.336 34.2727C310.876 34.2727 310.52 34.4119 310.267 34.6903C310.014 34.9659 309.887 35.3153 309.887 35.7386V40H308.865V35.517C308.865 35.1449 308.744 34.8452 308.502 34.6179C308.261 34.3878 307.95 34.2727 307.569 34.2727C307.308 34.2727 307.064 34.3423 306.836 34.4815C306.612 34.6207 306.43 34.8139 306.291 35.0611C306.154 35.3054 306.086 35.5881 306.086 35.9091V40H305.081ZM318.255 40.1364C317.624 40.1364 317.08 39.9972 316.623 39.7188C316.168 39.4375 315.817 39.0455 315.57 38.5426C315.326 38.0369 315.203 37.4489 315.203 36.7784C315.203 36.108 315.326 35.517 315.57 35.0057C315.817 34.4915 316.161 34.0909 316.601 33.804C317.044 33.5142 317.561 33.3693 318.152 33.3693C318.493 33.3693 318.83 33.4261 319.162 33.5398C319.495 33.6534 319.797 33.8381 320.07 34.0938C320.343 34.3466 320.56 34.6818 320.722 35.0994C320.884 35.517 320.965 36.0312 320.965 36.642V37.0682H315.919V36.1989H319.942C319.942 35.8295 319.868 35.5 319.721 35.2102C319.576 34.9205 319.368 34.6918 319.098 34.5241C318.831 34.3565 318.516 34.2727 318.152 34.2727C317.752 34.2727 317.405 34.3722 317.113 34.571C316.823 34.767 316.6 35.0227 316.444 35.3381C316.287 35.6534 316.209 35.9915 316.209 36.3523V36.9318C316.209 37.4261 316.294 37.8452 316.465 38.1889C316.638 38.5298 316.878 38.7898 317.185 38.9688C317.492 39.1449 317.848 39.233 318.255 39.233C318.519 39.233 318.757 39.196 318.971 39.1222C319.186 39.0455 319.373 38.9318 319.529 38.7812C319.685 38.6278 319.806 38.4375 319.891 38.2102L320.863 38.483C320.76 38.8125 320.588 39.1023 320.347 39.3523C320.105 39.5994 319.807 39.7926 319.452 39.9318C319.097 40.0682 318.698 40.1364 318.255 40.1364ZM323.5 36.0625V40H322.495V33.4545H323.466V34.4773H323.551C323.705 34.1449 323.938 33.8778 324.25 33.6761C324.563 33.4716 324.966 33.3693 325.461 33.3693C325.904 33.3693 326.292 33.4602 326.624 33.642C326.956 33.821 327.215 34.0938 327.4 34.4602C327.584 34.8239 327.676 35.2841 327.676 35.8409V40H326.671V35.9091C326.671 35.3949 326.537 34.9943 326.27 34.7074C326.003 34.4176 325.637 34.2727 325.171 34.2727C324.85 34.2727 324.563 34.3423 324.31 34.4815C324.06 34.6207 323.863 34.8239 323.718 35.0909C323.573 35.358 323.5 35.6818 323.5 36.0625ZM332.361 33.4545V34.3068H328.969V33.4545H332.361ZM329.957 31.8864H330.963V38.125C330.963 38.4091 331.004 38.6222 331.087 38.7642C331.172 38.9034 331.28 38.9972 331.411 39.0455C331.544 39.0909 331.685 39.1136 331.832 39.1136C331.943 39.1136 332.034 39.108 332.105 39.0966C332.176 39.0824 332.233 39.071 332.276 39.0625L332.48 39.9659C332.412 39.9915 332.317 40.017 332.195 40.0426C332.072 40.071 331.918 40.0852 331.73 40.0852C331.446 40.0852 331.168 40.0241 330.895 39.902C330.625 39.7798 330.401 39.5938 330.222 39.3438C330.045 39.0938 329.957 38.7784 329.957 38.3977V31.8864ZM342.158 33.4545C342.107 33.0227 341.899 32.6875 341.536 32.4489C341.172 32.2102 340.726 32.0909 340.197 32.0909C339.811 32.0909 339.473 32.1534 339.183 32.2784C338.896 32.4034 338.672 32.5753 338.51 32.794C338.351 33.0128 338.271 33.2614 338.271 33.5398C338.271 33.7727 338.327 33.973 338.438 34.1406C338.551 34.3054 338.696 34.4432 338.872 34.554C339.048 34.6619 339.233 34.7514 339.426 34.8224C339.619 34.8906 339.797 34.946 339.959 34.9886L340.845 35.2273C341.072 35.2869 341.325 35.3693 341.604 35.4744C341.885 35.5795 342.153 35.723 342.409 35.9048C342.668 36.0838 342.881 36.3139 343.048 36.5952C343.216 36.8764 343.3 37.2216 343.3 37.6307C343.3 38.1023 343.176 38.5284 342.929 38.9091C342.685 39.2898 342.327 39.5923 341.855 39.8168C341.386 40.0412 340.817 40.1534 340.146 40.1534C339.521 40.1534 338.98 40.0526 338.523 39.8509C338.068 39.6491 337.71 39.3679 337.449 39.0071C337.19 38.6463 337.044 38.2273 337.01 37.75H338.101C338.129 38.0795 338.24 38.3523 338.433 38.5682C338.629 38.7812 338.876 38.9403 339.175 39.0455C339.476 39.1477 339.8 39.1989 340.146 39.1989C340.55 39.1989 340.912 39.1335 341.233 39.0028C341.554 38.8693 341.808 38.6847 341.996 38.4489C342.183 38.2102 342.277 37.9318 342.277 37.6136C342.277 37.3239 342.196 37.0881 342.034 36.9062C341.872 36.7244 341.659 36.5767 341.395 36.4631C341.131 36.3494 340.845 36.25 340.538 36.1648L339.464 35.858C338.783 35.6619 338.243 35.3821 337.845 35.0185C337.447 34.6548 337.249 34.179 337.249 33.5909C337.249 33.1023 337.381 32.6761 337.645 32.3125C337.912 31.946 338.27 31.6619 338.719 31.4602C339.17 31.2557 339.675 31.1534 340.232 31.1534C340.794 31.1534 341.294 31.2543 341.732 31.456C342.169 31.6548 342.516 31.9276 342.771 32.2741C343.03 32.6207 343.166 33.0142 343.18 33.4545H342.158ZM347.748 33.4545V34.3068H344.355V33.4545H347.748ZM345.344 31.8864H346.35V38.125C346.35 38.4091 346.391 38.6222 346.473 38.7642C346.559 38.9034 346.667 38.9972 346.797 39.0455C346.931 39.0909 347.071 39.1136 347.219 39.1136C347.33 39.1136 347.421 39.108 347.492 39.0966C347.563 39.0824 347.62 39.071 347.662 39.0625L347.867 39.9659C347.799 39.9915 347.703 40.017 347.581 40.0426C347.459 40.071 347.304 40.0852 347.117 40.0852C346.833 40.0852 346.554 40.0241 346.282 39.902C346.012 39.7798 345.787 39.5938 345.608 39.3438C345.432 39.0938 345.344 38.7784 345.344 38.3977V31.8864ZM351.186 40.1534C350.772 40.1534 350.395 40.0753 350.057 39.919C349.719 39.7599 349.451 39.5312 349.252 39.233C349.053 38.9318 348.953 38.5682 348.953 38.142C348.953 37.767 349.027 37.4631 349.175 37.2301C349.323 36.9943 349.52 36.8097 349.767 36.6761C350.015 36.5426 350.287 36.4432 350.586 36.3778C350.887 36.3097 351.189 36.2557 351.493 36.2159C351.891 36.1648 352.213 36.1264 352.461 36.1009C352.711 36.0724 352.892 36.0256 353.006 35.9602C353.123 35.8949 353.181 35.7812 353.181 35.6193V35.5852C353.181 35.1648 353.066 34.8381 352.836 34.6051C352.608 34.3722 352.263 34.2557 351.8 34.2557C351.32 34.2557 350.944 34.3608 350.671 34.571C350.398 34.7812 350.206 35.0057 350.096 35.2443L349.141 34.9034C349.311 34.5057 349.539 34.196 349.823 33.9744C350.11 33.75 350.422 33.5937 350.76 33.5057C351.101 33.4148 351.436 33.3693 351.766 33.3693C351.976 33.3693 352.218 33.3949 352.49 33.446C352.766 33.4943 353.032 33.5952 353.287 33.7486C353.546 33.902 353.76 34.1335 353.931 34.4432C354.101 34.7528 354.186 35.1676 354.186 35.6875V40H353.181V39.1136H353.13C353.061 39.2557 352.948 39.4077 352.789 39.5696C352.63 39.7315 352.418 39.8693 352.154 39.983C351.89 40.0966 351.567 40.1534 351.186 40.1534ZM351.34 39.25C351.738 39.25 352.073 39.1719 352.346 39.0156C352.621 38.8594 352.828 38.6577 352.968 38.4105C353.11 38.1634 353.181 37.9034 353.181 37.6307V36.7102C353.138 36.7614 353.044 36.8082 352.9 36.8509C352.757 36.8906 352.593 36.9261 352.405 36.9574C352.221 36.9858 352.04 37.0114 351.864 37.0341C351.691 37.054 351.55 37.071 351.442 37.0852C351.181 37.1193 350.936 37.1747 350.709 37.2514C350.485 37.3253 350.303 37.4375 350.164 37.5881C350.027 37.7358 349.959 37.9375 349.959 38.1932C349.959 38.5426 350.088 38.8068 350.347 38.9858C350.608 39.1619 350.939 39.25 351.34 39.25ZM358.869 33.4545V34.3068H355.477V33.4545H358.869ZM356.465 31.8864H357.471V38.125C357.471 38.4091 357.512 38.6222 357.594 38.7642C357.68 38.9034 357.788 38.9972 357.918 39.0455C358.052 39.0909 358.192 39.1136 358.34 39.1136C358.451 39.1136 358.542 39.108 358.613 39.0966C358.684 39.0824 358.741 39.071 358.783 39.0625L358.988 39.9659C358.92 39.9915 358.825 40.017 358.702 40.0426C358.58 40.071 358.425 40.0852 358.238 40.0852C357.954 40.0852 357.675 40.0241 357.403 39.902C357.133 39.7798 356.908 39.5938 356.729 39.3438C356.553 39.0938 356.465 38.7784 356.465 38.3977V31.8864ZM364.506 37.3239V33.4545H365.512V40H364.506V38.892H364.438C364.285 39.2244 364.046 39.5071 363.722 39.7401C363.398 39.9702 362.989 40.0852 362.495 40.0852C362.086 40.0852 361.722 39.9957 361.404 39.8168C361.086 39.6349 360.836 39.3622 360.654 38.9986C360.472 38.6321 360.381 38.1705 360.381 37.6136V33.4545H361.387V37.5455C361.387 38.0227 361.521 38.4034 361.788 38.6875C362.058 38.9716 362.401 39.1136 362.819 39.1136C363.069 39.1136 363.323 39.0497 363.582 38.9219C363.843 38.794 364.062 38.598 364.238 38.3338C364.417 38.0696 364.506 37.733 364.506 37.3239ZM371.99 34.9205L371.087 35.1761C371.03 35.0256 370.946 34.8793 370.836 34.7372C370.728 34.5923 370.58 34.473 370.392 34.3793C370.205 34.2855 369.965 34.2386 369.672 34.2386C369.272 34.2386 368.938 34.331 368.671 34.5156C368.407 34.6974 368.275 34.929 368.275 35.2102C368.275 35.4602 368.365 35.6577 368.547 35.8026C368.729 35.9474 369.013 36.0682 369.4 36.1648L370.371 36.4034C370.956 36.5455 371.392 36.7628 371.679 37.0554C371.966 37.3452 372.11 37.7187 372.11 38.1761C372.11 38.5511 372.002 38.8864 371.786 39.1818C371.573 39.4773 371.275 39.7102 370.891 39.8807C370.507 40.0511 370.061 40.1364 369.553 40.1364C368.885 40.1364 368.333 39.9915 367.895 39.7017C367.458 39.4119 367.181 38.9886 367.064 38.4318L368.019 38.1932C368.11 38.5455 368.282 38.8097 368.534 38.9858C368.79 39.1619 369.124 39.25 369.536 39.25C370.005 39.25 370.377 39.1506 370.652 38.9517C370.931 38.75 371.07 38.5085 371.07 38.2273C371.07 38 370.99 37.8097 370.831 37.6562C370.672 37.5 370.428 37.3835 370.098 37.3068L369.007 37.0511C368.408 36.9091 367.968 36.6889 367.686 36.3906C367.408 36.0895 367.269 35.7131 367.269 35.2614C367.269 34.892 367.373 34.5653 367.58 34.2812C367.79 33.9972 368.076 33.7741 368.436 33.6122C368.8 33.4503 369.212 33.3693 369.672 33.3693C370.32 33.3693 370.828 33.5114 371.198 33.7955C371.57 34.0795 371.834 34.4545 371.99 34.9205Z" fill="#002109"/>
<path d="M309.278 149.486C309.278 148.412 309.418 147.425 309.696 146.524C309.977 145.621 310.378 144.79 310.898 144.031H311.784C311.58 144.313 311.388 144.659 311.209 145.071C311.033 145.48 310.878 145.931 310.744 146.422C310.611 146.911 310.506 147.416 310.429 147.939C310.355 148.462 310.318 148.977 310.318 149.486C310.318 150.162 310.384 150.848 310.514 151.544C310.645 152.24 310.821 152.886 311.043 153.483C311.264 154.08 311.511 154.565 311.784 154.94H310.898C310.378 154.182 309.977 153.352 309.696 152.452C309.418 151.548 309.278 150.56 309.278 149.486ZM313.251 153.85V153.083L316.132 149.929C316.47 149.56 316.748 149.239 316.967 148.966C317.186 148.69 317.348 148.432 317.453 148.19C317.561 147.946 317.615 147.69 317.615 147.423C317.615 147.117 317.541 146.851 317.393 146.627C317.248 146.402 317.049 146.229 316.797 146.107C316.544 145.985 316.26 145.923 315.944 145.923C315.609 145.923 315.316 145.993 315.066 146.132C314.819 146.269 314.627 146.46 314.491 146.708C314.358 146.955 314.291 147.244 314.291 147.577H313.285C313.285 147.065 313.403 146.617 313.639 146.23C313.875 145.844 314.196 145.543 314.602 145.327C315.011 145.111 315.47 145.003 315.978 145.003C316.49 145.003 316.943 145.111 317.338 145.327C317.733 145.543 318.042 145.834 318.267 146.2C318.491 146.567 318.603 146.975 318.603 147.423C318.603 147.744 318.545 148.058 318.429 148.365C318.315 148.669 318.116 149.009 317.832 149.384C317.551 149.756 317.16 150.21 316.66 150.747L314.7 152.844V152.912H318.757V153.85H313.251ZM322.681 149.486C322.681 150.56 322.541 151.548 322.26 152.452C321.981 153.352 321.582 154.182 321.062 154.94H320.176C320.38 154.659 320.571 154.313 320.747 153.901C320.926 153.492 321.082 153.043 321.216 152.554C321.349 152.063 321.453 151.556 321.527 151.033C321.603 150.507 321.642 149.992 321.642 149.486C321.642 148.81 321.576 148.124 321.446 147.428C321.315 146.732 321.139 146.085 320.917 145.489C320.696 144.892 320.449 144.406 320.176 144.031H321.062C321.582 144.79 321.981 145.621 322.26 146.524C322.541 147.425 322.681 148.412 322.681 149.486Z" fill="#002109"/>
<rect x="466" y="113" width="92" height="23" rx="11.5" fill="#EBEFE7"/>
<path d="M479.972 120.273V129H478.915V121.381H478.864L476.733 122.795V121.722L478.915 120.273H479.972ZM482.482 129V128.233L485.362 125.08C485.7 124.71 485.979 124.389 486.197 124.116C486.416 123.841 486.578 123.582 486.683 123.341C486.791 123.097 486.845 122.841 486.845 122.574C486.845 122.267 486.771 122.001 486.624 121.777C486.479 121.553 486.28 121.379 486.027 121.257C485.774 121.135 485.49 121.074 485.175 121.074C484.839 121.074 484.547 121.143 484.297 121.283C484.05 121.419 483.858 121.611 483.722 121.858C483.588 122.105 483.521 122.395 483.521 122.727H482.516C482.516 122.216 482.634 121.767 482.869 121.381C483.105 120.994 483.426 120.693 483.832 120.477C484.241 120.261 484.7 120.153 485.209 120.153C485.72 120.153 486.173 120.261 486.568 120.477C486.963 120.693 487.273 120.984 487.497 121.351C487.722 121.717 487.834 122.125 487.834 122.574C487.834 122.895 487.776 123.209 487.659 123.516C487.545 123.82 487.347 124.159 487.062 124.534C486.781 124.906 486.391 125.361 485.891 125.898L483.93 127.994V128.062H487.987V129H482.482ZM494.281 129V129.938H488.827V129H494.281ZM497.469 129.119C496.827 129.119 496.28 128.945 495.828 128.595C495.376 128.243 495.031 127.733 494.793 127.065C494.554 126.395 494.435 125.585 494.435 124.636C494.435 123.693 494.554 122.888 494.793 122.22C495.034 121.55 495.381 121.038 495.832 120.686C496.287 120.331 496.832 120.153 497.469 120.153C498.105 120.153 498.649 120.331 499.101 120.686C499.555 121.038 499.902 121.55 500.141 122.22C500.382 122.888 500.503 123.693 500.503 124.636C500.503 125.585 500.384 126.395 500.145 127.065C499.906 127.733 499.561 128.243 499.109 128.595C498.658 128.945 498.111 129.119 497.469 129.119ZM497.469 128.182C498.105 128.182 498.599 127.875 498.952 127.261C499.304 126.648 499.48 125.773 499.48 124.636C499.48 123.881 499.399 123.237 499.237 122.706C499.078 122.175 498.848 121.77 498.547 121.491C498.249 121.213 497.889 121.074 497.469 121.074C496.838 121.074 496.345 121.385 495.99 122.007C495.635 122.626 495.457 123.503 495.457 124.636C495.457 125.392 495.537 126.034 495.696 126.562C495.855 127.091 496.084 127.493 496.382 127.768C496.683 128.044 497.045 128.182 497.469 128.182ZM505.19 120.273V129H504.134V121.381H504.082L501.952 122.795V121.722L504.134 120.273H505.19ZM512.234 129V129.938H506.78V129H512.234ZM515.422 129.119C514.78 129.119 514.233 128.945 513.781 128.595C513.33 128.243 512.984 127.733 512.746 127.065C512.507 126.395 512.388 125.585 512.388 124.636C512.388 123.693 512.507 122.888 512.746 122.22C512.987 121.55 513.334 121.038 513.786 120.686C514.24 120.331 514.786 120.153 515.422 120.153C516.058 120.153 516.602 120.331 517.054 120.686C517.509 121.038 517.855 121.55 518.094 122.22C518.335 122.888 518.456 123.693 518.456 124.636C518.456 125.585 518.337 126.395 518.098 127.065C517.859 127.733 517.514 128.243 517.062 128.595C516.611 128.945 516.064 129.119 515.422 129.119ZM515.422 128.182C516.058 128.182 516.553 127.875 516.905 127.261C517.257 126.648 517.433 125.773 517.433 124.636C517.433 123.881 517.352 123.237 517.19 122.706C517.031 122.175 516.801 121.77 516.5 121.491C516.202 121.213 515.842 121.074 515.422 121.074C514.791 121.074 514.298 121.385 513.943 122.007C513.588 122.626 513.411 123.503 513.411 124.636C513.411 125.392 513.49 126.034 513.649 126.562C513.808 127.091 514.037 127.493 514.335 127.768C514.636 128.044 514.999 128.182 515.422 128.182ZM520.075 129V128.233L522.956 125.08C523.294 124.71 523.572 124.389 523.791 124.116C524.01 123.841 524.172 123.582 524.277 123.341C524.385 123.097 524.439 122.841 524.439 122.574C524.439 122.267 524.365 122.001 524.217 121.777C524.072 121.553 523.874 121.379 523.621 121.257C523.368 121.135 523.084 121.074 522.768 121.074C522.433 121.074 522.141 121.143 521.891 121.283C521.643 121.419 521.452 121.611 521.315 121.858C521.182 122.105 521.115 122.395 521.115 122.727H520.109C520.109 122.216 520.227 121.767 520.463 121.381C520.699 120.994 521.02 120.693 521.426 120.477C521.835 120.261 522.294 120.153 522.803 120.153C523.314 120.153 523.767 120.261 524.162 120.477C524.557 120.693 524.866 120.984 525.091 121.351C525.315 121.717 525.428 122.125 525.428 122.574C525.428 122.895 525.369 123.209 525.253 123.516C525.139 123.82 524.94 124.159 524.656 124.534C524.375 124.906 523.984 125.361 523.484 125.898L521.524 127.994V128.062H525.581V129H520.075ZM531.875 129V129.938H526.42V129H531.875ZM535.062 129.119C534.42 129.119 533.874 128.945 533.422 128.595C532.97 128.243 532.625 127.733 532.386 127.065C532.148 126.395 532.028 125.585 532.028 124.636C532.028 123.693 532.148 122.888 532.386 122.22C532.628 121.55 532.974 121.038 533.426 120.686C533.881 120.331 534.426 120.153 535.062 120.153C535.699 120.153 536.243 120.331 536.695 120.686C537.149 121.038 537.496 121.55 537.734 122.22C537.976 122.888 538.097 123.693 538.097 124.636C538.097 125.585 537.977 126.395 537.739 127.065C537.5 127.733 537.155 128.243 536.703 128.595C536.251 128.945 535.705 129.119 535.062 129.119ZM535.062 128.182C535.699 128.182 536.193 127.875 536.545 127.261C536.898 126.648 537.074 125.773 537.074 124.636C537.074 123.881 536.993 123.237 536.831 122.706C536.672 122.175 536.442 121.77 536.141 121.491C535.842 121.213 535.483 121.074 535.062 121.074C534.432 121.074 533.939 121.385 533.584 122.007C533.229 122.626 533.051 123.503 533.051 124.636C533.051 125.392 533.131 126.034 533.29 126.562C533.449 127.091 533.678 127.493 533.976 127.768C534.277 128.044 534.639 128.182 535.062 128.182ZM539.511 127.21V126.341L543.347 120.273H543.977V121.619H543.551L540.653 126.205V126.273H545.818V127.21H539.511ZM543.619 129V126.946V126.541V120.273H544.625V129H543.619Z" fill="#002109"/>
<path d="M455.854 124.436C456.049 124.241 456.049 123.924 455.854 123.729L452.672 120.547C452.476 120.352 452.16 120.352 451.964 120.547C451.769 120.742 451.769 121.059 451.964 121.254L454.793 124.083L451.964 126.911C451.769 127.106 451.769 127.423 451.964 127.618C452.16 127.813 452.476 127.813 452.672 127.618L455.854 124.436ZM383 124.583H455.5V123.583H383V124.583Z" fill="black"/>
</svg>
