<svg width="600" height="240" viewBox="0 0 600 240" fill="none" xmlns="http://www.w3.org/2000/svg">
<rect width="600" height="240" rx="16" fill="#F7FBF2"/>
<rect x="82" y="113" width="86" height="23.3776" rx="11.6888" fill="#D3E8D1"/>
<path d="M97.0568 130V121.273H98.1136V129.062H102.17V130H97.0568ZM105.597 130.153C105.182 130.153 104.805 130.075 104.467 129.919C104.129 129.76 103.861 129.531 103.662 129.233C103.463 128.932 103.364 128.568 103.364 128.142C103.364 127.767 103.438 127.463 103.585 127.23C103.733 126.994 103.93 126.81 104.178 126.676C104.425 126.543 104.697 126.443 104.996 126.378C105.297 126.31 105.599 126.256 105.903 126.216C106.301 126.165 106.624 126.126 106.871 126.101C107.121 126.072 107.303 126.026 107.416 125.96C107.533 125.895 107.591 125.781 107.591 125.619V125.585C107.591 125.165 107.476 124.838 107.246 124.605C107.018 124.372 106.673 124.256 106.21 124.256C105.73 124.256 105.354 124.361 105.081 124.571C104.808 124.781 104.616 125.006 104.506 125.244L103.551 124.903C103.722 124.506 103.949 124.196 104.233 123.974C104.52 123.75 104.832 123.594 105.17 123.506C105.511 123.415 105.847 123.369 106.176 123.369C106.386 123.369 106.628 123.395 106.901 123.446C107.176 123.494 107.442 123.595 107.697 123.749C107.956 123.902 108.17 124.134 108.341 124.443C108.511 124.753 108.597 125.168 108.597 125.688V130H107.591V129.114H107.54C107.472 129.256 107.358 129.408 107.199 129.57C107.04 129.732 106.828 129.869 106.564 129.983C106.3 130.097 105.977 130.153 105.597 130.153ZM105.75 129.25C106.148 129.25 106.483 129.172 106.756 129.016C107.031 128.859 107.239 128.658 107.378 128.411C107.52 128.163 107.591 127.903 107.591 127.631V126.71C107.548 126.761 107.455 126.808 107.31 126.851C107.168 126.891 107.003 126.926 106.815 126.957C106.631 126.986 106.45 127.011 106.274 127.034C106.101 127.054 105.96 127.071 105.852 127.085C105.591 127.119 105.347 127.175 105.119 127.251C104.895 127.325 104.713 127.437 104.574 127.588C104.438 127.736 104.369 127.937 104.369 128.193C104.369 128.543 104.499 128.807 104.757 128.986C105.018 129.162 105.349 129.25 105.75 129.25ZM111.915 130L109.921 123.455H110.978L112.392 128.466H112.461L113.858 123.455H114.932L116.313 128.449H116.381L117.796 123.455H118.853L116.858 130H115.87L114.438 124.972H114.336L112.904 130H111.915ZM121.188 126.062V130H120.182V123.455H121.154V124.477H121.239C121.392 124.145 121.625 123.878 121.938 123.676C122.25 123.472 122.654 123.369 123.148 123.369C123.591 123.369 123.979 123.46 124.311 123.642C124.644 123.821 124.902 124.094 125.087 124.46C125.272 124.824 125.364 125.284 125.364 125.841V130H124.358V125.909C124.358 125.395 124.225 124.994 123.958 124.707C123.691 124.418 123.324 124.273 122.858 124.273C122.537 124.273 122.25 124.342 121.998 124.482C121.748 124.621 121.55 124.824 121.405 125.091C121.26 125.358 121.188 125.682 121.188 126.062ZM129.861 130.136C129.247 130.136 128.719 129.991 128.276 129.702C127.832 129.412 127.491 129.013 127.253 128.504C127.014 127.996 126.895 127.415 126.895 126.761C126.895 126.097 127.017 125.51 127.261 125.001C127.509 124.49 127.852 124.091 128.293 123.804C128.736 123.514 129.253 123.369 129.844 123.369C130.304 123.369 130.719 123.455 131.088 123.625C131.457 123.795 131.76 124.034 131.996 124.341C132.232 124.648 132.378 125.006 132.435 125.415H131.429C131.352 125.116 131.182 124.852 130.918 124.622C130.656 124.389 130.304 124.273 129.861 124.273C129.469 124.273 129.125 124.375 128.83 124.58C128.537 124.781 128.308 125.067 128.143 125.436C127.982 125.803 127.901 126.233 127.901 126.727C127.901 127.233 127.98 127.673 128.139 128.048C128.301 128.423 128.528 128.714 128.821 128.922C129.116 129.129 129.463 129.233 129.861 129.233C130.122 129.233 130.359 129.188 130.572 129.097C130.786 129.006 130.966 128.875 131.114 128.705C131.261 128.534 131.366 128.33 131.429 128.091H132.435C132.378 128.477 132.237 128.825 132.013 129.135C131.791 129.442 131.497 129.686 131.131 129.868C130.767 130.047 130.344 130.136 129.861 130.136ZM134.911 126.062V130H133.905V121.273H134.911V124.477H134.996C135.149 124.139 135.379 123.871 135.686 123.672C135.996 123.47 136.408 123.369 136.922 123.369C137.368 123.369 137.759 123.459 138.094 123.638C138.429 123.814 138.689 124.085 138.874 124.452C139.061 124.815 139.155 125.278 139.155 125.841V130H138.149V125.909C138.149 125.389 138.014 124.987 137.744 124.703C137.477 124.416 137.107 124.273 136.632 124.273C136.303 124.273 136.007 124.342 135.746 124.482C135.487 124.621 135.283 124.824 135.132 125.091C134.984 125.358 134.911 125.682 134.911 126.062ZM142.921 130.153C142.506 130.153 142.13 130.075 141.792 129.919C141.453 129.76 141.185 129.531 140.986 129.233C140.787 128.932 140.688 128.568 140.688 128.142C140.688 127.767 140.762 127.463 140.909 127.23C141.057 126.994 141.255 126.81 141.502 126.676C141.749 126.543 142.022 126.443 142.32 126.378C142.621 126.31 142.924 126.256 143.228 126.216C143.625 126.165 143.948 126.126 144.195 126.101C144.445 126.072 144.627 126.026 144.74 125.96C144.857 125.895 144.915 125.781 144.915 125.619V125.585C144.915 125.165 144.8 124.838 144.57 124.605C144.343 124.372 143.998 124.256 143.534 124.256C143.054 124.256 142.678 124.361 142.405 124.571C142.132 124.781 141.941 125.006 141.83 125.244L140.875 124.903C141.046 124.506 141.273 124.196 141.557 123.974C141.844 123.75 142.157 123.594 142.495 123.506C142.836 123.415 143.171 123.369 143.5 123.369C143.711 123.369 143.952 123.395 144.225 123.446C144.5 123.494 144.766 123.595 145.022 123.749C145.28 123.902 145.495 124.134 145.665 124.443C145.836 124.753 145.921 125.168 145.921 125.688V130H144.915V129.114H144.864C144.796 129.256 144.682 129.408 144.523 129.57C144.364 129.732 144.152 129.869 143.888 129.983C143.624 130.097 143.301 130.153 142.921 130.153ZM143.074 129.25C143.472 129.25 143.807 129.172 144.08 129.016C144.355 128.859 144.563 128.658 144.702 128.411C144.844 128.163 144.915 127.903 144.915 127.631V126.71C144.873 126.761 144.779 126.808 144.634 126.851C144.492 126.891 144.327 126.926 144.14 126.957C143.955 126.986 143.775 127.011 143.598 127.034C143.425 127.054 143.284 127.071 143.176 127.085C142.915 127.119 142.671 127.175 142.444 127.251C142.219 127.325 142.037 127.437 141.898 127.588C141.762 127.736 141.694 127.937 141.694 128.193C141.694 128.543 141.823 128.807 142.081 128.986C142.343 129.162 142.674 129.25 143.074 129.25ZM147.756 130V123.455H148.762V130H147.756ZM148.268 122.364C148.072 122.364 147.903 122.297 147.761 122.163C147.621 122.03 147.552 121.869 147.552 121.682C147.552 121.494 147.621 121.334 147.761 121.2C147.903 121.067 148.072 121 148.268 121C148.464 121 148.631 121.067 148.771 121.2C148.913 121.334 148.984 121.494 148.984 121.682C148.984 121.869 148.913 122.03 148.771 122.163C148.631 122.297 148.464 122.364 148.268 122.364ZM150.604 130V123.455H151.576V124.443H151.644C151.763 124.119 151.979 123.857 152.292 123.655C152.604 123.453 152.956 123.352 153.348 123.352C153.422 123.352 153.515 123.354 153.625 123.357C153.736 123.359 153.82 123.364 153.877 123.369V124.392C153.843 124.384 153.765 124.371 153.642 124.354C153.523 124.334 153.397 124.324 153.263 124.324C152.945 124.324 152.661 124.391 152.411 124.524C152.164 124.655 151.968 124.837 151.823 125.07C151.681 125.3 151.61 125.562 151.61 125.858V130H150.604Z" fill="#0F1F11"/>
<rect x="179" y="112.861" width="25" height="23.3776" rx="11.6888" fill="#B6F1BB"/>
<path d="M188.972 120.81V129.537H187.915V121.918H187.864L185.733 123.332V122.258L187.915 120.81H188.972ZM191.482 129.537V128.77L194.362 125.616C194.7 125.247 194.979 124.926 195.197 124.653C195.416 124.378 195.578 124.119 195.683 123.878C195.791 123.633 195.845 123.378 195.845 123.111C195.845 122.804 195.771 122.538 195.624 122.314C195.479 122.089 195.28 121.916 195.027 121.794C194.774 121.672 194.49 121.611 194.175 121.611C193.839 121.611 193.547 121.68 193.297 121.82C193.05 121.956 192.858 122.148 192.722 122.395C192.588 122.642 192.521 122.932 192.521 123.264H191.516C191.516 122.753 191.634 122.304 191.869 121.918C192.105 121.531 192.426 121.23 192.832 121.014C193.241 120.798 193.7 120.69 194.209 120.69C194.72 120.69 195.173 120.798 195.568 121.014C195.963 121.23 196.273 121.521 196.497 121.888C196.722 122.254 196.834 122.662 196.834 123.111C196.834 123.432 196.776 123.746 196.659 124.053C196.545 124.356 196.347 124.696 196.062 125.071C195.781 125.443 195.391 125.898 194.891 126.435L192.93 128.531V128.599H196.987V129.537H191.482Z" fill="#002109"/>
<rect x="215" y="112.861" width="25" height="23.3776" rx="11.6888" fill="#B6F1BB"/>
<path d="M228.972 120.81V129.537H227.915V121.918H227.864L225.733 123.332V122.258L227.915 120.81H228.972Z" fill="#002109"/>
<rect x="251" y="112.861" width="49" height="23.3776" rx="11.6888" fill="#BDEAF4"/>
<path d="M264.057 129.537V120.81H267.108C267.716 120.81 268.217 120.915 268.612 121.125C269.007 121.332 269.301 121.612 269.494 121.964C269.688 122.314 269.784 122.702 269.784 123.128C269.784 123.503 269.717 123.812 269.584 124.057C269.453 124.301 269.28 124.494 269.064 124.636C268.851 124.778 268.619 124.883 268.369 124.952V125.037C268.636 125.054 268.905 125.148 269.175 125.318C269.445 125.489 269.67 125.733 269.852 126.051C270.034 126.369 270.125 126.758 270.125 127.219C270.125 127.656 270.026 128.05 269.827 128.399C269.628 128.749 269.314 129.026 268.885 129.23C268.456 129.435 267.898 129.537 267.21 129.537H264.057ZM265.114 128.599H267.21C267.901 128.599 268.391 128.466 268.68 128.199C268.973 127.929 269.119 127.602 269.119 127.219C269.119 126.923 269.044 126.651 268.893 126.401C268.743 126.148 268.528 125.946 268.25 125.795C267.972 125.642 267.642 125.565 267.261 125.565H265.114V128.599ZM265.114 124.645H267.074C267.392 124.645 267.679 124.582 267.935 124.457C268.193 124.332 268.398 124.156 268.548 123.929C268.702 123.702 268.778 123.435 268.778 123.128C268.778 122.744 268.645 122.419 268.378 122.152C268.111 121.882 267.688 121.747 267.108 121.747H265.114V124.645ZM274.469 129.673C273.839 129.673 273.295 129.534 272.837 129.256C272.383 128.974 272.032 128.582 271.785 128.079C271.54 127.574 271.418 126.986 271.418 126.315C271.418 125.645 271.54 125.054 271.785 124.543C272.032 124.028 272.376 123.628 272.816 123.341C273.259 123.051 273.776 122.906 274.367 122.906C274.708 122.906 275.045 122.963 275.377 123.077C275.71 123.19 276.012 123.375 276.285 123.631C276.558 123.883 276.775 124.219 276.937 124.636C277.099 125.054 277.18 125.568 277.18 126.179V126.605H272.134V125.736H276.157C276.157 125.366 276.083 125.037 275.935 124.747C275.79 124.457 275.583 124.229 275.313 124.061C275.046 123.893 274.731 123.81 274.367 123.81C273.967 123.81 273.62 123.909 273.327 124.108C273.038 124.304 272.815 124.56 272.658 124.875C272.502 125.19 272.424 125.528 272.424 125.889V126.469C272.424 126.963 272.509 127.382 272.68 127.726C272.853 128.067 273.093 128.327 273.4 128.506C273.707 128.682 274.063 128.77 274.469 128.77C274.734 128.77 274.972 128.733 275.185 128.659C275.401 128.582 275.587 128.469 275.744 128.318C275.9 128.165 276.021 127.974 276.106 127.747L277.077 128.02C276.975 128.349 276.803 128.639 276.562 128.889C276.32 129.136 276.022 129.329 275.667 129.469C275.312 129.605 274.913 129.673 274.469 129.673ZM281.556 122.991V123.844H278.164V122.991H281.556ZM279.153 121.423H280.158V127.662C280.158 127.946 280.2 128.159 280.282 128.301C280.367 128.44 280.475 128.534 280.606 128.582C280.739 128.628 280.88 128.651 281.028 128.651C281.138 128.651 281.229 128.645 281.3 128.633C281.371 128.619 281.428 128.608 281.471 128.599L281.675 129.503C281.607 129.528 281.512 129.554 281.39 129.579C281.268 129.608 281.113 129.622 280.925 129.622C280.641 129.622 280.363 129.561 280.09 129.439C279.82 129.317 279.596 129.131 279.417 128.881C279.241 128.631 279.153 128.315 279.153 127.935V121.423ZM284.995 129.69C284.58 129.69 284.204 129.612 283.866 129.456C283.528 129.297 283.259 129.068 283.06 128.77C282.862 128.469 282.762 128.105 282.762 127.679C282.762 127.304 282.836 127 282.984 126.767C283.131 126.531 283.329 126.347 283.576 126.213C283.823 126.079 284.096 125.98 284.394 125.915C284.695 125.847 284.998 125.793 285.302 125.753C285.7 125.702 286.022 125.663 286.269 125.638C286.519 125.609 286.701 125.562 286.815 125.497C286.931 125.432 286.989 125.318 286.989 125.156V125.122C286.989 124.702 286.874 124.375 286.644 124.142C286.417 123.909 286.072 123.793 285.609 123.793C285.129 123.793 284.752 123.898 284.479 124.108C284.207 124.318 284.015 124.543 283.904 124.781L282.95 124.44C283.12 124.043 283.347 123.733 283.631 123.511C283.918 123.287 284.231 123.131 284.569 123.043C284.91 122.952 285.245 122.906 285.575 122.906C285.785 122.906 286.026 122.932 286.299 122.983C286.575 123.031 286.84 123.132 287.096 123.285C287.354 123.439 287.569 123.67 287.739 123.98C287.91 124.29 287.995 124.704 287.995 125.224V129.537H286.989V128.651H286.938C286.87 128.793 286.756 128.945 286.597 129.106C286.438 129.268 286.227 129.406 285.962 129.52C285.698 129.633 285.376 129.69 284.995 129.69ZM285.148 128.787C285.546 128.787 285.881 128.709 286.154 128.553C286.43 128.396 286.637 128.195 286.776 127.947C286.918 127.7 286.989 127.44 286.989 127.168V126.247C286.947 126.298 286.853 126.345 286.708 126.388C286.566 126.428 286.401 126.463 286.214 126.494C286.029 126.523 285.849 126.548 285.673 126.571C285.499 126.591 285.359 126.608 285.251 126.622C284.989 126.656 284.745 126.712 284.518 126.788C284.293 126.862 284.112 126.974 283.972 127.125C283.836 127.273 283.768 127.474 283.768 127.73C283.768 128.079 283.897 128.344 284.156 128.523C284.417 128.699 284.748 128.787 285.148 128.787Z" fill="#001F24"/>
<rect x="311" y="113" width="25" height="23.3776" rx="11.6888" fill="#BDEAF4"/>
<path d="M320.699 127.886V127.016L324.534 120.948H325.165V122.295H324.739L321.841 126.88V126.948H327.006V127.886H320.699ZM324.807 129.676V127.622V127.217V120.948H325.812V129.676H324.807Z" fill="#001F24"/>
<path d="M191.646 162.354C191.842 162.549 192.158 162.549 192.354 162.354L195.536 159.172C195.731 158.976 195.731 158.66 195.536 158.464C195.34 158.269 195.024 158.269 194.828 158.464L192 161.293L189.172 158.464C188.976 158.269 188.66 158.269 188.464 158.464C188.269 158.66 188.269 158.976 188.464 159.172L191.646 162.354ZM191.5 144L191.5 162L192.5 162L192.5 144L191.5 144Z" fill="black"/>
<path d="M228.354 87.6464C228.158 87.4512 227.842 87.4512 227.646 87.6464L224.464 90.8284C224.269 91.0237 224.269 91.3403 224.464 91.5355C224.66 91.7308 224.976 91.7308 225.172 91.5355L228 88.7071L230.828 91.5355C231.024 91.7308 231.34 91.7308 231.536 91.5355C231.731 91.3403 231.731 91.0237 231.536 90.8284L228.354 87.6464ZM228.5 104L228.5 88L227.5 88L227.5 104L228.5 104Z" fill="black"/>
<path d="M153.415 182H152.307L155.511 173.273H156.602L159.807 182H158.699L156.091 174.653H156.023L153.415 182ZM153.824 178.591H158.29V179.528H153.824V178.591ZM162.036 178.062V182H161.03V175.455H162.001V176.477H162.087C162.24 176.145 162.473 175.878 162.786 175.676C163.098 175.472 163.501 175.369 163.996 175.369C164.439 175.369 164.827 175.46 165.159 175.642C165.491 175.821 165.75 176.094 165.935 176.46C166.119 176.824 166.212 177.284 166.212 177.841V182H165.206V177.909C165.206 177.395 165.072 176.994 164.805 176.707C164.538 176.418 164.172 176.273 163.706 176.273C163.385 176.273 163.098 176.342 162.845 176.482C162.595 176.621 162.398 176.824 162.253 177.091C162.108 177.358 162.036 177.682 162.036 178.062ZM170.521 182.136C169.975 182.136 169.494 181.999 169.076 181.723C168.659 181.445 168.332 181.053 168.096 180.547C167.86 180.038 167.743 179.438 167.743 178.744C167.743 178.057 167.86 177.46 168.096 176.955C168.332 176.449 168.66 176.058 169.081 175.783C169.501 175.507 169.987 175.369 170.538 175.369C170.964 175.369 171.301 175.44 171.548 175.582C171.798 175.722 171.988 175.881 172.119 176.06C172.252 176.236 172.356 176.381 172.43 176.494H172.515V173.273H173.521V182H172.549V180.994H172.43C172.356 181.114 172.251 181.264 172.115 181.446C171.978 181.625 171.784 181.786 171.531 181.928C171.278 182.067 170.941 182.136 170.521 182.136ZM170.657 181.233C171.061 181.233 171.402 181.128 171.68 180.918C171.958 180.705 172.17 180.411 172.315 180.036C172.46 179.658 172.532 179.222 172.532 178.727C172.532 178.239 172.461 177.811 172.319 177.445C172.177 177.075 171.967 176.788 171.689 176.584C171.41 176.376 171.066 176.273 170.657 176.273C170.231 176.273 169.876 176.382 169.592 176.601C169.311 176.817 169.099 177.111 168.957 177.483C168.818 177.852 168.748 178.267 168.748 178.727C168.748 179.193 168.819 179.616 168.961 179.997C169.106 180.375 169.319 180.676 169.6 180.901C169.885 181.122 170.237 181.233 170.657 181.233ZM175.502 182V175.455H176.474V176.443H176.542C176.662 176.119 176.877 175.857 177.19 175.655C177.502 175.453 177.855 175.352 178.247 175.352C178.321 175.352 178.413 175.354 178.524 175.357C178.635 175.359 178.718 175.364 178.775 175.369V176.392C178.741 176.384 178.663 176.371 178.541 176.354C178.422 176.334 178.295 176.324 178.162 176.324C177.843 176.324 177.559 176.391 177.309 176.524C177.062 176.655 176.866 176.837 176.721 177.07C176.579 177.3 176.508 177.562 176.508 177.858V182H175.502ZM182.427 182.136C181.836 182.136 181.318 181.996 180.872 181.714C180.429 181.433 180.082 181.04 179.832 180.534C179.585 180.028 179.461 179.437 179.461 178.761C179.461 178.08 179.585 177.484 179.832 176.976C180.082 176.467 180.429 176.072 180.872 175.791C181.318 175.51 181.836 175.369 182.427 175.369C183.018 175.369 183.535 175.51 183.978 175.791C184.424 176.072 184.771 176.467 185.018 176.976C185.268 177.484 185.393 178.08 185.393 178.761C185.393 179.437 185.268 180.028 185.018 180.534C184.771 181.04 184.424 181.433 183.978 181.714C183.535 181.996 183.018 182.136 182.427 182.136ZM182.427 181.233C182.876 181.233 183.245 181.118 183.535 180.888C183.825 180.658 184.039 180.355 184.179 179.98C184.318 179.605 184.387 179.199 184.387 178.761C184.387 178.324 184.318 177.916 184.179 177.538C184.039 177.161 183.825 176.855 183.535 176.622C183.245 176.389 182.876 176.273 182.427 176.273C181.978 176.273 181.609 176.389 181.319 176.622C181.029 176.855 180.815 177.161 180.676 177.538C180.537 177.916 180.467 178.324 180.467 178.761C180.467 179.199 180.537 179.605 180.676 179.98C180.815 180.355 181.029 180.658 181.319 180.888C181.609 181.118 181.978 181.233 182.427 181.233ZM186.928 182V175.455H187.934V182H186.928ZM187.44 174.364C187.244 174.364 187.075 174.297 186.933 174.163C186.793 174.03 186.724 173.869 186.724 173.682C186.724 173.494 186.793 173.334 186.933 173.2C187.075 173.067 187.244 173 187.44 173C187.636 173 187.803 173.067 187.942 173.2C188.085 173.334 188.156 173.494 188.156 173.682C188.156 173.869 188.085 174.03 187.942 174.163C187.803 174.297 187.636 174.364 187.44 174.364ZM192.248 182.136C191.702 182.136 191.221 181.999 190.803 181.723C190.385 181.445 190.059 181.053 189.823 180.547C189.587 180.038 189.469 179.438 189.469 178.744C189.469 178.057 189.587 177.46 189.823 176.955C190.059 176.449 190.387 176.058 190.807 175.783C191.228 175.507 191.713 175.369 192.265 175.369C192.691 175.369 193.027 175.44 193.275 175.582C193.525 175.722 193.715 175.881 193.846 176.06C193.979 176.236 194.083 176.381 194.157 176.494H194.242V173.273H195.248V182H194.276V180.994H194.157C194.083 181.114 193.978 181.264 193.841 181.446C193.705 181.625 193.51 181.786 193.257 181.928C193.005 182.067 192.668 182.136 192.248 182.136ZM192.384 181.233C192.787 181.233 193.128 181.128 193.407 180.918C193.685 180.705 193.897 180.411 194.042 180.036C194.186 179.658 194.259 179.222 194.259 178.727C194.259 178.239 194.188 177.811 194.046 177.445C193.904 177.075 193.694 176.788 193.415 176.584C193.137 176.376 192.793 176.273 192.384 176.273C191.958 176.273 191.603 176.382 191.319 176.601C191.037 176.817 190.826 177.111 190.684 177.483C190.544 177.852 190.475 178.267 190.475 178.727C190.475 179.193 190.546 179.616 190.688 179.997C190.833 180.375 191.046 180.676 191.327 180.901C191.611 181.122 191.963 181.233 192.384 181.233ZM200.74 173.273H202.002L204.968 180.517H205.07L208.036 173.273H209.297V182H208.309V175.369H208.223L205.496 182H204.542L201.814 175.369H201.729V182H200.74V173.273ZM213.206 182.153C212.791 182.153 212.415 182.075 212.077 181.919C211.739 181.76 211.47 181.531 211.271 181.233C211.072 180.932 210.973 180.568 210.973 180.142C210.973 179.767 211.047 179.463 211.195 179.23C211.342 178.994 211.54 178.81 211.787 178.676C212.034 178.543 212.307 178.443 212.605 178.378C212.906 178.31 213.209 178.256 213.513 178.216C213.911 178.165 214.233 178.126 214.48 178.101C214.73 178.072 214.912 178.026 215.026 177.96C215.142 177.895 215.2 177.781 215.2 177.619V177.585C215.2 177.165 215.085 176.838 214.855 176.605C214.628 176.372 214.283 176.256 213.82 176.256C213.339 176.256 212.963 176.361 212.69 176.571C212.418 176.781 212.226 177.006 212.115 177.244L211.161 176.903C211.331 176.506 211.558 176.196 211.842 175.974C212.129 175.75 212.442 175.594 212.78 175.506C213.121 175.415 213.456 175.369 213.786 175.369C213.996 175.369 214.237 175.395 214.51 175.446C214.786 175.494 215.051 175.595 215.307 175.749C215.565 175.902 215.78 176.134 215.95 176.443C216.121 176.753 216.206 177.168 216.206 177.688V182H215.2V181.114H215.149C215.081 181.256 214.967 181.408 214.808 181.57C214.649 181.732 214.438 181.869 214.173 181.983C213.909 182.097 213.587 182.153 213.206 182.153ZM213.359 181.25C213.757 181.25 214.092 181.172 214.365 181.016C214.641 180.859 214.848 180.658 214.987 180.411C215.129 180.163 215.2 179.903 215.2 179.631V178.71C215.158 178.761 215.064 178.808 214.919 178.851C214.777 178.891 214.612 178.926 214.425 178.957C214.24 178.986 214.06 179.011 213.884 179.034C213.71 179.054 213.57 179.071 213.462 179.085C213.2 179.119 212.956 179.175 212.729 179.251C212.504 179.325 212.322 179.437 212.183 179.588C212.047 179.736 211.979 179.937 211.979 180.193C211.979 180.543 212.108 180.807 212.366 180.986C212.628 181.162 212.959 181.25 213.359 181.25ZM218.042 175.455H219.047V182.477C219.047 182.881 218.978 183.23 218.838 183.526C218.702 183.821 218.495 184.05 218.216 184.212C217.941 184.374 217.593 184.455 217.172 184.455C217.138 184.455 217.104 184.455 217.07 184.455C217.036 184.455 217.002 184.455 216.968 184.455V183.517C217.002 183.517 217.033 183.517 217.061 183.517C217.09 183.517 217.121 183.517 217.155 183.517C217.462 183.517 217.686 183.426 217.828 183.244C217.971 183.065 218.042 182.81 218.042 182.477V175.455ZM218.536 174.364C218.34 174.364 218.171 174.297 218.029 174.163C217.89 174.03 217.82 173.869 217.82 173.682C217.82 173.494 217.89 173.334 218.029 173.2C218.171 173.067 218.34 173 218.536 173C218.732 173 218.9 173.067 219.039 173.2C219.181 173.334 219.252 173.494 219.252 173.682C219.252 173.869 219.181 174.03 219.039 174.163C218.9 174.297 218.732 174.364 218.536 174.364ZM223.548 182.136C222.957 182.136 222.439 181.996 221.993 181.714C221.55 181.433 221.203 181.04 220.953 180.534C220.706 180.028 220.582 179.437 220.582 178.761C220.582 178.08 220.706 177.484 220.953 176.976C221.203 176.467 221.55 176.072 221.993 175.791C222.439 175.51 222.957 175.369 223.548 175.369C224.139 175.369 224.656 175.51 225.099 175.791C225.545 176.072 225.892 176.467 226.139 176.976C226.389 177.484 226.514 178.08 226.514 178.761C226.514 179.437 226.389 180.028 226.139 180.534C225.892 181.04 225.545 181.433 225.099 181.714C224.656 181.996 224.139 182.136 223.548 182.136ZM223.548 181.233C223.997 181.233 224.366 181.118 224.656 180.888C224.946 180.658 225.161 180.355 225.3 179.98C225.439 179.605 225.509 179.199 225.509 178.761C225.509 178.324 225.439 177.916 225.3 177.538C225.161 177.161 224.946 176.855 224.656 176.622C224.366 176.389 223.997 176.273 223.548 176.273C223.099 176.273 222.73 176.389 222.44 176.622C222.151 176.855 221.936 177.161 221.797 177.538C221.658 177.916 221.588 178.324 221.588 178.761C221.588 179.199 221.658 179.605 221.797 179.98C221.936 180.355 222.151 180.658 222.44 180.888C222.73 181.118 223.099 181.233 223.548 181.233ZM228.049 182V175.455H229.021V176.443H229.089C229.208 176.119 229.424 175.857 229.737 175.655C230.049 175.453 230.402 175.352 230.794 175.352C230.868 175.352 230.96 175.354 231.071 175.357C231.181 175.359 231.265 175.364 231.322 175.369V176.392C231.288 176.384 231.21 176.371 231.088 176.354C230.968 176.334 230.842 176.324 230.708 176.324C230.39 176.324 230.106 176.391 229.856 176.524C229.609 176.655 229.413 176.837 229.268 177.07C229.126 177.3 229.055 177.562 229.055 177.858V182H228.049Z" fill="#002109"/>
<path d="M189.415 78H188.307L191.511 69.2727H192.602L195.807 78H194.699L192.091 70.6534H192.023L189.415 78ZM189.824 74.5909H194.29V75.5284H189.824V74.5909ZM198.036 74.0625V78H197.03V71.4545H198.001V72.4773H198.087C198.24 72.1449 198.473 71.8778 198.786 71.6761C199.098 71.4716 199.501 71.3693 199.996 71.3693C200.439 71.3693 200.827 71.4602 201.159 71.642C201.491 71.821 201.75 72.0938 201.935 72.4602C202.119 72.8239 202.212 73.2841 202.212 73.8409V78H201.206V73.9091C201.206 73.3949 201.072 72.9943 200.805 72.7074C200.538 72.4176 200.172 72.2727 199.706 72.2727C199.385 72.2727 199.098 72.3423 198.845 72.4815C198.595 72.6207 198.398 72.8239 198.253 73.0909C198.108 73.358 198.036 73.6818 198.036 74.0625ZM206.521 78.1364C205.975 78.1364 205.494 77.9986 205.076 77.723C204.659 77.4446 204.332 77.0526 204.096 76.5469C203.86 76.0384 203.743 75.4375 203.743 74.7443C203.743 74.0568 203.86 73.4602 204.096 72.9545C204.332 72.4489 204.66 72.0582 205.081 71.7827C205.501 71.5071 205.987 71.3693 206.538 71.3693C206.964 71.3693 207.301 71.4403 207.548 71.5824C207.798 71.7216 207.988 71.8807 208.119 72.0597C208.252 72.2358 208.356 72.3807 208.43 72.4943H208.515V69.2727H209.521V78H208.549V76.9943H208.43C208.356 77.1136 208.251 77.2642 208.115 77.446C207.978 77.625 207.784 77.7855 207.531 77.9276C207.278 78.0668 206.941 78.1364 206.521 78.1364ZM206.657 77.233C207.061 77.233 207.402 77.1278 207.68 76.9176C207.958 76.7045 208.17 76.4105 208.315 76.0355C208.46 75.6577 208.532 75.2216 208.532 74.7273C208.532 74.2386 208.461 73.8111 208.319 73.4446C208.177 73.0753 207.967 72.7884 207.689 72.5838C207.41 72.3764 207.066 72.2727 206.657 72.2727C206.231 72.2727 205.876 72.3821 205.592 72.6009C205.311 72.8168 205.099 73.1108 204.957 73.483C204.818 73.8523 204.748 74.267 204.748 74.7273C204.748 75.1932 204.819 75.6165 204.961 75.9972C205.106 76.375 205.319 76.6761 205.6 76.9006C205.885 77.1222 206.237 77.233 206.657 77.233ZM211.502 78V71.4545H212.474V72.4432H212.542C212.662 72.1193 212.877 71.8565 213.19 71.6548C213.502 71.4531 213.855 71.3523 214.247 71.3523C214.321 71.3523 214.413 71.3537 214.524 71.3565C214.635 71.3594 214.718 71.3636 214.775 71.3693V72.392C214.741 72.3835 214.663 72.3707 214.541 72.3537C214.422 72.3338 214.295 72.3239 214.162 72.3239C213.843 72.3239 213.559 72.3906 213.309 72.5241C213.062 72.6548 212.866 72.8366 212.721 73.0696C212.579 73.2997 212.508 73.5625 212.508 73.858V78H211.502ZM218.427 78.1364C217.836 78.1364 217.318 77.9957 216.872 77.7145C216.429 77.4332 216.082 77.0398 215.832 76.5341C215.585 76.0284 215.461 75.4375 215.461 74.7614C215.461 74.0795 215.585 73.4844 215.832 72.9759C216.082 72.4673 216.429 72.0724 216.872 71.7912C217.318 71.5099 217.836 71.3693 218.427 71.3693C219.018 71.3693 219.535 71.5099 219.978 71.7912C220.424 72.0724 220.771 72.4673 221.018 72.9759C221.268 73.4844 221.393 74.0795 221.393 74.7614C221.393 75.4375 221.268 76.0284 221.018 76.5341C220.771 77.0398 220.424 77.4332 219.978 77.7145C219.535 77.9957 219.018 78.1364 218.427 78.1364ZM218.427 77.233C218.876 77.233 219.245 77.1179 219.535 76.8878C219.825 76.6577 220.039 76.3551 220.179 75.9801C220.318 75.6051 220.387 75.1989 220.387 74.7614C220.387 74.3239 220.318 73.9162 220.179 73.5384C220.039 73.1605 219.825 72.8551 219.535 72.6222C219.245 72.3892 218.876 72.2727 218.427 72.2727C217.978 72.2727 217.609 72.3892 217.319 72.6222C217.029 72.8551 216.815 73.1605 216.676 73.5384C216.537 73.9162 216.467 74.3239 216.467 74.7614C216.467 75.1989 216.537 75.6051 216.676 75.9801C216.815 76.3551 217.029 76.6577 217.319 76.8878C217.609 77.1179 217.978 77.233 218.427 77.233ZM222.928 78V71.4545H223.934V78H222.928ZM223.44 70.3636C223.244 70.3636 223.075 70.2969 222.933 70.1634C222.793 70.0298 222.724 69.8693 222.724 69.6818C222.724 69.4943 222.793 69.3338 222.933 69.2003C223.075 69.0668 223.244 69 223.44 69C223.636 69 223.803 69.0668 223.942 69.2003C224.085 69.3338 224.156 69.4943 224.156 69.6818C224.156 69.8693 224.085 70.0298 223.942 70.1634C223.803 70.2969 223.636 70.3636 223.44 70.3636ZM228.248 78.1364C227.702 78.1364 227.221 77.9986 226.803 77.723C226.385 77.4446 226.059 77.0526 225.823 76.5469C225.587 76.0384 225.469 75.4375 225.469 74.7443C225.469 74.0568 225.587 73.4602 225.823 72.9545C226.059 72.4489 226.387 72.0582 226.807 71.7827C227.228 71.5071 227.713 71.3693 228.265 71.3693C228.691 71.3693 229.027 71.4403 229.275 71.5824C229.525 71.7216 229.715 71.8807 229.846 72.0597C229.979 72.2358 230.083 72.3807 230.157 72.4943H230.242V69.2727H231.248V78H230.276V76.9943H230.157C230.083 77.1136 229.978 77.2642 229.841 77.446C229.705 77.625 229.51 77.7855 229.257 77.9276C229.005 78.0668 228.668 78.1364 228.248 78.1364ZM228.384 77.233C228.787 77.233 229.128 77.1278 229.407 76.9176C229.685 76.7045 229.897 76.4105 230.042 76.0355C230.186 75.6577 230.259 75.2216 230.259 74.7273C230.259 74.2386 230.188 73.8111 230.046 73.4446C229.904 73.0753 229.694 72.7884 229.415 72.5838C229.137 72.3764 228.793 72.2727 228.384 72.2727C227.958 72.2727 227.603 72.3821 227.319 72.6009C227.037 72.8168 226.826 73.1108 226.684 73.483C226.544 73.8523 226.475 74.267 226.475 74.7273C226.475 75.1932 226.546 75.6165 226.688 75.9972C226.833 76.375 227.046 76.6761 227.327 76.9006C227.611 77.1222 227.963 77.233 228.384 77.233ZM236.74 69.2727H238.002L240.968 76.517H241.07L244.036 69.2727H245.297V78H244.309V71.3693H244.223L241.496 78H240.542L237.814 71.3693H237.729V78H236.74V69.2727ZM247.28 78V71.4545H248.286V78H247.28ZM247.791 70.3636C247.595 70.3636 247.426 70.2969 247.284 70.1634C247.145 70.0298 247.075 69.8693 247.075 69.6818C247.075 69.4943 247.145 69.3338 247.284 69.2003C247.426 69.0668 247.595 69 247.791 69C247.987 69 248.155 69.0668 248.294 69.2003C248.436 69.3338 248.507 69.4943 248.507 69.6818C248.507 69.8693 248.436 70.0298 248.294 70.1634C248.155 70.2969 247.987 70.3636 247.791 70.3636ZM251.133 74.0625V78H250.127V71.4545H251.099V72.4773H251.184C251.338 72.1449 251.571 71.8778 251.883 71.6761C252.196 71.4716 252.599 71.3693 253.093 71.3693C253.537 71.3693 253.924 71.4602 254.257 71.642C254.589 71.821 254.848 72.0938 255.032 72.4602C255.217 72.8239 255.309 73.2841 255.309 73.8409V78H254.304V73.9091C254.304 73.3949 254.17 72.9943 253.903 72.7074C253.636 72.4176 253.27 72.2727 252.804 72.2727C252.483 72.2727 252.196 72.3423 251.943 72.4815C251.693 72.6207 251.495 72.8239 251.35 73.0909C251.206 73.358 251.133 73.6818 251.133 74.0625ZM259.806 78.1364C259.215 78.1364 258.697 77.9957 258.251 77.7145C257.808 77.4332 257.461 77.0398 257.211 76.5341C256.964 76.0284 256.84 75.4375 256.84 74.7614C256.84 74.0795 256.964 73.4844 257.211 72.9759C257.461 72.4673 257.808 72.0724 258.251 71.7912C258.697 71.5099 259.215 71.3693 259.806 71.3693C260.397 71.3693 260.914 71.5099 261.357 71.7912C261.803 72.0724 262.15 72.4673 262.397 72.9759C262.647 73.4844 262.772 74.0795 262.772 74.7614C262.772 75.4375 262.647 76.0284 262.397 76.5341C262.15 77.0398 261.803 77.4332 261.357 77.7145C260.914 77.9957 260.397 78.1364 259.806 78.1364ZM259.806 77.233C260.255 77.233 260.624 77.1179 260.914 76.8878C261.204 76.6577 261.418 76.3551 261.558 75.9801C261.697 75.6051 261.766 75.1989 261.766 74.7614C261.766 74.3239 261.697 73.9162 261.558 73.5384C261.418 73.1605 261.204 72.8551 260.914 72.6222C260.624 72.3892 260.255 72.2727 259.806 72.2727C259.357 72.2727 258.988 72.3892 258.698 72.6222C258.408 72.8551 258.194 73.1605 258.055 73.5384C257.915 73.9162 257.846 74.3239 257.846 74.7614C257.846 75.1989 257.915 75.6051 258.055 75.9801C258.194 76.3551 258.408 76.6577 258.698 76.8878C258.988 77.1179 259.357 77.233 259.806 77.233ZM264.307 78V71.4545H265.279V72.4432H265.347C265.466 72.1193 265.682 71.8565 265.995 71.6548C266.307 71.4531 266.659 71.3523 267.051 71.3523C267.125 71.3523 267.218 71.3537 267.328 71.3565C267.439 71.3594 267.523 71.3636 267.58 71.3693V72.392C267.546 72.3835 267.468 72.3707 267.346 72.3537C267.226 72.3338 267.1 72.3239 266.966 72.3239C266.648 72.3239 266.364 72.3906 266.114 72.5241C265.867 72.6548 265.671 72.8366 265.526 73.0696C265.384 73.2997 265.313 73.5625 265.313 73.858V78H264.307Z" fill="#002109"/>
<path d="M323.646 189.354C323.842 189.549 324.158 189.549 324.354 189.354L327.536 186.172C327.731 185.976 327.731 185.66 327.536 185.464C327.34 185.269 327.024 185.269 326.828 185.464L324 188.293L321.172 185.464C320.976 185.269 320.66 185.269 320.464 185.464C320.269 185.66 320.269 185.976 320.464 186.172L323.646 189.354ZM323.5 144L323.5 189L324.5 189L324.5 144L323.5 144Z" fill="black"/>
<path d="M266.75 209H264.057V200.273H266.869C267.716 200.273 268.44 200.447 269.043 200.797C269.645 201.143 270.107 201.642 270.428 202.293C270.749 202.94 270.909 203.716 270.909 204.619C270.909 205.528 270.747 206.311 270.423 206.967C270.099 207.621 269.628 208.124 269.009 208.476C268.389 208.825 267.636 209 266.75 209ZM265.114 208.062H266.682C267.403 208.062 268.001 207.923 268.476 207.645C268.95 207.366 269.304 206.97 269.537 206.456C269.77 205.942 269.886 205.33 269.886 204.619C269.886 203.915 269.771 203.308 269.541 202.8C269.311 202.288 268.967 201.896 268.51 201.624C268.053 201.348 267.483 201.21 266.801 201.21H265.114V208.062ZM275.29 209.136C274.659 209.136 274.115 208.997 273.658 208.719C273.203 208.438 272.852 208.045 272.605 207.543C272.361 207.037 272.239 206.449 272.239 205.778C272.239 205.108 272.361 204.517 272.605 204.006C272.852 203.491 273.196 203.091 273.636 202.804C274.08 202.514 274.597 202.369 275.188 202.369C275.528 202.369 275.865 202.426 276.197 202.54C276.53 202.653 276.832 202.838 277.105 203.094C277.378 203.347 277.595 203.682 277.757 204.099C277.919 204.517 278 205.031 278 205.642V206.068H272.955V205.199H276.977C276.977 204.83 276.903 204.5 276.756 204.21C276.611 203.92 276.403 203.692 276.134 203.524C275.866 203.357 275.551 203.273 275.188 203.273C274.787 203.273 274.44 203.372 274.148 203.571C273.858 203.767 273.635 204.023 273.479 204.338C273.322 204.653 273.244 204.991 273.244 205.352V205.932C273.244 206.426 273.33 206.845 273.5 207.189C273.673 207.53 273.913 207.79 274.22 207.969C274.527 208.145 274.884 208.233 275.29 208.233C275.554 208.233 275.793 208.196 276.006 208.122C276.222 208.045 276.408 207.932 276.564 207.781C276.72 207.628 276.841 207.437 276.926 207.21L277.898 207.483C277.795 207.812 277.624 208.102 277.382 208.352C277.141 208.599 276.842 208.793 276.487 208.932C276.132 209.068 275.733 209.136 275.29 209.136ZM284.683 202.455L282.262 209H281.24L278.819 202.455H279.91L281.717 207.67H281.785L283.592 202.455H284.683ZM288.52 209.136C287.89 209.136 287.346 208.997 286.888 208.719C286.434 208.438 286.083 208.045 285.836 207.543C285.591 207.037 285.469 206.449 285.469 205.778C285.469 205.108 285.591 204.517 285.836 204.006C286.083 203.491 286.426 203.091 286.867 202.804C287.31 202.514 287.827 202.369 288.418 202.369C288.759 202.369 289.096 202.426 289.428 202.54C289.76 202.653 290.063 202.838 290.336 203.094C290.608 203.347 290.826 203.682 290.988 204.099C291.15 204.517 291.23 205.031 291.23 205.642V206.068H286.185V205.199H290.208C290.208 204.83 290.134 204.5 289.986 204.21C289.841 203.92 289.634 203.692 289.364 203.524C289.097 203.357 288.782 203.273 288.418 203.273C288.017 203.273 287.671 203.372 287.378 203.571C287.088 203.767 286.865 204.023 286.709 204.338C286.553 204.653 286.475 204.991 286.475 205.352V205.932C286.475 206.426 286.56 206.845 286.73 207.189C286.904 207.53 287.144 207.79 287.451 207.969C287.757 208.145 288.114 208.233 288.52 208.233C288.784 208.233 289.023 208.196 289.236 208.122C289.452 208.045 289.638 207.932 289.794 207.781C289.951 207.628 290.071 207.437 290.157 207.21L291.128 207.483C291.026 207.812 290.854 208.102 290.613 208.352C290.371 208.599 290.073 208.793 289.718 208.932C289.363 209.068 288.963 209.136 288.52 209.136ZM293.766 200.273V209H292.76V200.273H293.766ZM298.267 209.136C297.676 209.136 297.158 208.996 296.712 208.714C296.268 208.433 295.922 208.04 295.672 207.534C295.425 207.028 295.301 206.437 295.301 205.761C295.301 205.08 295.425 204.484 295.672 203.976C295.922 203.467 296.268 203.072 296.712 202.791C297.158 202.51 297.676 202.369 298.267 202.369C298.858 202.369 299.375 202.51 299.818 202.791C300.264 203.072 300.611 203.467 300.858 203.976C301.108 204.484 301.233 205.08 301.233 205.761C301.233 206.437 301.108 207.028 300.858 207.534C300.611 208.04 300.264 208.433 299.818 208.714C299.375 208.996 298.858 209.136 298.267 209.136ZM298.267 208.233C298.716 208.233 299.085 208.118 299.375 207.888C299.665 207.658 299.879 207.355 300.018 206.98C300.158 206.605 300.227 206.199 300.227 205.761C300.227 205.324 300.158 204.916 300.018 204.538C299.879 204.161 299.665 203.855 299.375 203.622C299.085 203.389 298.716 203.273 298.267 203.273C297.818 203.273 297.449 203.389 297.159 203.622C296.869 203.855 296.655 204.161 296.516 204.538C296.376 204.916 296.307 205.324 296.307 205.761C296.307 206.199 296.376 206.605 296.516 206.98C296.655 207.355 296.869 207.658 297.159 207.888C297.449 208.118 297.818 208.233 298.267 208.233ZM302.768 211.455V202.455H303.74V203.494H303.859C303.933 203.381 304.035 203.236 304.166 203.06C304.299 202.881 304.49 202.722 304.737 202.582C304.987 202.44 305.325 202.369 305.751 202.369C306.302 202.369 306.788 202.507 307.208 202.783C307.629 203.058 307.957 203.449 308.193 203.955C308.429 204.46 308.547 205.057 308.547 205.744C308.547 206.438 308.429 207.038 308.193 207.547C307.957 208.053 307.63 208.445 307.213 208.723C306.795 208.999 306.314 209.136 305.768 209.136C305.348 209.136 305.011 209.067 304.758 208.928C304.505 208.786 304.311 208.625 304.174 208.446C304.038 208.264 303.933 208.114 303.859 207.994H303.774V211.455H302.768ZM303.757 205.727C303.757 206.222 303.829 206.658 303.974 207.036C304.119 207.411 304.331 207.705 304.609 207.918C304.887 208.128 305.228 208.233 305.632 208.233C306.052 208.233 306.403 208.122 306.684 207.901C306.968 207.676 307.181 207.375 307.324 206.997C307.468 206.616 307.541 206.193 307.541 205.727C307.541 205.267 307.47 204.852 307.328 204.483C307.189 204.111 306.977 203.817 306.693 203.601C306.412 203.382 306.058 203.273 305.632 203.273C305.223 203.273 304.879 203.376 304.6 203.584C304.322 203.788 304.112 204.075 303.97 204.445C303.828 204.811 303.757 205.239 303.757 205.727ZM310.081 209V202.455H311.052V203.477H311.137C311.274 203.128 311.494 202.857 311.798 202.663C312.102 202.467 312.467 202.369 312.893 202.369C313.325 202.369 313.684 202.467 313.971 202.663C314.261 202.857 314.487 203.128 314.649 203.477H314.717C314.885 203.139 315.136 202.871 315.471 202.672C315.806 202.47 316.208 202.369 316.677 202.369C317.262 202.369 317.741 202.553 318.113 202.919C318.485 203.283 318.672 203.849 318.672 204.619V209H317.666V204.619C317.666 204.136 317.534 203.791 317.27 203.584C317.005 203.376 316.694 203.273 316.336 203.273C315.876 203.273 315.52 203.412 315.267 203.69C315.014 203.966 314.887 204.315 314.887 204.739V209H313.865V204.517C313.865 204.145 313.744 203.845 313.502 203.618C313.261 203.388 312.95 203.273 312.569 203.273C312.308 203.273 312.064 203.342 311.836 203.482C311.612 203.621 311.43 203.814 311.291 204.061C311.154 204.305 311.086 204.588 311.086 204.909V209H310.081ZM323.255 209.136C322.624 209.136 322.08 208.997 321.623 208.719C321.168 208.438 320.817 208.045 320.57 207.543C320.326 207.037 320.203 206.449 320.203 205.778C320.203 205.108 320.326 204.517 320.57 204.006C320.817 203.491 321.161 203.091 321.601 202.804C322.044 202.514 322.561 202.369 323.152 202.369C323.493 202.369 323.83 202.426 324.162 202.54C324.495 202.653 324.797 202.838 325.07 203.094C325.343 203.347 325.56 203.682 325.722 204.099C325.884 204.517 325.965 205.031 325.965 205.642V206.068H320.919V205.199H324.942C324.942 204.83 324.868 204.5 324.721 204.21C324.576 203.92 324.368 203.692 324.098 203.524C323.831 203.357 323.516 203.273 323.152 203.273C322.752 203.273 322.405 203.372 322.113 203.571C321.823 203.767 321.6 204.023 321.444 204.338C321.287 204.653 321.209 204.991 321.209 205.352V205.932C321.209 206.426 321.294 206.845 321.465 207.189C321.638 207.53 321.878 207.79 322.185 207.969C322.492 208.145 322.848 208.233 323.255 208.233C323.519 208.233 323.757 208.196 323.971 208.122C324.186 208.045 324.373 207.932 324.529 207.781C324.685 207.628 324.806 207.437 324.891 207.21L325.863 207.483C325.76 207.812 325.588 208.102 325.347 208.352C325.105 208.599 324.807 208.793 324.452 208.932C324.097 209.068 323.698 209.136 323.255 209.136ZM328.5 205.062V209H327.495V202.455H328.466V203.477H328.551C328.705 203.145 328.938 202.878 329.25 202.676C329.563 202.472 329.966 202.369 330.461 202.369C330.904 202.369 331.292 202.46 331.624 202.642C331.956 202.821 332.215 203.094 332.4 203.46C332.584 203.824 332.676 204.284 332.676 204.841V209H331.671V204.909C331.671 204.395 331.537 203.994 331.27 203.707C331.003 203.418 330.637 203.273 330.171 203.273C329.85 203.273 329.563 203.342 329.31 203.482C329.06 203.621 328.863 203.824 328.718 204.091C328.573 204.358 328.5 204.682 328.5 205.062ZM337.361 202.455V203.307H333.969V202.455H337.361ZM334.957 200.886H335.963V207.125C335.963 207.409 336.004 207.622 336.087 207.764C336.172 207.903 336.28 207.997 336.411 208.045C336.544 208.091 336.685 208.114 336.832 208.114C336.943 208.114 337.034 208.108 337.105 208.097C337.176 208.082 337.233 208.071 337.276 208.062L337.48 208.966C337.412 208.991 337.317 209.017 337.195 209.043C337.072 209.071 336.918 209.085 336.73 209.085C336.446 209.085 336.168 209.024 335.895 208.902C335.625 208.78 335.401 208.594 335.222 208.344C335.045 208.094 334.957 207.778 334.957 207.398V200.886ZM342.743 200.273L345.334 207.619H345.436L348.027 200.273H349.135L345.93 209H344.839L341.635 200.273H342.743ZM352.493 209.136C351.862 209.136 351.318 208.997 350.861 208.719C350.406 208.438 350.055 208.045 349.808 207.543C349.564 207.037 349.442 206.449 349.442 205.778C349.442 205.108 349.564 204.517 349.808 204.006C350.055 203.491 350.399 203.091 350.839 202.804C351.283 202.514 351.8 202.369 352.391 202.369C352.732 202.369 353.068 202.426 353.401 202.54C353.733 202.653 354.036 202.838 354.308 203.094C354.581 203.347 354.798 203.682 354.96 204.099C355.122 204.517 355.203 205.031 355.203 205.642V206.068H350.158V205.199H354.18C354.18 204.83 354.107 204.5 353.959 204.21C353.814 203.92 353.607 203.692 353.337 203.524C353.07 203.357 352.754 203.273 352.391 203.273C351.99 203.273 351.643 203.372 351.351 203.571C351.061 203.767 350.838 204.023 350.682 204.338C350.526 204.653 350.447 204.991 350.447 205.352V205.932C350.447 206.426 350.533 206.845 350.703 207.189C350.876 207.53 351.116 207.79 351.423 207.969C351.73 208.145 352.087 208.233 352.493 208.233C352.757 208.233 352.996 208.196 353.209 208.122C353.425 208.045 353.611 207.932 353.767 207.781C353.923 207.628 354.044 207.437 354.129 207.21L355.101 207.483C354.999 207.812 354.827 208.102 354.585 208.352C354.344 208.599 354.045 208.793 353.69 208.932C353.335 209.068 352.936 209.136 352.493 209.136ZM356.733 209V202.455H357.705V203.443H357.773C357.892 203.119 358.108 202.857 358.42 202.655C358.733 202.453 359.085 202.352 359.477 202.352C359.551 202.352 359.643 202.354 359.754 202.357C359.865 202.359 359.949 202.364 360.006 202.369V203.392C359.972 203.384 359.893 203.371 359.771 203.354C359.652 203.334 359.526 203.324 359.392 203.324C359.074 203.324 358.79 203.391 358.54 203.524C358.293 203.655 358.097 203.837 357.952 204.07C357.81 204.3 357.739 204.562 357.739 204.858V209H356.733ZM365.834 203.92L364.931 204.176C364.874 204.026 364.79 203.879 364.679 203.737C364.571 203.592 364.424 203.473 364.236 203.379C364.049 203.286 363.809 203.239 363.516 203.239C363.115 203.239 362.782 203.331 362.515 203.516C362.25 203.697 362.118 203.929 362.118 204.21C362.118 204.46 362.209 204.658 362.391 204.803C362.573 204.947 362.857 205.068 363.243 205.165L364.215 205.403C364.8 205.545 365.236 205.763 365.523 206.055C365.81 206.345 365.953 206.719 365.953 207.176C365.953 207.551 365.846 207.886 365.63 208.182C365.417 208.477 365.118 208.71 364.735 208.881C364.351 209.051 363.905 209.136 363.397 209.136C362.729 209.136 362.176 208.991 361.739 208.702C361.301 208.412 361.025 207.989 360.908 207.432L361.863 207.193C361.953 207.545 362.125 207.81 362.378 207.986C362.634 208.162 362.968 208.25 363.38 208.25C363.848 208.25 364.221 208.151 364.496 207.952C364.775 207.75 364.914 207.509 364.914 207.227C364.914 207 364.834 206.81 364.675 206.656C364.516 206.5 364.272 206.384 363.942 206.307L362.851 206.051C362.252 205.909 361.811 205.689 361.53 205.391C361.252 205.089 361.113 204.713 361.113 204.261C361.113 203.892 361.216 203.565 361.424 203.281C361.634 202.997 361.919 202.774 362.28 202.612C362.644 202.45 363.056 202.369 363.516 202.369C364.164 202.369 364.672 202.511 365.042 202.795C365.414 203.08 365.678 203.455 365.834 203.92ZM367.467 209V202.455H368.473V209H367.467ZM367.979 201.364C367.783 201.364 367.614 201.297 367.472 201.163C367.332 201.03 367.263 200.869 367.263 200.682C367.263 200.494 367.332 200.334 367.472 200.2C367.614 200.067 367.783 200 367.979 200C368.175 200 368.342 200.067 368.482 200.2C368.624 200.334 368.695 200.494 368.695 200.682C368.695 200.869 368.624 201.03 368.482 201.163C368.342 201.297 368.175 201.364 367.979 201.364ZM372.974 209.136C372.383 209.136 371.865 208.996 371.419 208.714C370.975 208.433 370.629 208.04 370.379 207.534C370.132 207.028 370.008 206.437 370.008 205.761C370.008 205.08 370.132 204.484 370.379 203.976C370.629 203.467 370.975 203.072 371.419 202.791C371.865 202.51 372.383 202.369 372.974 202.369C373.565 202.369 374.082 202.51 374.525 202.791C374.971 203.072 375.318 203.467 375.565 203.976C375.815 204.484 375.94 205.08 375.94 205.761C375.94 206.437 375.815 207.028 375.565 207.534C375.318 208.04 374.971 208.433 374.525 208.714C374.082 208.996 373.565 209.136 372.974 209.136ZM372.974 208.233C373.423 208.233 373.792 208.118 374.082 207.888C374.372 207.658 374.586 207.355 374.725 206.98C374.865 206.605 374.934 206.199 374.934 205.761C374.934 205.324 374.865 204.916 374.725 204.538C374.586 204.161 374.372 203.855 374.082 203.622C373.792 203.389 373.423 203.273 372.974 203.273C372.525 203.273 372.156 203.389 371.866 203.622C371.576 203.855 371.362 204.161 371.223 204.538C371.083 204.916 371.014 205.324 371.014 205.761C371.014 206.199 371.083 206.605 371.223 206.98C371.362 207.355 371.576 207.658 371.866 207.888C372.156 208.118 372.525 208.233 372.974 208.233ZM378.481 205.062V209H377.475V202.455H378.447V203.477H378.532C378.685 203.145 378.918 202.878 379.231 202.676C379.543 202.472 379.947 202.369 380.441 202.369C380.884 202.369 381.272 202.46 381.604 202.642C381.937 202.821 382.195 203.094 382.38 203.46C382.565 203.824 382.657 204.284 382.657 204.841V209H381.651V204.909C381.651 204.395 381.518 203.994 381.251 203.707C380.984 203.418 380.617 203.273 380.151 203.273C379.83 203.273 379.543 203.342 379.29 203.482C379.04 203.621 378.843 203.824 378.698 204.091C378.553 204.358 378.481 204.682 378.481 205.062Z" fill="#002109"/>
<path d="M276.354 49.6464C276.158 49.4512 275.842 49.4512 275.646 49.6464L272.464 52.8284C272.269 53.0237 272.269 53.3403 272.464 53.5355C272.66 53.7308 272.976 53.7308 273.172 53.5355L276 50.7071L278.828 53.5355C279.024 53.7308 279.34 53.7308 279.536 53.5355C279.731 53.3403 279.731 53.0237 279.536 52.8284L276.354 49.6464ZM276.5 105L276.5 50L275.5 50L275.5 105L276.5 105Z" fill="black"/>
<path d="M221.75 40H219.057V31.2727H221.869C222.716 31.2727 223.44 31.4474 224.043 31.7969C224.645 32.1435 225.107 32.642 225.428 33.2926C225.749 33.9403 225.909 34.7159 225.909 35.6193C225.909 36.5284 225.747 37.3111 225.423 37.9673C225.099 38.6207 224.628 39.1236 224.009 39.4759C223.389 39.8253 222.636 40 221.75 40ZM220.114 39.0625H221.682C222.403 39.0625 223.001 38.9233 223.476 38.6449C223.95 38.3665 224.304 37.9702 224.537 37.456C224.77 36.9418 224.886 36.3295 224.886 35.6193C224.886 34.9148 224.771 34.3082 224.541 33.7997C224.311 33.2884 223.967 32.8963 223.51 32.6236C223.053 32.348 222.483 32.2102 221.801 32.2102H220.114V39.0625ZM230.29 40.1364C229.659 40.1364 229.115 39.9972 228.658 39.7188C228.203 39.4375 227.852 39.0455 227.605 38.5426C227.361 38.0369 227.239 37.4489 227.239 36.7784C227.239 36.108 227.361 35.517 227.605 35.0057C227.852 34.4915 228.196 34.0909 228.636 33.804C229.08 33.5142 229.597 33.3693 230.188 33.3693C230.528 33.3693 230.865 33.4261 231.197 33.5398C231.53 33.6534 231.832 33.8381 232.105 34.0938C232.378 34.3466 232.595 34.6818 232.757 35.0994C232.919 35.517 233 36.0312 233 36.642V37.0682H227.955V36.1989H231.977C231.977 35.8295 231.903 35.5 231.756 35.2102C231.611 34.9205 231.403 34.6918 231.134 34.5241C230.866 34.3565 230.551 34.2727 230.188 34.2727C229.787 34.2727 229.44 34.3722 229.148 34.571C228.858 34.767 228.635 35.0227 228.479 35.3381C228.322 35.6534 228.244 35.9915 228.244 36.3523V36.9318C228.244 37.4261 228.33 37.8452 228.5 38.1889C228.673 38.5298 228.913 38.7898 229.22 38.9688C229.527 39.1449 229.884 39.233 230.29 39.233C230.554 39.233 230.793 39.196 231.006 39.1222C231.222 39.0455 231.408 38.9318 231.564 38.7812C231.72 38.6278 231.841 38.4375 231.926 38.2102L232.898 38.483C232.795 38.8125 232.624 39.1023 232.382 39.3523C232.141 39.5994 231.842 39.7926 231.487 39.9318C231.132 40.0682 230.733 40.1364 230.29 40.1364ZM239.683 33.4545L237.262 40H236.24L233.819 33.4545H234.91L236.717 38.6705H236.785L238.592 33.4545H239.683ZM243.52 40.1364C242.89 40.1364 242.346 39.9972 241.888 39.7188C241.434 39.4375 241.083 39.0455 240.836 38.5426C240.591 38.0369 240.469 37.4489 240.469 36.7784C240.469 36.108 240.591 35.517 240.836 35.0057C241.083 34.4915 241.426 34.0909 241.867 33.804C242.31 33.5142 242.827 33.3693 243.418 33.3693C243.759 33.3693 244.096 33.4261 244.428 33.5398C244.76 33.6534 245.063 33.8381 245.336 34.0938C245.608 34.3466 245.826 34.6818 245.988 35.0994C246.15 35.517 246.23 36.0312 246.23 36.642V37.0682H241.185V36.1989H245.208C245.208 35.8295 245.134 35.5 244.986 35.2102C244.841 34.9205 244.634 34.6918 244.364 34.5241C244.097 34.3565 243.782 34.2727 243.418 34.2727C243.017 34.2727 242.671 34.3722 242.378 34.571C242.088 34.767 241.865 35.0227 241.709 35.3381C241.553 35.6534 241.475 35.9915 241.475 36.3523V36.9318C241.475 37.4261 241.56 37.8452 241.73 38.1889C241.904 38.5298 242.144 38.7898 242.451 38.9688C242.757 39.1449 243.114 39.233 243.52 39.233C243.784 39.233 244.023 39.196 244.236 39.1222C244.452 39.0455 244.638 38.9318 244.794 38.7812C244.951 38.6278 245.071 38.4375 245.157 38.2102L246.128 38.483C246.026 38.8125 245.854 39.1023 245.613 39.3523C245.371 39.5994 245.073 39.7926 244.718 39.9318C244.363 40.0682 243.963 40.1364 243.52 40.1364ZM248.766 31.2727V40H247.76V31.2727H248.766ZM253.267 40.1364C252.676 40.1364 252.158 39.9957 251.712 39.7145C251.268 39.4332 250.922 39.0398 250.672 38.5341C250.425 38.0284 250.301 37.4375 250.301 36.7614C250.301 36.0795 250.425 35.4844 250.672 34.9759C250.922 34.4673 251.268 34.0724 251.712 33.7912C252.158 33.5099 252.676 33.3693 253.267 33.3693C253.858 33.3693 254.375 33.5099 254.818 33.7912C255.264 34.0724 255.611 34.4673 255.858 34.9759C256.108 35.4844 256.233 36.0795 256.233 36.7614C256.233 37.4375 256.108 38.0284 255.858 38.5341C255.611 39.0398 255.264 39.4332 254.818 39.7145C254.375 39.9957 253.858 40.1364 253.267 40.1364ZM253.267 39.233C253.716 39.233 254.085 39.1179 254.375 38.8878C254.665 38.6577 254.879 38.3551 255.018 37.9801C255.158 37.6051 255.227 37.1989 255.227 36.7614C255.227 36.3239 255.158 35.9162 255.018 35.5384C254.879 35.1605 254.665 34.8551 254.375 34.6222C254.085 34.3892 253.716 34.2727 253.267 34.2727C252.818 34.2727 252.449 34.3892 252.159 34.6222C251.869 34.8551 251.655 35.1605 251.516 35.5384C251.376 35.9162 251.307 36.3239 251.307 36.7614C251.307 37.1989 251.376 37.6051 251.516 37.9801C251.655 38.3551 251.869 38.6577 252.159 38.8878C252.449 39.1179 252.818 39.233 253.267 39.233ZM257.768 42.4545V33.4545H258.74V34.4943H258.859C258.933 34.3807 259.035 34.2358 259.166 34.0597C259.299 33.8807 259.49 33.7216 259.737 33.5824C259.987 33.4403 260.325 33.3693 260.751 33.3693C261.302 33.3693 261.788 33.5071 262.208 33.7827C262.629 34.0582 262.957 34.4489 263.193 34.9545C263.429 35.4602 263.547 36.0568 263.547 36.7443C263.547 37.4375 263.429 38.0384 263.193 38.5469C262.957 39.0526 262.63 39.4446 262.213 39.723C261.795 39.9986 261.314 40.1364 260.768 40.1364C260.348 40.1364 260.011 40.0668 259.758 39.9276C259.505 39.7855 259.311 39.625 259.174 39.446C259.038 39.2642 258.933 39.1136 258.859 38.9943H258.774V42.4545H257.768ZM258.757 36.7273C258.757 37.2216 258.829 37.6577 258.974 38.0355C259.119 38.4105 259.331 38.7045 259.609 38.9176C259.887 39.1278 260.228 39.233 260.632 39.233C261.052 39.233 261.403 39.1222 261.684 38.9006C261.968 38.6761 262.181 38.375 262.324 37.9972C262.468 37.6165 262.541 37.1932 262.541 36.7273C262.541 36.267 262.47 35.8523 262.328 35.483C262.189 35.1108 261.977 34.8168 261.693 34.6009C261.412 34.3821 261.058 34.2727 260.632 34.2727C260.223 34.2727 259.879 34.3764 259.6 34.5838C259.322 34.7884 259.112 35.0753 258.97 35.4446C258.828 35.8111 258.757 36.2386 258.757 36.7273ZM265.081 40V33.4545H266.052V34.4773H266.137C266.274 34.1278 266.494 33.8565 266.798 33.6634C267.102 33.4673 267.467 33.3693 267.893 33.3693C268.325 33.3693 268.684 33.4673 268.971 33.6634C269.261 33.8565 269.487 34.1278 269.649 34.4773H269.717C269.885 34.1392 270.136 33.8707 270.471 33.6719C270.806 33.4702 271.208 33.3693 271.677 33.3693C272.262 33.3693 272.741 33.5526 273.113 33.919C273.485 34.2827 273.672 34.8494 273.672 35.6193V40H272.666V35.6193C272.666 35.1364 272.534 34.7912 272.27 34.5838C272.005 34.3764 271.694 34.2727 271.336 34.2727C270.876 34.2727 270.52 34.4119 270.267 34.6903C270.014 34.9659 269.887 35.3153 269.887 35.7386V40H268.865V35.517C268.865 35.1449 268.744 34.8452 268.502 34.6179C268.261 34.3878 267.95 34.2727 267.569 34.2727C267.308 34.2727 267.064 34.3423 266.836 34.4815C266.612 34.6207 266.43 34.8139 266.291 35.0611C266.154 35.3054 266.086 35.5881 266.086 35.9091V40H265.081ZM278.255 40.1364C277.624 40.1364 277.08 39.9972 276.623 39.7188C276.168 39.4375 275.817 39.0455 275.57 38.5426C275.326 38.0369 275.203 37.4489 275.203 36.7784C275.203 36.108 275.326 35.517 275.57 35.0057C275.817 34.4915 276.161 34.0909 276.601 33.804C277.044 33.5142 277.561 33.3693 278.152 33.3693C278.493 33.3693 278.83 33.4261 279.162 33.5398C279.495 33.6534 279.797 33.8381 280.07 34.0938C280.343 34.3466 280.56 34.6818 280.722 35.0994C280.884 35.517 280.965 36.0312 280.965 36.642V37.0682H275.919V36.1989H279.942C279.942 35.8295 279.868 35.5 279.721 35.2102C279.576 34.9205 279.368 34.6918 279.098 34.5241C278.831 34.3565 278.516 34.2727 278.152 34.2727C277.752 34.2727 277.405 34.3722 277.113 34.571C276.823 34.767 276.6 35.0227 276.444 35.3381C276.287 35.6534 276.209 35.9915 276.209 36.3523V36.9318C276.209 37.4261 276.294 37.8452 276.465 38.1889C276.638 38.5298 276.878 38.7898 277.185 38.9688C277.492 39.1449 277.848 39.233 278.255 39.233C278.519 39.233 278.757 39.196 278.971 39.1222C279.186 39.0455 279.373 38.9318 279.529 38.7812C279.685 38.6278 279.806 38.4375 279.891 38.2102L280.863 38.483C280.76 38.8125 280.588 39.1023 280.347 39.3523C280.105 39.5994 279.807 39.7926 279.452 39.9318C279.097 40.0682 278.698 40.1364 278.255 40.1364ZM283.5 36.0625V40H282.495V33.4545H283.466V34.4773H283.551C283.705 34.1449 283.938 33.8778 284.25 33.6761C284.563 33.4716 284.966 33.3693 285.461 33.3693C285.904 33.3693 286.292 33.4602 286.624 33.642C286.956 33.821 287.215 34.0938 287.4 34.4602C287.584 34.8239 287.676 35.2841 287.676 35.8409V40H286.671V35.9091C286.671 35.3949 286.537 34.9943 286.27 34.7074C286.003 34.4176 285.637 34.2727 285.171 34.2727C284.85 34.2727 284.563 34.3423 284.31 34.4815C284.06 34.6207 283.863 34.8239 283.718 35.0909C283.573 35.358 283.5 35.6818 283.5 36.0625ZM292.361 33.4545V34.3068H288.969V33.4545H292.361ZM289.957 31.8864H290.963V38.125C290.963 38.4091 291.004 38.6222 291.087 38.7642C291.172 38.9034 291.28 38.9972 291.411 39.0455C291.544 39.0909 291.685 39.1136 291.832 39.1136C291.943 39.1136 292.034 39.108 292.105 39.0966C292.176 39.0824 292.233 39.071 292.276 39.0625L292.48 39.9659C292.412 39.9915 292.317 40.017 292.195 40.0426C292.072 40.071 291.918 40.0852 291.73 40.0852C291.446 40.0852 291.168 40.0241 290.895 39.902C290.625 39.7798 290.401 39.5938 290.222 39.3438C290.045 39.0938 289.957 38.7784 289.957 38.3977V31.8864ZM302.158 33.4545C302.107 33.0227 301.899 32.6875 301.536 32.4489C301.172 32.2102 300.726 32.0909 300.197 32.0909C299.811 32.0909 299.473 32.1534 299.183 32.2784C298.896 32.4034 298.672 32.5753 298.51 32.794C298.351 33.0128 298.271 33.2614 298.271 33.5398C298.271 33.7727 298.327 33.973 298.438 34.1406C298.551 34.3054 298.696 34.4432 298.872 34.554C299.048 34.6619 299.233 34.7514 299.426 34.8224C299.619 34.8906 299.797 34.946 299.959 34.9886L300.845 35.2273C301.072 35.2869 301.325 35.3693 301.604 35.4744C301.885 35.5795 302.153 35.723 302.409 35.9048C302.668 36.0838 302.881 36.3139 303.048 36.5952C303.216 36.8764 303.3 37.2216 303.3 37.6307C303.3 38.1023 303.176 38.5284 302.929 38.9091C302.685 39.2898 302.327 39.5923 301.855 39.8168C301.386 40.0412 300.817 40.1534 300.146 40.1534C299.521 40.1534 298.98 40.0526 298.523 39.8509C298.068 39.6491 297.71 39.3679 297.449 39.0071C297.19 38.6463 297.044 38.2273 297.01 37.75H298.101C298.129 38.0795 298.24 38.3523 298.433 38.5682C298.629 38.7812 298.876 38.9403 299.175 39.0455C299.476 39.1477 299.8 39.1989 300.146 39.1989C300.55 39.1989 300.912 39.1335 301.233 39.0028C301.554 38.8693 301.808 38.6847 301.996 38.4489C302.183 38.2102 302.277 37.9318 302.277 37.6136C302.277 37.3239 302.196 37.0881 302.034 36.9062C301.872 36.7244 301.659 36.5767 301.395 36.4631C301.131 36.3494 300.845 36.25 300.538 36.1648L299.464 35.858C298.783 35.6619 298.243 35.3821 297.845 35.0185C297.447 34.6548 297.249 34.179 297.249 33.5909C297.249 33.1023 297.381 32.6761 297.645 32.3125C297.912 31.946 298.27 31.6619 298.719 31.4602C299.17 31.2557 299.675 31.1534 300.232 31.1534C300.794 31.1534 301.294 31.2543 301.732 31.456C302.169 31.6548 302.516 31.9276 302.771 32.2741C303.03 32.6207 303.166 33.0142 303.18 33.4545H302.158ZM307.748 33.4545V34.3068H304.355V33.4545H307.748ZM305.344 31.8864H306.35V38.125C306.35 38.4091 306.391 38.6222 306.473 38.7642C306.559 38.9034 306.667 38.9972 306.797 39.0455C306.931 39.0909 307.071 39.1136 307.219 39.1136C307.33 39.1136 307.421 39.108 307.492 39.0966C307.563 39.0824 307.62 39.071 307.662 39.0625L307.867 39.9659C307.799 39.9915 307.703 40.017 307.581 40.0426C307.459 40.071 307.304 40.0852 307.117 40.0852C306.833 40.0852 306.554 40.0241 306.282 39.902C306.012 39.7798 305.787 39.5938 305.608 39.3438C305.432 39.0938 305.344 38.7784 305.344 38.3977V31.8864ZM311.186 40.1534C310.772 40.1534 310.395 40.0753 310.057 39.919C309.719 39.7599 309.451 39.5312 309.252 39.233C309.053 38.9318 308.953 38.5682 308.953 38.142C308.953 37.767 309.027 37.4631 309.175 37.2301C309.323 36.9943 309.52 36.8097 309.767 36.6761C310.015 36.5426 310.287 36.4432 310.586 36.3778C310.887 36.3097 311.189 36.2557 311.493 36.2159C311.891 36.1648 312.213 36.1264 312.461 36.1009C312.711 36.0724 312.892 36.0256 313.006 35.9602C313.123 35.8949 313.181 35.7812 313.181 35.6193V35.5852C313.181 35.1648 313.066 34.8381 312.836 34.6051C312.608 34.3722 312.263 34.2557 311.8 34.2557C311.32 34.2557 310.944 34.3608 310.671 34.571C310.398 34.7812 310.206 35.0057 310.096 35.2443L309.141 34.9034C309.311 34.5057 309.539 34.196 309.823 33.9744C310.11 33.75 310.422 33.5937 310.76 33.5057C311.101 33.4148 311.436 33.3693 311.766 33.3693C311.976 33.3693 312.218 33.3949 312.49 33.446C312.766 33.4943 313.032 33.5952 313.287 33.7486C313.546 33.902 313.76 34.1335 313.931 34.4432C314.101 34.7528 314.186 35.1676 314.186 35.6875V40H313.181V39.1136H313.13C313.061 39.2557 312.948 39.4077 312.789 39.5696C312.63 39.7315 312.418 39.8693 312.154 39.983C311.89 40.0966 311.567 40.1534 311.186 40.1534ZM311.34 39.25C311.738 39.25 312.073 39.1719 312.346 39.0156C312.621 38.8594 312.828 38.6577 312.968 38.4105C313.11 38.1634 313.181 37.9034 313.181 37.6307V36.7102C313.138 36.7614 313.044 36.8082 312.9 36.8509C312.757 36.8906 312.593 36.9261 312.405 36.9574C312.221 36.9858 312.04 37.0114 311.864 37.0341C311.691 37.054 311.55 37.071 311.442 37.0852C311.181 37.1193 310.936 37.1747 310.709 37.2514C310.485 37.3253 310.303 37.4375 310.164 37.5881C310.027 37.7358 309.959 37.9375 309.959 38.1932C309.959 38.5426 310.088 38.8068 310.347 38.9858C310.608 39.1619 310.939 39.25 311.34 39.25ZM318.869 33.4545V34.3068H315.477V33.4545H318.869ZM316.465 31.8864H317.471V38.125C317.471 38.4091 317.512 38.6222 317.594 38.7642C317.68 38.9034 317.788 38.9972 317.918 39.0455C318.052 39.0909 318.192 39.1136 318.34 39.1136C318.451 39.1136 318.542 39.108 318.613 39.0966C318.684 39.0824 318.741 39.071 318.783 39.0625L318.988 39.9659C318.92 39.9915 318.825 40.017 318.702 40.0426C318.58 40.071 318.425 40.0852 318.238 40.0852C317.954 40.0852 317.675 40.0241 317.403 39.902C317.133 39.7798 316.908 39.5938 316.729 39.3438C316.553 39.0938 316.465 38.7784 316.465 38.3977V31.8864ZM324.506 37.3239V33.4545H325.512V40H324.506V38.892H324.438C324.285 39.2244 324.046 39.5071 323.722 39.7401C323.398 39.9702 322.989 40.0852 322.495 40.0852C322.086 40.0852 321.722 39.9957 321.404 39.8168C321.086 39.6349 320.836 39.3622 320.654 38.9986C320.472 38.6321 320.381 38.1705 320.381 37.6136V33.4545H321.387V37.5455C321.387 38.0227 321.521 38.4034 321.788 38.6875C322.058 38.9716 322.401 39.1136 322.819 39.1136C323.069 39.1136 323.323 39.0497 323.582 38.9219C323.843 38.794 324.062 38.598 324.238 38.3338C324.417 38.0696 324.506 37.733 324.506 37.3239ZM331.99 34.9205L331.087 35.1761C331.03 35.0256 330.946 34.8793 330.836 34.7372C330.728 34.5923 330.58 34.473 330.392 34.3793C330.205 34.2855 329.965 34.2386 329.672 34.2386C329.272 34.2386 328.938 34.331 328.671 34.5156C328.407 34.6974 328.275 34.929 328.275 35.2102C328.275 35.4602 328.365 35.6577 328.547 35.8026C328.729 35.9474 329.013 36.0682 329.4 36.1648L330.371 36.4034C330.956 36.5455 331.392 36.7628 331.679 37.0554C331.966 37.3452 332.11 37.7187 332.11 38.1761C332.11 38.5511 332.002 38.8864 331.786 39.1818C331.573 39.4773 331.275 39.7102 330.891 39.8807C330.507 40.0511 330.061 40.1364 329.553 40.1364C328.885 40.1364 328.333 39.9915 327.895 39.7017C327.458 39.4119 327.181 38.9886 327.064 38.4318L328.019 38.1932C328.11 38.5455 328.282 38.8097 328.534 38.9858C328.79 39.1619 329.124 39.25 329.536 39.25C330.005 39.25 330.377 39.1506 330.652 38.9517C330.931 38.75 331.07 38.5085 331.07 38.2273C331.07 38 330.99 37.8097 330.831 37.6562C330.672 37.5 330.428 37.3835 330.098 37.3068L329.007 37.0511C328.408 36.9091 327.968 36.6889 327.686 36.3906C327.408 36.0895 327.269 35.7131 327.269 35.2614C327.269 34.892 327.373 34.5653 327.58 34.2812C327.79 33.9972 328.076 33.7741 328.436 33.6122C328.8 33.4503 329.212 33.3693 329.672 33.3693C330.32 33.3693 330.828 33.5114 331.198 33.7955C331.57 34.0795 331.834 34.4545 331.99 34.9205Z" fill="#002109"/>
<path d="M269.278 151.636C269.278 150.562 269.418 149.575 269.696 148.675C269.977 147.771 270.378 146.94 270.898 146.182H271.784C271.58 146.463 271.388 146.81 271.209 147.222C271.033 147.631 270.878 148.081 270.744 148.572C270.611 149.061 270.506 149.567 270.429 150.089C270.355 150.612 270.318 151.128 270.318 151.636C270.318 152.312 270.384 152.999 270.514 153.695C270.645 154.391 270.821 155.037 271.043 155.634C271.264 156.23 271.511 156.716 271.784 157.091H270.898C270.378 156.332 269.977 155.503 269.696 154.602C269.418 153.699 269.278 152.71 269.278 151.636ZM273.251 156V155.233L276.132 152.08C276.47 151.71 276.748 151.389 276.967 151.116C277.186 150.841 277.348 150.582 277.453 150.341C277.561 150.097 277.615 149.841 277.615 149.574C277.615 149.267 277.541 149.001 277.393 148.777C277.248 148.553 277.049 148.379 276.797 148.257C276.544 148.135 276.26 148.074 275.944 148.074C275.609 148.074 275.316 148.143 275.066 148.283C274.819 148.419 274.627 148.611 274.491 148.858C274.358 149.105 274.291 149.395 274.291 149.727H273.285C273.285 149.216 273.403 148.767 273.639 148.381C273.875 147.994 274.196 147.693 274.602 147.477C275.011 147.261 275.47 147.153 275.978 147.153C276.49 147.153 276.943 147.261 277.338 147.477C277.733 147.693 278.042 147.984 278.267 148.351C278.491 148.717 278.603 149.125 278.603 149.574C278.603 149.895 278.545 150.209 278.429 150.516C278.315 150.82 278.116 151.159 277.832 151.534C277.551 151.906 277.16 152.361 276.66 152.898L274.7 154.994V155.062H278.757V156H273.251ZM282.681 151.636C282.681 152.71 282.541 153.699 282.26 154.602C281.981 155.503 281.582 156.332 281.062 157.091H280.176C280.38 156.81 280.571 156.463 280.747 156.051C280.926 155.642 281.082 155.193 281.216 154.705C281.349 154.213 281.453 153.706 281.527 153.183C281.603 152.658 281.642 152.142 281.642 151.636C281.642 150.96 281.576 150.274 281.446 149.578C281.315 148.882 281.139 148.236 280.917 147.639C280.696 147.043 280.449 146.557 280.176 146.182H281.062C281.582 146.94 281.981 147.771 282.26 148.675C282.541 149.575 282.681 150.562 282.681 151.636Z" fill="#002109"/>
<rect x="425" y="113" width="92" height="23" rx="11.5" fill="#EBEFE7"/>
<path d="M438.972 121.273V130H437.915V122.381H437.864L435.733 123.795V122.722L437.915 121.273H438.972ZM441.482 130V129.233L444.362 126.08C444.7 125.71 444.979 125.389 445.197 125.116C445.416 124.841 445.578 124.582 445.683 124.341C445.791 124.097 445.845 123.841 445.845 123.574C445.845 123.267 445.771 123.001 445.624 122.777C445.479 122.553 445.28 122.379 445.027 122.257C444.774 122.135 444.49 122.074 444.175 122.074C443.839 122.074 443.547 122.143 443.297 122.283C443.05 122.419 442.858 122.611 442.722 122.858C442.588 123.105 442.521 123.395 442.521 123.727H441.516C441.516 123.216 441.634 122.767 441.869 122.381C442.105 121.994 442.426 121.693 442.832 121.477C443.241 121.261 443.7 121.153 444.209 121.153C444.72 121.153 445.173 121.261 445.568 121.477C445.963 121.693 446.273 121.984 446.497 122.351C446.722 122.717 446.834 123.125 446.834 123.574C446.834 123.895 446.776 124.209 446.659 124.516C446.545 124.82 446.347 125.159 446.062 125.534C445.781 125.906 445.391 126.361 444.891 126.898L442.93 128.994V129.062H446.987V130H441.482ZM453.281 130V130.938H447.827V130H453.281ZM456.469 130.119C455.827 130.119 455.28 129.945 454.828 129.595C454.376 129.243 454.031 128.733 453.793 128.065C453.554 127.395 453.435 126.585 453.435 125.636C453.435 124.693 453.554 123.888 453.793 123.22C454.034 122.55 454.381 122.038 454.832 121.686C455.287 121.331 455.832 121.153 456.469 121.153C457.105 121.153 457.649 121.331 458.101 121.686C458.555 122.038 458.902 122.55 459.141 123.22C459.382 123.888 459.503 124.693 459.503 125.636C459.503 126.585 459.384 127.395 459.145 128.065C458.906 128.733 458.561 129.243 458.109 129.595C457.658 129.945 457.111 130.119 456.469 130.119ZM456.469 129.182C457.105 129.182 457.599 128.875 457.952 128.261C458.304 127.648 458.48 126.773 458.48 125.636C458.48 124.881 458.399 124.237 458.237 123.706C458.078 123.175 457.848 122.77 457.547 122.491C457.249 122.213 456.889 122.074 456.469 122.074C455.838 122.074 455.345 122.385 454.99 123.007C454.635 123.626 454.457 124.503 454.457 125.636C454.457 126.392 454.537 127.034 454.696 127.562C454.855 128.091 455.084 128.493 455.382 128.768C455.683 129.044 456.045 129.182 456.469 129.182ZM464.19 121.273V130H463.134V122.381H463.082L460.952 123.795V122.722L463.134 121.273H464.19ZM471.234 130V130.938H465.78V130H471.234ZM474.422 130.119C473.78 130.119 473.233 129.945 472.781 129.595C472.33 129.243 471.984 128.733 471.746 128.065C471.507 127.395 471.388 126.585 471.388 125.636C471.388 124.693 471.507 123.888 471.746 123.22C471.987 122.55 472.334 122.038 472.786 121.686C473.24 121.331 473.786 121.153 474.422 121.153C475.058 121.153 475.602 121.331 476.054 121.686C476.509 122.038 476.855 122.55 477.094 123.22C477.335 123.888 477.456 124.693 477.456 125.636C477.456 126.585 477.337 127.395 477.098 128.065C476.859 128.733 476.514 129.243 476.062 129.595C475.611 129.945 475.064 130.119 474.422 130.119ZM474.422 129.182C475.058 129.182 475.553 128.875 475.905 128.261C476.257 127.648 476.433 126.773 476.433 125.636C476.433 124.881 476.352 124.237 476.19 123.706C476.031 123.175 475.801 122.77 475.5 122.491C475.202 122.213 474.842 122.074 474.422 122.074C473.791 122.074 473.298 122.385 472.943 123.007C472.588 123.626 472.411 124.503 472.411 125.636C472.411 126.392 472.49 127.034 472.649 127.562C472.808 128.091 473.037 128.493 473.335 128.768C473.636 129.044 473.999 129.182 474.422 129.182ZM479.075 130V129.233L481.956 126.08C482.294 125.71 482.572 125.389 482.791 125.116C483.01 124.841 483.172 124.582 483.277 124.341C483.385 124.097 483.439 123.841 483.439 123.574C483.439 123.267 483.365 123.001 483.217 122.777C483.072 122.553 482.874 122.379 482.621 122.257C482.368 122.135 482.084 122.074 481.768 122.074C481.433 122.074 481.141 122.143 480.891 122.283C480.643 122.419 480.452 122.611 480.315 122.858C480.182 123.105 480.115 123.395 480.115 123.727H479.109C479.109 123.216 479.227 122.767 479.463 122.381C479.699 121.994 480.02 121.693 480.426 121.477C480.835 121.261 481.294 121.153 481.803 121.153C482.314 121.153 482.767 121.261 483.162 121.477C483.557 121.693 483.866 121.984 484.091 122.351C484.315 122.717 484.428 123.125 484.428 123.574C484.428 123.895 484.369 124.209 484.253 124.516C484.139 124.82 483.94 125.159 483.656 125.534C483.375 125.906 482.984 126.361 482.484 126.898L480.524 128.994V129.062H484.581V130H479.075ZM490.875 130V130.938H485.42V130H490.875ZM494.062 130.119C493.42 130.119 492.874 129.945 492.422 129.595C491.97 129.243 491.625 128.733 491.386 128.065C491.148 127.395 491.028 126.585 491.028 125.636C491.028 124.693 491.148 123.888 491.386 123.22C491.628 122.55 491.974 122.038 492.426 121.686C492.881 121.331 493.426 121.153 494.062 121.153C494.699 121.153 495.243 121.331 495.695 121.686C496.149 122.038 496.496 122.55 496.734 123.22C496.976 123.888 497.097 124.693 497.097 125.636C497.097 126.585 496.977 127.395 496.739 128.065C496.5 128.733 496.155 129.243 495.703 129.595C495.251 129.945 494.705 130.119 494.062 130.119ZM494.062 129.182C494.699 129.182 495.193 128.875 495.545 128.261C495.898 127.648 496.074 126.773 496.074 125.636C496.074 124.881 495.993 124.237 495.831 123.706C495.672 123.175 495.442 122.77 495.141 122.491C494.842 122.213 494.483 122.074 494.062 122.074C493.432 122.074 492.939 122.385 492.584 123.007C492.229 123.626 492.051 124.503 492.051 125.636C492.051 126.392 492.131 127.034 492.29 127.562C492.449 128.091 492.678 128.493 492.976 128.768C493.277 129.044 493.639 129.182 494.062 129.182ZM498.511 128.21V127.341L502.347 121.273H502.977V122.619H502.551L499.653 127.205V127.273H504.818V128.21H498.511ZM502.619 130V127.946V127.541V121.273H503.625V130H502.619Z" fill="#002109"/>
<path d="M416.854 125.354C417.049 125.158 417.049 124.842 416.854 124.646L413.672 121.464C413.476 121.269 413.16 121.269 412.964 121.464C412.769 121.66 412.769 121.976 412.964 122.172L415.793 125L412.964 127.828C412.769 128.024 412.769 128.34 412.964 128.536C413.16 128.731 413.476 128.731 413.672 128.536L416.854 125.354ZM344 125.5H416.5V124.5H344V125.5Z" fill="black"/>
</svg>
